<?xml version="1.0" encoding="UTF-8"?>
<svg xmlns="http://www.w3.org/2000/svg" xmlns:xlink="http://www.w3.org/1999/xlink" width="504" height="504" viewBox="0 0 504 504">
<rect x="-50.4" y="-50.4" width="604.8" height="604.8" fill="rgb(100%, 100%, 100%)" fill-opacity="1"/>
<path fill="none" stroke-width="0.708661" stroke-linecap="round" stroke-linejoin="round" stroke="rgb(18.431373%, 30.980392%, 30.980392%)" stroke-opacity="1" stroke-miterlimit="10" d="M 34.964844 480.058594 C 34.964844 486.148438 30.027344 491.085938 23.941406 491.085938 C 17.851562 491.085938 12.914062 486.148438 12.914062 480.058594 C 12.914062 473.972656 17.851562 469.035156 23.941406 469.035156 C 30.027344 469.035156 34.964844 473.972656 34.964844 480.058594 "/>
<path fill-rule="nonzero" fill="rgb(18.431373%, 30.980392%, 30.980392%)" fill-opacity="1" stroke-width="0.708661" stroke-linecap="round" stroke-linejoin="round" stroke="rgb(18.431373%, 30.980392%, 30.980392%)" stroke-opacity="1" stroke-miterlimit="10" d="M 85.761719 480.058594 C 85.761719 486.148438 80.828125 491.085938 74.738281 491.085938 C 68.652344 491.085938 63.714844 486.148438 63.714844 480.058594 C 63.714844 473.972656 68.652344 469.035156 74.738281 469.035156 C 80.828125 469.035156 85.761719 473.972656 85.761719 480.058594 "/>
<path fill="none" stroke-width="0.708661" stroke-linecap="round" stroke-linejoin="round" stroke="rgb(18.431373%, 30.980392%, 30.980392%)" stroke-opacity="1" stroke-miterlimit="10" d="M 136.5625 480.058594 C 136.5625 486.148438 131.628906 491.085938 125.539062 491.085938 C 119.449219 491.085938 114.515625 486.148438 114.515625 480.058594 C 114.515625 473.972656 119.449219 469.035156 125.539062 469.035156 C 131.628906 469.035156 136.5625 473.972656 136.5625 480.058594 "/>
<path fill="none" stroke-width="0.708661" stroke-linecap="round" stroke-linejoin="round" stroke="rgb(18.431373%, 30.980392%, 30.980392%)" stroke-opacity="1" stroke-miterlimit="10" d="M 187.363281 480.058594 C 187.363281 486.148438 182.429688 491.085938 176.339844 491.085938 C 170.25 491.085938 165.316406 486.148438 165.316406 480.058594 C 165.316406 473.972656 170.25 469.035156 176.339844 469.035156 C 182.429688 469.035156 187.363281 473.972656 187.363281 480.058594 "/>
<path fill="none" stroke-width="0.708661" stroke-linecap="round" stroke-linejoin="round" stroke="rgb(18.431373%, 30.980392%, 30.980392%)" stroke-opacity="1" stroke-miterlimit="10" d="M 238.164062 480.058594 C 238.164062 486.148438 233.226562 491.085938 227.140625 491.085938 C 221.050781 491.085938 216.117188 486.148438 216.117188 480.058594 C 216.117188 473.972656 221.050781 469.035156 227.140625 469.035156 C 233.226562 469.035156 238.164062 473.972656 238.164062 480.058594 "/>
<path fill="none" stroke-width="0.708661" stroke-linecap="round" stroke-linejoin="round" stroke="rgb(18.431373%, 30.980392%, 30.980392%)" stroke-opacity="1" stroke-miterlimit="10" d="M 288.964844 480.058594 C 288.964844 486.148438 284.027344 491.085938 277.941406 491.085938 C 271.851562 491.085938 266.914062 486.148438 266.914062 480.058594 C 266.914062 473.972656 271.851562 469.035156 277.941406 469.035156 C 284.027344 469.035156 288.964844 473.972656 288.964844 480.058594 "/>
<path fill="none" stroke-width="0.708661" stroke-linecap="round" stroke-linejoin="round" stroke="rgb(18.431373%, 30.980392%, 30.980392%)" stroke-opacity="1" stroke-miterlimit="10" d="M 339.765625 480.058594 C 339.765625 486.148438 334.828125 491.085938 328.738281 491.085938 C 322.652344 491.085938 317.714844 486.148438 317.714844 480.058594 C 317.714844 473.972656 322.652344 469.035156 328.738281 469.035156 C 334.828125 469.035156 339.765625 473.972656 339.765625 480.058594 "/>
<path fill="none" stroke-width="0.708661" stroke-linecap="round" stroke-linejoin="round" stroke="rgb(18.431373%, 30.980392%, 30.980392%)" stroke-opacity="1" stroke-miterlimit="10" d="M 390.5625 480.058594 C 390.5625 486.148438 385.628906 491.085938 379.539062 491.085938 C 373.453125 491.085938 368.515625 486.148438 368.515625 480.058594 C 368.515625 473.972656 373.453125 469.035156 379.539062 469.035156 C 385.628906 469.035156 390.5625 473.972656 390.5625 480.058594 "/>
<path fill-rule="nonzero" fill="rgb(18.431373%, 30.980392%, 30.980392%)" fill-opacity="1" stroke-width="0.708661" stroke-linecap="round" stroke-linejoin="round" stroke="rgb(18.431373%, 30.980392%, 30.980392%)" stroke-opacity="1" stroke-miterlimit="10" d="M 441.363281 480.058594 C 441.363281 486.148438 436.429688 491.085938 430.339844 491.085938 C 424.25 491.085938 419.316406 486.148438 419.316406 480.058594 C 419.316406 473.972656 424.25 469.035156 430.339844 469.035156 C 436.429688 469.035156 441.363281 473.972656 441.363281 480.058594 "/>
<path fill-rule="nonzero" fill="rgb(18.431373%, 30.980392%, 30.980392%)" fill-opacity="1" stroke-width="0.708661" stroke-linecap="round" stroke-linejoin="round" stroke="rgb(18.431373%, 30.980392%, 30.980392%)" stroke-opacity="1" stroke-miterlimit="10" d="M 492.164062 480.058594 C 492.164062 486.148438 487.226562 491.085938 481.140625 491.085938 C 475.050781 491.085938 470.117188 486.148438 470.117188 480.058594 C 470.117188 473.972656 475.050781 469.035156 481.140625 469.035156 C 487.226562 469.035156 492.164062 473.972656 492.164062 480.058594 "/>
<path fill="none" stroke-width="0.708661" stroke-linecap="round" stroke-linejoin="round" stroke="rgb(18.431373%, 30.980392%, 30.980392%)" stroke-opacity="1" stroke-miterlimit="10" d="M 34.964844 429.261719 C 34.964844 435.347656 30.027344 440.285156 23.941406 440.285156 C 17.851562 440.285156 12.914062 435.347656 12.914062 429.261719 C 12.914062 423.171875 17.851562 418.238281 23.941406 418.238281 C 30.027344 418.238281 34.964844 423.171875 34.964844 429.261719 "/>
<path fill="none" stroke-width="0.708661" stroke-linecap="round" stroke-linejoin="round" stroke="rgb(18.431373%, 30.980392%, 30.980392%)" stroke-opacity="1" stroke-miterlimit="10" d="M 85.761719 429.261719 C 85.761719 435.347656 80.828125 440.285156 74.738281 440.285156 C 68.652344 440.285156 63.714844 435.347656 63.714844 429.261719 C 63.714844 423.171875 68.652344 418.238281 74.738281 418.238281 C 80.828125 418.238281 85.761719 423.171875 85.761719 429.261719 "/>
<path fill-rule="nonzero" fill="rgb(18.431373%, 30.980392%, 30.980392%)" fill-opacity="1" stroke-width="0.708661" stroke-linecap="round" stroke-linejoin="round" stroke="rgb(18.431373%, 30.980392%, 30.980392%)" stroke-opacity="1" stroke-miterlimit="10" d="M 136.5625 429.261719 C 136.5625 435.347656 131.628906 440.285156 125.539062 440.285156 C 119.449219 440.285156 114.515625 435.347656 114.515625 429.261719 C 114.515625 423.171875 119.449219 418.238281 125.539062 418.238281 C 131.628906 418.238281 136.5625 423.171875 136.5625 429.261719 "/>
<path fill="none" stroke-width="0.708661" stroke-linecap="round" stroke-linejoin="round" stroke="rgb(18.431373%, 30.980392%, 30.980392%)" stroke-opacity="1" stroke-miterlimit="10" d="M 187.363281 429.261719 C 187.363281 435.347656 182.429688 440.285156 176.339844 440.285156 C 170.25 440.285156 165.316406 435.347656 165.316406 429.261719 C 165.316406 423.171875 170.25 418.238281 176.339844 418.238281 C 182.429688 418.238281 187.363281 423.171875 187.363281 429.261719 "/>
<path fill-rule="nonzero" fill="rgb(18.431373%, 30.980392%, 30.980392%)" fill-opacity="1" stroke-width="0.708661" stroke-linecap="round" stroke-linejoin="round" stroke="rgb(18.431373%, 30.980392%, 30.980392%)" stroke-opacity="1" stroke-miterlimit="10" d="M 238.164062 429.261719 C 238.164062 435.347656 233.226562 440.285156 227.140625 440.285156 C 221.050781 440.285156 216.117188 435.347656 216.117188 429.261719 C 216.117188 423.171875 221.050781 418.238281 227.140625 418.238281 C 233.226562 418.238281 238.164062 423.171875 238.164062 429.261719 "/>
<path fill-rule="nonzero" fill="rgb(18.431373%, 30.980392%, 30.980392%)" fill-opacity="1" stroke-width="0.708661" stroke-linecap="round" stroke-linejoin="round" stroke="rgb(18.431373%, 30.980392%, 30.980392%)" stroke-opacity="1" stroke-miterlimit="10" d="M 288.964844 429.261719 C 288.964844 435.347656 284.027344 440.285156 277.941406 440.285156 C 271.851562 440.285156 266.914062 435.347656 266.914062 429.261719 C 266.914062 423.171875 271.851562 418.238281 277.941406 418.238281 C 284.027344 418.238281 288.964844 423.171875 288.964844 429.261719 "/>
<path fill="none" stroke-width="0.708661" stroke-linecap="round" stroke-linejoin="round" stroke="rgb(18.431373%, 30.980392%, 30.980392%)" stroke-opacity="1" stroke-miterlimit="10" d="M 339.765625 429.261719 C 339.765625 435.347656 334.828125 440.285156 328.738281 440.285156 C 322.652344 440.285156 317.714844 435.347656 317.714844 429.261719 C 317.714844 423.171875 322.652344 418.238281 328.738281 418.238281 C 334.828125 418.238281 339.765625 423.171875 339.765625 429.261719 "/>
<path fill-rule="nonzero" fill="rgb(18.431373%, 30.980392%, 30.980392%)" fill-opacity="1" stroke-width="0.708661" stroke-linecap="round" stroke-linejoin="round" stroke="rgb(18.431373%, 30.980392%, 30.980392%)" stroke-opacity="1" stroke-miterlimit="10" d="M 390.5625 429.261719 C 390.5625 435.347656 385.628906 440.285156 379.539062 440.285156 C 373.453125 440.285156 368.515625 435.347656 368.515625 429.261719 C 368.515625 423.171875 373.453125 418.238281 379.539062 418.238281 C 385.628906 418.238281 390.5625 423.171875 390.5625 429.261719 "/>
<path fill="none" stroke-width="0.708661" stroke-linecap="round" stroke-linejoin="round" stroke="rgb(18.431373%, 30.980392%, 30.980392%)" stroke-opacity="1" stroke-miterlimit="10" d="M 441.363281 429.261719 C 441.363281 435.347656 436.429688 440.285156 430.339844 440.285156 C 424.25 440.285156 419.316406 435.347656 419.316406 429.261719 C 419.316406 423.171875 424.25 418.238281 430.339844 418.238281 C 436.429688 418.238281 441.363281 423.171875 441.363281 429.261719 "/>
<path fill="none" stroke-width="0.708661" stroke-linecap="round" stroke-linejoin="round" stroke="rgb(18.431373%, 30.980392%, 30.980392%)" stroke-opacity="1" stroke-miterlimit="10" d="M 492.164062 429.261719 C 492.164062 435.347656 487.226562 440.285156 481.140625 440.285156 C 475.050781 440.285156 470.117188 435.347656 470.117188 429.261719 C 470.117188 423.171875 475.050781 418.238281 481.140625 418.238281 C 487.226562 418.238281 492.164062 423.171875 492.164062 429.261719 "/>
<path fill="none" stroke-width="0.708661" stroke-linecap="round" stroke-linejoin="round" stroke="rgb(18.431373%, 30.980392%, 30.980392%)" stroke-opacity="1" stroke-miterlimit="10" d="M 34.964844 378.460938 C 34.964844 384.550781 30.027344 389.484375 23.941406 389.484375 C 17.851562 389.484375 12.914062 384.550781 12.914062 378.460938 C 12.914062 372.371094 17.851562 367.4375 23.941406 367.4375 C 30.027344 367.4375 34.964844 372.371094 34.964844 378.460938 "/>
<path fill-rule="nonzero" fill="rgb(18.431373%, 30.980392%, 30.980392%)" fill-opacity="1" stroke-width="0.708661" stroke-linecap="round" stroke-linejoin="round" stroke="rgb(18.431373%, 30.980392%, 30.980392%)" stroke-opacity="1" stroke-miterlimit="10" d="M 85.761719 378.460938 C 85.761719 384.550781 80.828125 389.484375 74.738281 389.484375 C 68.652344 389.484375 63.714844 384.550781 63.714844 378.460938 C 63.714844 372.371094 68.652344 367.4375 74.738281 367.4375 C 80.828125 367.4375 85.761719 372.371094 85.761719 378.460938 "/>
<path fill-rule="nonzero" fill="rgb(18.431373%, 30.980392%, 30.980392%)" fill-opacity="1" stroke-width="0.708661" stroke-linecap="round" stroke-linejoin="round" stroke="rgb(18.431373%, 30.980392%, 30.980392%)" stroke-opacity="1" stroke-miterlimit="10" d="M 136.5625 378.460938 C 136.5625 384.550781 131.628906 389.484375 125.539062 389.484375 C 119.449219 389.484375 114.515625 384.550781 114.515625 378.460938 C 114.515625 372.371094 119.449219 367.4375 125.539062 367.4375 C 131.628906 367.4375 136.5625 372.371094 136.5625 378.460938 "/>
<path fill="none" stroke-width="0.708661" stroke-linecap="round" stroke-linejoin="round" stroke="rgb(18.431373%, 30.980392%, 30.980392%)" stroke-opacity="1" stroke-miterlimit="10" d="M 187.363281 378.460938 C 187.363281 384.550781 182.429688 389.484375 176.339844 389.484375 C 170.25 389.484375 165.316406 384.550781 165.316406 378.460938 C 165.316406 372.371094 170.25 367.4375 176.339844 367.4375 C 182.429688 367.4375 187.363281 372.371094 187.363281 378.460938 "/>
<path fill="none" stroke-width="0.708661" stroke-linecap="round" stroke-linejoin="round" stroke="rgb(18.431373%, 30.980392%, 30.980392%)" stroke-opacity="1" stroke-miterlimit="10" d="M 238.164062 378.460938 C 238.164062 384.550781 233.226562 389.484375 227.140625 389.484375 C 221.050781 389.484375 216.117188 384.550781 216.117188 378.460938 C 216.117188 372.371094 221.050781 367.4375 227.140625 367.4375 C 233.226562 367.4375 238.164062 372.371094 238.164062 378.460938 "/>
<path fill-rule="nonzero" fill="rgb(18.431373%, 30.980392%, 30.980392%)" fill-opacity="1" stroke-width="0.708661" stroke-linecap="round" stroke-linejoin="round" stroke="rgb(18.431373%, 30.980392%, 30.980392%)" stroke-opacity="1" stroke-miterlimit="10" d="M 288.964844 378.460938 C 288.964844 384.550781 284.027344 389.484375 277.941406 389.484375 C 271.851562 389.484375 266.914062 384.550781 266.914062 378.460938 C 266.914062 372.371094 271.851562 367.4375 277.941406 367.4375 C 284.027344 367.4375 288.964844 372.371094 288.964844 378.460938 "/>
<path fill="none" stroke-width="0.708661" stroke-linecap="round" stroke-linejoin="round" stroke="rgb(18.431373%, 30.980392%, 30.980392%)" stroke-opacity="1" stroke-miterlimit="10" d="M 339.765625 378.460938 C 339.765625 384.550781 334.828125 389.484375 328.738281 389.484375 C 322.652344 389.484375 317.714844 384.550781 317.714844 378.460938 C 317.714844 372.371094 322.652344 367.4375 328.738281 367.4375 C 334.828125 367.4375 339.765625 372.371094 339.765625 378.460938 "/>
<path fill="none" stroke-width="0.708661" stroke-linecap="round" stroke-linejoin="round" stroke="rgb(18.431373%, 30.980392%, 30.980392%)" stroke-opacity="1" stroke-miterlimit="10" d="M 390.5625 378.460938 C 390.5625 384.550781 385.628906 389.484375 379.539062 389.484375 C 373.453125 389.484375 368.515625 384.550781 368.515625 378.460938 C 368.515625 372.371094 373.453125 367.4375 379.539062 367.4375 C 385.628906 367.4375 390.5625 372.371094 390.5625 378.460938 "/>
<path fill="none" stroke-width="0.708661" stroke-linecap="round" stroke-linejoin="round" stroke="rgb(18.431373%, 30.980392%, 30.980392%)" stroke-opacity="1" stroke-miterlimit="10" d="M 441.363281 378.460938 C 441.363281 384.550781 436.429688 389.484375 430.339844 389.484375 C 424.25 389.484375 419.316406 384.550781 419.316406 378.460938 C 419.316406 372.371094 424.25 367.4375 430.339844 367.4375 C 436.429688 367.4375 441.363281 372.371094 441.363281 378.460938 "/>
<path fill="none" stroke-width="0.708661" stroke-linecap="round" stroke-linejoin="round" stroke="rgb(18.431373%, 30.980392%, 30.980392%)" stroke-opacity="1" stroke-miterlimit="10" d="M 492.164062 378.460938 C 492.164062 384.550781 487.226562 389.484375 481.140625 389.484375 C 475.050781 389.484375 470.117188 384.550781 470.117188 378.460938 C 470.117188 372.371094 475.050781 367.4375 481.140625 367.4375 C 487.226562 367.4375 492.164062 372.371094 492.164062 378.460938 "/>
<path fill="none" stroke-width="0.708661" stroke-linecap="round" stroke-linejoin="round" stroke="rgb(18.431373%, 30.980392%, 30.980392%)" stroke-opacity="1" stroke-miterlimit="10" d="M 34.964844 327.660156 C 34.964844 333.75 30.027344 338.683594 23.941406 338.683594 C 17.851562 338.683594 12.914062 333.75 12.914062 327.660156 C 12.914062 321.570312 17.851562 316.636719 23.941406 316.636719 C 30.027344 316.636719 34.964844 321.570312 34.964844 327.660156 "/>
<path fill="none" stroke-width="0.708661" stroke-linecap="round" stroke-linejoin="round" stroke="rgb(18.431373%, 30.980392%, 30.980392%)" stroke-opacity="1" stroke-miterlimit="10" d="M 85.761719 327.660156 C 85.761719 333.75 80.828125 338.683594 74.738281 338.683594 C 68.652344 338.683594 63.714844 333.75 63.714844 327.660156 C 63.714844 321.570312 68.652344 316.636719 74.738281 316.636719 C 80.828125 316.636719 85.761719 321.570312 85.761719 327.660156 "/>
<path fill-rule="nonzero" fill="rgb(18.431373%, 30.980392%, 30.980392%)" fill-opacity="1" stroke-width="0.708661" stroke-linecap="round" stroke-linejoin="round" stroke="rgb(18.431373%, 30.980392%, 30.980392%)" stroke-opacity="1" stroke-miterlimit="10" d="M 136.5625 327.660156 C 136.5625 333.75 131.628906 338.683594 125.539062 338.683594 C 119.449219 338.683594 114.515625 333.75 114.515625 327.660156 C 114.515625 321.570312 119.449219 316.636719 125.539062 316.636719 C 131.628906 316.636719 136.5625 321.570312 136.5625 327.660156 "/>
<path fill-rule="nonzero" fill="rgb(18.431373%, 30.980392%, 30.980392%)" fill-opacity="1" stroke-width="0.708661" stroke-linecap="round" stroke-linejoin="round" stroke="rgb(18.431373%, 30.980392%, 30.980392%)" stroke-opacity="1" stroke-miterlimit="10" d="M 187.363281 327.660156 C 187.363281 333.75 182.429688 338.683594 176.339844 338.683594 C 170.25 338.683594 165.316406 333.75 165.316406 327.660156 C 165.316406 321.570312 170.25 316.636719 176.339844 316.636719 C 182.429688 316.636719 187.363281 321.570312 187.363281 327.660156 "/>
<path fill="none" stroke-width="0.708661" stroke-linecap="round" stroke-linejoin="round" stroke="rgb(18.431373%, 30.980392%, 30.980392%)" stroke-opacity="1" stroke-miterlimit="10" d="M 238.164062 327.660156 C 238.164062 333.75 233.226562 338.683594 227.140625 338.683594 C 221.050781 338.683594 216.117188 333.75 216.117188 327.660156 C 216.117188 321.570312 221.050781 316.636719 227.140625 316.636719 C 233.226562 316.636719 238.164062 321.570312 238.164062 327.660156 "/>
<path fill="none" stroke-width="0.708661" stroke-linecap="round" stroke-linejoin="round" stroke="rgb(18.431373%, 30.980392%, 30.980392%)" stroke-opacity="1" stroke-miterlimit="10" d="M 288.964844 327.660156 C 288.964844 333.75 284.027344 338.683594 277.941406 338.683594 C 271.851562 338.683594 266.914062 333.75 266.914062 327.660156 C 266.914062 321.570312 271.851562 316.636719 277.941406 316.636719 C 284.027344 316.636719 288.964844 321.570312 288.964844 327.660156 "/>
<path fill="none" stroke-width="0.708661" stroke-linecap="round" stroke-linejoin="round" stroke="rgb(18.431373%, 30.980392%, 30.980392%)" stroke-opacity="1" stroke-miterlimit="10" d="M 339.765625 327.660156 C 339.765625 333.75 334.828125 338.683594 328.738281 338.683594 C 322.652344 338.683594 317.714844 333.75 317.714844 327.660156 C 317.714844 321.570312 322.652344 316.636719 328.738281 316.636719 C 334.828125 316.636719 339.765625 321.570312 339.765625 327.660156 "/>
<path fill="none" stroke-width="0.708661" stroke-linecap="round" stroke-linejoin="round" stroke="rgb(18.431373%, 30.980392%, 30.980392%)" stroke-opacity="1" stroke-miterlimit="10" d="M 390.5625 327.660156 C 390.5625 333.75 385.628906 338.683594 379.539062 338.683594 C 373.453125 338.683594 368.515625 333.75 368.515625 327.660156 C 368.515625 321.570312 373.453125 316.636719 379.539062 316.636719 C 385.628906 316.636719 390.5625 321.570312 390.5625 327.660156 "/>
<path fill-rule="nonzero" fill="rgb(18.431373%, 30.980392%, 30.980392%)" fill-opacity="1" stroke-width="0.708661" stroke-linecap="round" stroke-linejoin="round" stroke="rgb(18.431373%, 30.980392%, 30.980392%)" stroke-opacity="1" stroke-miterlimit="10" d="M 441.363281 327.660156 C 441.363281 333.75 436.429688 338.683594 430.339844 338.683594 C 424.25 338.683594 419.316406 333.75 419.316406 327.660156 C 419.316406 321.570312 424.25 316.636719 430.339844 316.636719 C 436.429688 316.636719 441.363281 321.570312 441.363281 327.660156 "/>
<path fill="none" stroke-width="0.708661" stroke-linecap="round" stroke-linejoin="round" stroke="rgb(18.431373%, 30.980392%, 30.980392%)" stroke-opacity="1" stroke-miterlimit="10" d="M 492.164062 327.660156 C 492.164062 333.75 487.226562 338.683594 481.140625 338.683594 C 475.050781 338.683594 470.117188 333.75 470.117188 327.660156 C 470.117188 321.570312 475.050781 316.636719 481.140625 316.636719 C 487.226562 316.636719 492.164062 321.570312 492.164062 327.660156 "/>
<path fill-rule="nonzero" fill="rgb(18.431373%, 30.980392%, 30.980392%)" fill-opacity="1" stroke-width="0.708661" stroke-linecap="round" stroke-linejoin="round" stroke="rgb(18.431373%, 30.980392%, 30.980392%)" stroke-opacity="1" stroke-miterlimit="10" d="M 34.964844 276.859375 C 34.964844 282.949219 30.027344 287.882812 23.941406 287.882812 C 17.851562 287.882812 12.914062 282.949219 12.914062 276.859375 C 12.914062 270.773438 17.851562 265.835938 23.941406 265.835938 C 30.027344 265.835938 34.964844 270.773438 34.964844 276.859375 "/>
<path fill="none" stroke-width="0.708661" stroke-linecap="round" stroke-linejoin="round" stroke="rgb(18.431373%, 30.980392%, 30.980392%)" stroke-opacity="1" stroke-miterlimit="10" d="M 85.761719 276.859375 C 85.761719 282.949219 80.828125 287.882812 74.738281 287.882812 C 68.652344 287.882812 63.714844 282.949219 63.714844 276.859375 C 63.714844 270.773438 68.652344 265.835938 74.738281 265.835938 C 80.828125 265.835938 85.761719 270.773438 85.761719 276.859375 "/>
<path fill-rule="nonzero" fill="rgb(18.431373%, 30.980392%, 30.980392%)" fill-opacity="1" stroke-width="0.708661" stroke-linecap="round" stroke-linejoin="round" stroke="rgb(18.431373%, 30.980392%, 30.980392%)" stroke-opacity="1" stroke-miterlimit="10" d="M 136.5625 276.859375 C 136.5625 282.949219 131.628906 287.882812 125.539062 287.882812 C 119.449219 287.882812 114.515625 282.949219 114.515625 276.859375 C 114.515625 270.773438 119.449219 265.835938 125.539062 265.835938 C 131.628906 265.835938 136.5625 270.773438 136.5625 276.859375 "/>
<path fill-rule="nonzero" fill="rgb(18.431373%, 30.980392%, 30.980392%)" fill-opacity="1" stroke-width="0.708661" stroke-linecap="round" stroke-linejoin="round" stroke="rgb(18.431373%, 30.980392%, 30.980392%)" stroke-opacity="1" stroke-miterlimit="10" d="M 187.363281 276.859375 C 187.363281 282.949219 182.429688 287.882812 176.339844 287.882812 C 170.25 287.882812 165.316406 282.949219 165.316406 276.859375 C 165.316406 270.773438 170.25 265.835938 176.339844 265.835938 C 182.429688 265.835938 187.363281 270.773438 187.363281 276.859375 "/>
<path fill="none" stroke-width="0.708661" stroke-linecap="round" stroke-linejoin="round" stroke="rgb(18.431373%, 30.980392%, 30.980392%)" stroke-opacity="1" stroke-miterlimit="10" d="M 238.164062 276.859375 C 238.164062 282.949219 233.226562 287.882812 227.140625 287.882812 C 221.050781 287.882812 216.117188 282.949219 216.117188 276.859375 C 216.117188 270.773438 221.050781 265.835938 227.140625 265.835938 C 233.226562 265.835938 238.164062 270.773438 238.164062 276.859375 "/>
<path fill="none" stroke-width="0.708661" stroke-linecap="round" stroke-linejoin="round" stroke="rgb(18.431373%, 30.980392%, 30.980392%)" stroke-opacity="1" stroke-miterlimit="10" d="M 288.964844 276.859375 C 288.964844 282.949219 284.027344 287.882812 277.941406 287.882812 C 271.851562 287.882812 266.914062 282.949219 266.914062 276.859375 C 266.914062 270.773438 271.851562 265.835938 277.941406 265.835938 C 284.027344 265.835938 288.964844 270.773438 288.964844 276.859375 "/>
<path fill-rule="nonzero" fill="rgb(18.431373%, 30.980392%, 30.980392%)" fill-opacity="1" stroke-width="0.708661" stroke-linecap="round" stroke-linejoin="round" stroke="rgb(18.431373%, 30.980392%, 30.980392%)" stroke-opacity="1" stroke-miterlimit="10" d="M 339.765625 276.859375 C 339.765625 282.949219 334.828125 287.882812 328.738281 287.882812 C 322.652344 287.882812 317.714844 282.949219 317.714844 276.859375 C 317.714844 270.773438 322.652344 265.835938 328.738281 265.835938 C 334.828125 265.835938 339.765625 270.773438 339.765625 276.859375 "/>
<path fill="none" stroke-width="0.708661" stroke-linecap="round" stroke-linejoin="round" stroke="rgb(18.431373%, 30.980392%, 30.980392%)" stroke-opacity="1" stroke-miterlimit="10" d="M 390.5625 276.859375 C 390.5625 282.949219 385.628906 287.882812 379.539062 287.882812 C 373.453125 287.882812 368.515625 282.949219 368.515625 276.859375 C 368.515625 270.773438 373.453125 265.835938 379.539062 265.835938 C 385.628906 265.835938 390.5625 270.773438 390.5625 276.859375 "/>
<path fill="none" stroke-width="0.708661" stroke-linecap="round" stroke-linejoin="round" stroke="rgb(18.431373%, 30.980392%, 30.980392%)" stroke-opacity="1" stroke-miterlimit="10" d="M 441.363281 276.859375 C 441.363281 282.949219 436.429688 287.882812 430.339844 287.882812 C 424.25 287.882812 419.316406 282.949219 419.316406 276.859375 C 419.316406 270.773438 424.25 265.835938 430.339844 265.835938 C 436.429688 265.835938 441.363281 270.773438 441.363281 276.859375 "/>
<path fill-rule="nonzero" fill="rgb(18.431373%, 30.980392%, 30.980392%)" fill-opacity="1" stroke-width="0.708661" stroke-linecap="round" stroke-linejoin="round" stroke="rgb(18.431373%, 30.980392%, 30.980392%)" stroke-opacity="1" stroke-miterlimit="10" d="M 492.164062 276.859375 C 492.164062 282.949219 487.226562 287.882812 481.140625 287.882812 C 475.050781 287.882812 470.117188 282.949219 470.117188 276.859375 C 470.117188 270.773438 475.050781 265.835938 481.140625 265.835938 C 487.226562 265.835938 492.164062 270.773438 492.164062 276.859375 "/>
<path fill="none" stroke-width="0.708661" stroke-linecap="round" stroke-linejoin="round" stroke="rgb(18.431373%, 30.980392%, 30.980392%)" stroke-opacity="1" stroke-miterlimit="10" d="M 34.964844 226.058594 C 34.964844 232.148438 30.027344 237.085938 23.941406 237.085938 C 17.851562 237.085938 12.914062 232.148438 12.914062 226.058594 C 12.914062 219.972656 17.851562 215.035156 23.941406 215.035156 C 30.027344 215.035156 34.964844 219.972656 34.964844 226.058594 "/>
<path fill="none" stroke-width="0.708661" stroke-linecap="round" stroke-linejoin="round" stroke="rgb(18.431373%, 30.980392%, 30.980392%)" stroke-opacity="1" stroke-miterlimit="10" d="M 85.761719 226.058594 C 85.761719 232.148438 80.828125 237.085938 74.738281 237.085938 C 68.652344 237.085938 63.714844 232.148438 63.714844 226.058594 C 63.714844 219.972656 68.652344 215.035156 74.738281 215.035156 C 80.828125 215.035156 85.761719 219.972656 85.761719 226.058594 "/>
<path fill="none" stroke-width="0.708661" stroke-linecap="round" stroke-linejoin="round" stroke="rgb(18.431373%, 30.980392%, 30.980392%)" stroke-opacity="1" stroke-miterlimit="10" d="M 136.5625 226.058594 C 136.5625 232.148438 131.628906 237.085938 125.539062 237.085938 C 119.449219 237.085938 114.515625 232.148438 114.515625 226.058594 C 114.515625 219.972656 119.449219 215.035156 125.539062 215.035156 C 131.628906 215.035156 136.5625 219.972656 136.5625 226.058594 "/>
<path fill="none" stroke-width="0.708661" stroke-linecap="round" stroke-linejoin="round" stroke="rgb(18.431373%, 30.980392%, 30.980392%)" stroke-opacity="1" stroke-miterlimit="10" d="M 187.363281 226.058594 C 187.363281 232.148438 182.429688 237.085938 176.339844 237.085938 C 170.25 237.085938 165.316406 232.148438 165.316406 226.058594 C 165.316406 219.972656 170.25 215.035156 176.339844 215.035156 C 182.429688 215.035156 187.363281 219.972656 187.363281 226.058594 "/>
<path fill="none" stroke-width="0.708661" stroke-linecap="round" stroke-linejoin="round" stroke="rgb(18.431373%, 30.980392%, 30.980392%)" stroke-opacity="1" stroke-miterlimit="10" d="M 238.164062 226.058594 C 238.164062 232.148438 233.226562 237.085938 227.140625 237.085938 C 221.050781 237.085938 216.117188 232.148438 216.117188 226.058594 C 216.117188 219.972656 221.050781 215.035156 227.140625 215.035156 C 233.226562 215.035156 238.164062 219.972656 238.164062 226.058594 "/>
<path fill="none" stroke-width="0.708661" stroke-linecap="round" stroke-linejoin="round" stroke="rgb(18.431373%, 30.980392%, 30.980392%)" stroke-opacity="1" stroke-miterlimit="10" d="M 288.964844 226.058594 C 288.964844 232.148438 284.027344 237.085938 277.941406 237.085938 C 271.851562 237.085938 266.914062 232.148438 266.914062 226.058594 C 266.914062 219.972656 271.851562 215.035156 277.941406 215.035156 C 284.027344 215.035156 288.964844 219.972656 288.964844 226.058594 "/>
<path fill-rule="nonzero" fill="rgb(18.431373%, 30.980392%, 30.980392%)" fill-opacity="1" stroke-width="0.708661" stroke-linecap="round" stroke-linejoin="round" stroke="rgb(18.431373%, 30.980392%, 30.980392%)" stroke-opacity="1" stroke-miterlimit="10" d="M 339.765625 226.058594 C 339.765625 232.148438 334.828125 237.085938 328.738281 237.085938 C 322.652344 237.085938 317.714844 232.148438 317.714844 226.058594 C 317.714844 219.972656 322.652344 215.035156 328.738281 215.035156 C 334.828125 215.035156 339.765625 219.972656 339.765625 226.058594 "/>
<path fill="none" stroke-width="0.708661" stroke-linecap="round" stroke-linejoin="round" stroke="rgb(18.431373%, 30.980392%, 30.980392%)" stroke-opacity="1" stroke-miterlimit="10" d="M 390.5625 226.058594 C 390.5625 232.148438 385.628906 237.085938 379.539062 237.085938 C 373.453125 237.085938 368.515625 232.148438 368.515625 226.058594 C 368.515625 219.972656 373.453125 215.035156 379.539062 215.035156 C 385.628906 215.035156 390.5625 219.972656 390.5625 226.058594 "/>
<path fill-rule="nonzero" fill="rgb(18.431373%, 30.980392%, 30.980392%)" fill-opacity="1" stroke-width="0.708661" stroke-linecap="round" stroke-linejoin="round" stroke="rgb(18.431373%, 30.980392%, 30.980392%)" stroke-opacity="1" stroke-miterlimit="10" d="M 441.363281 226.058594 C 441.363281 232.148438 436.429688 237.085938 430.339844 237.085938 C 424.25 237.085938 419.316406 232.148438 419.316406 226.058594 C 419.316406 219.972656 424.25 215.035156 430.339844 215.035156 C 436.429688 215.035156 441.363281 219.972656 441.363281 226.058594 "/>
<path fill="none" stroke-width="0.708661" stroke-linecap="round" stroke-linejoin="round" stroke="rgb(18.431373%, 30.980392%, 30.980392%)" stroke-opacity="1" stroke-miterlimit="10" d="M 492.164062 226.058594 C 492.164062 232.148438 487.226562 237.085938 481.140625 237.085938 C 475.050781 237.085938 470.117188 232.148438 470.117188 226.058594 C 470.117188 219.972656 475.050781 215.035156 481.140625 215.035156 C 487.226562 215.035156 492.164062 219.972656 492.164062 226.058594 "/>
<path fill-rule="nonzero" fill="rgb(18.431373%, 30.980392%, 30.980392%)" fill-opacity="1" stroke-width="0.708661" stroke-linecap="round" stroke-linejoin="round" stroke="rgb(18.431373%, 30.980392%, 30.980392%)" stroke-opacity="1" stroke-miterlimit="10" d="M 34.964844 175.261719 C 34.964844 181.347656 30.027344 186.285156 23.941406 186.285156 C 17.851562 186.285156 12.914062 181.347656 12.914062 175.261719 C 12.914062 169.171875 17.851562 164.234375 23.941406 164.234375 C 30.027344 164.234375 34.964844 169.171875 34.964844 175.261719 "/>
<path fill="none" stroke-width="0.708661" stroke-linecap="round" stroke-linejoin="round" stroke="rgb(18.431373%, 30.980392%, 30.980392%)" stroke-opacity="1" stroke-miterlimit="10" d="M 85.761719 175.261719 C 85.761719 181.347656 80.828125 186.285156 74.738281 186.285156 C 68.652344 186.285156 63.714844 181.347656 63.714844 175.261719 C 63.714844 169.171875 68.652344 164.234375 74.738281 164.234375 C 80.828125 164.234375 85.761719 169.171875 85.761719 175.261719 "/>
<path fill-rule="nonzero" fill="rgb(18.431373%, 30.980392%, 30.980392%)" fill-opacity="1" stroke-width="0.708661" stroke-linecap="round" stroke-linejoin="round" stroke="rgb(18.431373%, 30.980392%, 30.980392%)" stroke-opacity="1" stroke-miterlimit="10" d="M 136.5625 175.261719 C 136.5625 181.347656 131.628906 186.285156 125.539062 186.285156 C 119.449219 186.285156 114.515625 181.347656 114.515625 175.261719 C 114.515625 169.171875 119.449219 164.234375 125.539062 164.234375 C 131.628906 164.234375 136.5625 169.171875 136.5625 175.261719 "/>
<path fill="none" stroke-width="0.708661" stroke-linecap="round" stroke-linejoin="round" stroke="rgb(18.431373%, 30.980392%, 30.980392%)" stroke-opacity="1" stroke-miterlimit="10" d="M 187.363281 175.261719 C 187.363281 181.347656 182.429688 186.285156 176.339844 186.285156 C 170.25 186.285156 165.316406 181.347656 165.316406 175.261719 C 165.316406 169.171875 170.25 164.234375 176.339844 164.234375 C 182.429688 164.234375 187.363281 169.171875 187.363281 175.261719 "/>
<path fill="none" stroke-width="0.708661" stroke-linecap="round" stroke-linejoin="round" stroke="rgb(18.431373%, 30.980392%, 30.980392%)" stroke-opacity="1" stroke-miterlimit="10" d="M 238.164062 175.261719 C 238.164062 181.347656 233.226562 186.285156 227.140625 186.285156 C 221.050781 186.285156 216.117188 181.347656 216.117188 175.261719 C 216.117188 169.171875 221.050781 164.234375 227.140625 164.234375 C 233.226562 164.234375 238.164062 169.171875 238.164062 175.261719 "/>
<path fill="none" stroke-width="0.708661" stroke-linecap="round" stroke-linejoin="round" stroke="rgb(18.431373%, 30.980392%, 30.980392%)" stroke-opacity="1" stroke-miterlimit="10" d="M 288.964844 175.261719 C 288.964844 181.347656 284.027344 186.285156 277.941406 186.285156 C 271.851562 186.285156 266.914062 181.347656 266.914062 175.261719 C 266.914062 169.171875 271.851562 164.234375 277.941406 164.234375 C 284.027344 164.234375 288.964844 169.171875 288.964844 175.261719 "/>
<path fill="none" stroke-width="0.708661" stroke-linecap="round" stroke-linejoin="round" stroke="rgb(18.431373%, 30.980392%, 30.980392%)" stroke-opacity="1" stroke-miterlimit="10" d="M 339.765625 175.261719 C 339.765625 181.347656 334.828125 186.285156 328.738281 186.285156 C 322.652344 186.285156 317.714844 181.347656 317.714844 175.261719 C 317.714844 169.171875 322.652344 164.234375 328.738281 164.234375 C 334.828125 164.234375 339.765625 169.171875 339.765625 175.261719 "/>
<path fill-rule="nonzero" fill="rgb(18.431373%, 30.980392%, 30.980392%)" fill-opacity="1" stroke-width="0.708661" stroke-linecap="round" stroke-linejoin="round" stroke="rgb(18.431373%, 30.980392%, 30.980392%)" stroke-opacity="1" stroke-miterlimit="10" d="M 390.5625 175.261719 C 390.5625 181.347656 385.628906 186.285156 379.539062 186.285156 C 373.453125 186.285156 368.515625 181.347656 368.515625 175.261719 C 368.515625 169.171875 373.453125 164.234375 379.539062 164.234375 C 385.628906 164.234375 390.5625 169.171875 390.5625 175.261719 "/>
<path fill="none" stroke-width="0.708661" stroke-linecap="round" stroke-linejoin="round" stroke="rgb(18.431373%, 30.980392%, 30.980392%)" stroke-opacity="1" stroke-miterlimit="10" d="M 441.363281 175.261719 C 441.363281 181.347656 436.429688 186.285156 430.339844 186.285156 C 424.25 186.285156 419.316406 181.347656 419.316406 175.261719 C 419.316406 169.171875 424.25 164.234375 430.339844 164.234375 C 436.429688 164.234375 441.363281 169.171875 441.363281 175.261719 "/>
<path fill="none" stroke-width="0.708661" stroke-linecap="round" stroke-linejoin="round" stroke="rgb(18.431373%, 30.980392%, 30.980392%)" stroke-opacity="1" stroke-miterlimit="10" d="M 492.164062 175.261719 C 492.164062 181.347656 487.226562 186.285156 481.140625 186.285156 C 475.050781 186.285156 470.117188 181.347656 470.117188 175.261719 C 470.117188 169.171875 475.050781 164.234375 481.140625 164.234375 C 487.226562 164.234375 492.164062 169.171875 492.164062 175.261719 "/>
<path fill-rule="nonzero" fill="rgb(18.431373%, 30.980392%, 30.980392%)" fill-opacity="1" stroke-width="0.708661" stroke-linecap="round" stroke-linejoin="round" stroke="rgb(18.431373%, 30.980392%, 30.980392%)" stroke-opacity="1" stroke-miterlimit="10" d="M 34.964844 124.460938 C 34.964844 130.546875 30.027344 135.484375 23.941406 135.484375 C 17.851562 135.484375 12.914062 130.546875 12.914062 124.460938 C 12.914062 118.371094 17.851562 113.4375 23.941406 113.4375 C 30.027344 113.4375 34.964844 118.371094 34.964844 124.460938 "/>
<path fill="none" stroke-width="0.708661" stroke-linecap="round" stroke-linejoin="round" stroke="rgb(18.431373%, 30.980392%, 30.980392%)" stroke-opacity="1" stroke-miterlimit="10" d="M 85.761719 124.460938 C 85.761719 130.546875 80.828125 135.484375 74.738281 135.484375 C 68.652344 135.484375 63.714844 130.546875 63.714844 124.460938 C 63.714844 118.371094 68.652344 113.4375 74.738281 113.4375 C 80.828125 113.4375 85.761719 118.371094 85.761719 124.460938 "/>
<path fill="none" stroke-width="0.708661" stroke-linecap="round" stroke-linejoin="round" stroke="rgb(18.431373%, 30.980392%, 30.980392%)" stroke-opacity="1" stroke-miterlimit="10" d="M 136.5625 124.460938 C 136.5625 130.546875 131.628906 135.484375 125.539062 135.484375 C 119.449219 135.484375 114.515625 130.546875 114.515625 124.460938 C 114.515625 118.371094 119.449219 113.4375 125.539062 113.4375 C 131.628906 113.4375 136.5625 118.371094 136.5625 124.460938 "/>
<path fill-rule="nonzero" fill="rgb(18.431373%, 30.980392%, 30.980392%)" fill-opacity="1" stroke-width="0.708661" stroke-linecap="round" stroke-linejoin="round" stroke="rgb(18.431373%, 30.980392%, 30.980392%)" stroke-opacity="1" stroke-miterlimit="10" d="M 187.363281 124.460938 C 187.363281 130.546875 182.429688 135.484375 176.339844 135.484375 C 170.25 135.484375 165.316406 130.546875 165.316406 124.460938 C 165.316406 118.371094 170.25 113.4375 176.339844 113.4375 C 182.429688 113.4375 187.363281 118.371094 187.363281 124.460938 "/>
<path fill="none" stroke-width="0.708661" stroke-linecap="round" stroke-linejoin="round" stroke="rgb(18.431373%, 30.980392%, 30.980392%)" stroke-opacity="1" stroke-miterlimit="10" d="M 238.164062 124.460938 C 238.164062 130.546875 233.226562 135.484375 227.140625 135.484375 C 221.050781 135.484375 216.117188 130.546875 216.117188 124.460938 C 216.117188 118.371094 221.050781 113.4375 227.140625 113.4375 C 233.226562 113.4375 238.164062 118.371094 238.164062 124.460938 "/>
<path fill="none" stroke-width="0.708661" stroke-linecap="round" stroke-linejoin="round" stroke="rgb(18.431373%, 30.980392%, 30.980392%)" stroke-opacity="1" stroke-miterlimit="10" d="M 288.964844 124.460938 C 288.964844 130.546875 284.027344 135.484375 277.941406 135.484375 C 271.851562 135.484375 266.914062 130.546875 266.914062 124.460938 C 266.914062 118.371094 271.851562 113.4375 277.941406 113.4375 C 284.027344 113.4375 288.964844 118.371094 288.964844 124.460938 "/>
<path fill="none" stroke-width="0.708661" stroke-linecap="round" stroke-linejoin="round" stroke="rgb(18.431373%, 30.980392%, 30.980392%)" stroke-opacity="1" stroke-miterlimit="10" d="M 339.765625 124.460938 C 339.765625 130.546875 334.828125 135.484375 328.738281 135.484375 C 322.652344 135.484375 317.714844 130.546875 317.714844 124.460938 C 317.714844 118.371094 322.652344 113.4375 328.738281 113.4375 C 334.828125 113.4375 339.765625 118.371094 339.765625 124.460938 "/>
<path fill="none" stroke-width="0.708661" stroke-linecap="round" stroke-linejoin="round" stroke="rgb(18.431373%, 30.980392%, 30.980392%)" stroke-opacity="1" stroke-miterlimit="10" d="M 390.5625 124.460938 C 390.5625 130.546875 385.628906 135.484375 379.539062 135.484375 C 373.453125 135.484375 368.515625 130.546875 368.515625 124.460938 C 368.515625 118.371094 373.453125 113.4375 379.539062 113.4375 C 385.628906 113.4375 390.5625 118.371094 390.5625 124.460938 "/>
<path fill-rule="nonzero" fill="rgb(18.431373%, 30.980392%, 30.980392%)" fill-opacity="1" stroke-width="0.708661" stroke-linecap="round" stroke-linejoin="round" stroke="rgb(18.431373%, 30.980392%, 30.980392%)" stroke-opacity="1" stroke-miterlimit="10" d="M 441.363281 124.460938 C 441.363281 130.546875 436.429688 135.484375 430.339844 135.484375 C 424.25 135.484375 419.316406 130.546875 419.316406 124.460938 C 419.316406 118.371094 424.25 113.4375 430.339844 113.4375 C 436.429688 113.4375 441.363281 118.371094 441.363281 124.460938 "/>
<path fill="none" stroke-width="0.708661" stroke-linecap="round" stroke-linejoin="round" stroke="rgb(18.431373%, 30.980392%, 30.980392%)" stroke-opacity="1" stroke-miterlimit="10" d="M 492.164062 124.460938 C 492.164062 130.546875 487.226562 135.484375 481.140625 135.484375 C 475.050781 135.484375 470.117188 130.546875 470.117188 124.460938 C 470.117188 118.371094 475.050781 113.4375 481.140625 113.4375 C 487.226562 113.4375 492.164062 118.371094 492.164062 124.460938 "/>
<path fill="none" stroke-width="0.708661" stroke-linecap="round" stroke-linejoin="round" stroke="rgb(18.431373%, 30.980392%, 30.980392%)" stroke-opacity="1" stroke-miterlimit="10" d="M 34.964844 73.660156 C 34.964844 79.75 30.027344 84.683594 23.941406 84.683594 C 17.851562 84.683594 12.914062 79.75 12.914062 73.660156 C 12.914062 67.570312 17.851562 62.636719 23.941406 62.636719 C 30.027344 62.636719 34.964844 67.570312 34.964844 73.660156 "/>
<path fill="none" stroke-width="0.708661" stroke-linecap="round" stroke-linejoin="round" stroke="rgb(18.431373%, 30.980392%, 30.980392%)" stroke-opacity="1" stroke-miterlimit="10" d="M 85.761719 73.660156 C 85.761719 79.75 80.828125 84.683594 74.738281 84.683594 C 68.652344 84.683594 63.714844 79.75 63.714844 73.660156 C 63.714844 67.570312 68.652344 62.636719 74.738281 62.636719 C 80.828125 62.636719 85.761719 67.570312 85.761719 73.660156 "/>
<path fill="none" stroke-width="0.708661" stroke-linecap="round" stroke-linejoin="round" stroke="rgb(18.431373%, 30.980392%, 30.980392%)" stroke-opacity="1" stroke-miterlimit="10" d="M 136.5625 73.660156 C 136.5625 79.75 131.628906 84.683594 125.539062 84.683594 C 119.449219 84.683594 114.515625 79.75 114.515625 73.660156 C 114.515625 67.570312 119.449219 62.636719 125.539062 62.636719 C 131.628906 62.636719 136.5625 67.570312 136.5625 73.660156 "/>
<path fill="none" stroke-width="0.708661" stroke-linecap="round" stroke-linejoin="round" stroke="rgb(18.431373%, 30.980392%, 30.980392%)" stroke-opacity="1" stroke-miterlimit="10" d="M 187.363281 73.660156 C 187.363281 79.75 182.429688 84.683594 176.339844 84.683594 C 170.25 84.683594 165.316406 79.75 165.316406 73.660156 C 165.316406 67.570312 170.25 62.636719 176.339844 62.636719 C 182.429688 62.636719 187.363281 67.570312 187.363281 73.660156 "/>
<path fill="none" stroke-width="0.708661" stroke-linecap="round" stroke-linejoin="round" stroke="rgb(18.431373%, 30.980392%, 30.980392%)" stroke-opacity="1" stroke-miterlimit="10" d="M 238.164062 73.660156 C 238.164062 79.75 233.226562 84.683594 227.140625 84.683594 C 221.050781 84.683594 216.117188 79.75 216.117188 73.660156 C 216.117188 67.570312 221.050781 62.636719 227.140625 62.636719 C 233.226562 62.636719 238.164062 67.570312 238.164062 73.660156 "/>
<path fill-rule="nonzero" fill="rgb(18.431373%, 30.980392%, 30.980392%)" fill-opacity="1" stroke-width="0.708661" stroke-linecap="round" stroke-linejoin="round" stroke="rgb(18.431373%, 30.980392%, 30.980392%)" stroke-opacity="1" stroke-miterlimit="10" d="M 288.964844 73.660156 C 288.964844 79.75 284.027344 84.683594 277.941406 84.683594 C 271.851562 84.683594 266.914062 79.75 266.914062 73.660156 C 266.914062 67.570312 271.851562 62.636719 277.941406 62.636719 C 284.027344 62.636719 288.964844 67.570312 288.964844 73.660156 "/>
<path fill="none" stroke-width="0.708661" stroke-linecap="round" stroke-linejoin="round" stroke="rgb(18.431373%, 30.980392%, 30.980392%)" stroke-opacity="1" stroke-miterlimit="10" d="M 339.765625 73.660156 C 339.765625 79.75 334.828125 84.683594 328.738281 84.683594 C 322.652344 84.683594 317.714844 79.75 317.714844 73.660156 C 317.714844 67.570312 322.652344 62.636719 328.738281 62.636719 C 334.828125 62.636719 339.765625 67.570312 339.765625 73.660156 "/>
<path fill="none" stroke-width="0.708661" stroke-linecap="round" stroke-linejoin="round" stroke="rgb(18.431373%, 30.980392%, 30.980392%)" stroke-opacity="1" stroke-miterlimit="10" d="M 390.5625 73.660156 C 390.5625 79.75 385.628906 84.683594 379.539062 84.683594 C 373.453125 84.683594 368.515625 79.75 368.515625 73.660156 C 368.515625 67.570312 373.453125 62.636719 379.539062 62.636719 C 385.628906 62.636719 390.5625 67.570312 390.5625 73.660156 "/>
<path fill="none" stroke-width="0.708661" stroke-linecap="round" stroke-linejoin="round" stroke="rgb(18.431373%, 30.980392%, 30.980392%)" stroke-opacity="1" stroke-miterlimit="10" d="M 441.363281 73.660156 C 441.363281 79.75 436.429688 84.683594 430.339844 84.683594 C 424.25 84.683594 419.316406 79.75 419.316406 73.660156 C 419.316406 67.570312 424.25 62.636719 430.339844 62.636719 C 436.429688 62.636719 441.363281 67.570312 441.363281 73.660156 "/>
<path fill="none" stroke-width="0.708661" stroke-linecap="round" stroke-linejoin="round" stroke="rgb(18.431373%, 30.980392%, 30.980392%)" stroke-opacity="1" stroke-miterlimit="10" d="M 492.164062 73.660156 C 492.164062 79.75 487.226562 84.683594 481.140625 84.683594 C 475.050781 84.683594 470.117188 79.75 470.117188 73.660156 C 470.117188 67.570312 475.050781 62.636719 481.140625 62.636719 C 487.226562 62.636719 492.164062 67.570312 492.164062 73.660156 "/>
<path fill="none" stroke-width="0.708661" stroke-linecap="round" stroke-linejoin="round" stroke="rgb(18.431373%, 30.980392%, 30.980392%)" stroke-opacity="1" stroke-miterlimit="10" d="M 34.964844 22.859375 C 34.964844 28.949219 30.027344 33.882812 23.941406 33.882812 C 17.851562 33.882812 12.914062 28.949219 12.914062 22.859375 C 12.914062 16.773438 17.851562 11.835938 23.941406 11.835938 C 30.027344 11.835938 34.964844 16.773438 34.964844 22.859375 "/>
<path fill="none" stroke-width="0.708661" stroke-linecap="round" stroke-linejoin="round" stroke="rgb(18.431373%, 30.980392%, 30.980392%)" stroke-opacity="1" stroke-miterlimit="10" d="M 85.761719 22.859375 C 85.761719 28.949219 80.828125 33.882812 74.738281 33.882812 C 68.652344 33.882812 63.714844 28.949219 63.714844 22.859375 C 63.714844 16.773438 68.652344 11.835938 74.738281 11.835938 C 80.828125 11.835938 85.761719 16.773438 85.761719 22.859375 "/>
<path fill-rule="nonzero" fill="rgb(18.431373%, 30.980392%, 30.980392%)" fill-opacity="1" stroke-width="0.708661" stroke-linecap="round" stroke-linejoin="round" stroke="rgb(18.431373%, 30.980392%, 30.980392%)" stroke-opacity="1" stroke-miterlimit="10" d="M 136.5625 22.859375 C 136.5625 28.949219 131.628906 33.882812 125.539062 33.882812 C 119.449219 33.882812 114.515625 28.949219 114.515625 22.859375 C 114.515625 16.773438 119.449219 11.835938 125.539062 11.835938 C 131.628906 11.835938 136.5625 16.773438 136.5625 22.859375 "/>
<path fill="none" stroke-width="0.708661" stroke-linecap="round" stroke-linejoin="round" stroke="rgb(18.431373%, 30.980392%, 30.980392%)" stroke-opacity="1" stroke-miterlimit="10" d="M 187.363281 22.859375 C 187.363281 28.949219 182.429688 33.882812 176.339844 33.882812 C 170.25 33.882812 165.316406 28.949219 165.316406 22.859375 C 165.316406 16.773438 170.25 11.835938 176.339844 11.835938 C 182.429688 11.835938 187.363281 16.773438 187.363281 22.859375 "/>
<path fill="none" stroke-width="0.708661" stroke-linecap="round" stroke-linejoin="round" stroke="rgb(18.431373%, 30.980392%, 30.980392%)" stroke-opacity="1" stroke-miterlimit="10" d="M 238.164062 22.859375 C 238.164062 28.949219 233.226562 33.882812 227.140625 33.882812 C 221.050781 33.882812 216.117188 28.949219 216.117188 22.859375 C 216.117188 16.773438 221.050781 11.835938 227.140625 11.835938 C 233.226562 11.835938 238.164062 16.773438 238.164062 22.859375 "/>
<path fill="none" stroke-width="0.708661" stroke-linecap="round" stroke-linejoin="round" stroke="rgb(18.431373%, 30.980392%, 30.980392%)" stroke-opacity="1" stroke-miterlimit="10" d="M 288.964844 22.859375 C 288.964844 28.949219 284.027344 33.882812 277.941406 33.882812 C 271.851562 33.882812 266.914062 28.949219 266.914062 22.859375 C 266.914062 16.773438 271.851562 11.835938 277.941406 11.835938 C 284.027344 11.835938 288.964844 16.773438 288.964844 22.859375 "/>
<path fill-rule="nonzero" fill="rgb(18.431373%, 30.980392%, 30.980392%)" fill-opacity="1" stroke-width="0.708661" stroke-linecap="round" stroke-linejoin="round" stroke="rgb(18.431373%, 30.980392%, 30.980392%)" stroke-opacity="1" stroke-miterlimit="10" d="M 339.765625 22.859375 C 339.765625 28.949219 334.828125 33.882812 328.738281 33.882812 C 322.652344 33.882812 317.714844 28.949219 317.714844 22.859375 C 317.714844 16.773438 322.652344 11.835938 328.738281 11.835938 C 334.828125 11.835938 339.765625 16.773438 339.765625 22.859375 "/>
<path fill="none" stroke-width="0.708661" stroke-linecap="round" stroke-linejoin="round" stroke="rgb(18.431373%, 30.980392%, 30.980392%)" stroke-opacity="1" stroke-miterlimit="10" d="M 390.5625 22.859375 C 390.5625 28.949219 385.628906 33.882812 379.539062 33.882812 C 373.453125 33.882812 368.515625 28.949219 368.515625 22.859375 C 368.515625 16.773438 373.453125 11.835938 379.539062 11.835938 C 385.628906 11.835938 390.5625 16.773438 390.5625 22.859375 "/>
<path fill="none" stroke-width="0.708661" stroke-linecap="round" stroke-linejoin="round" stroke="rgb(18.431373%, 30.980392%, 30.980392%)" stroke-opacity="1" stroke-miterlimit="10" d="M 441.363281 22.859375 C 441.363281 28.949219 436.429688 33.882812 430.339844 33.882812 C 424.25 33.882812 419.316406 28.949219 419.316406 22.859375 C 419.316406 16.773438 424.25 11.835938 430.339844 11.835938 C 436.429688 11.835938 441.363281 16.773438 441.363281 22.859375 "/>
<path fill-rule="nonzero" fill="rgb(18.431373%, 30.980392%, 30.980392%)" fill-opacity="1" stroke-width="0.708661" stroke-linecap="round" stroke-linejoin="round" stroke="rgb(18.431373%, 30.980392%, 30.980392%)" stroke-opacity="1" stroke-miterlimit="10" d="M 492.164062 22.859375 C 492.164062 28.949219 487.226562 33.882812 481.140625 33.882812 C 475.050781 33.882812 470.117188 28.949219 470.117188 22.859375 C 470.117188 16.773438 475.050781 11.835938 481.140625 11.835938 C 487.226562 11.835938 492.164062 16.773438 492.164062 22.859375 "/>
</svg>
