<?xml version="1.0" encoding="UTF-8"?>
<svg xmlns="http://www.w3.org/2000/svg" xmlns:xlink="http://www.w3.org/1999/xlink" width="504" height="504" viewBox="0 0 504 504">
<defs>
<clipPath id="clip-0">
<path clip-rule="nonzero" d="M 1.078125 0 L 504 0 L 504 502.921875 L 1.078125 502.921875 Z M 1.078125 0 "/>
</clipPath>
<clipPath id="clip-1">
<path clip-rule="nonzero" d="M 1.078125 0 L 504 0 L 504 502.921875 L 1.078125 502.921875 Z M 1.078125 0 "/>
</clipPath>
</defs>
<rect x="-50.4" y="-50.4" width="604.8" height="604.8" fill="rgb(100%, 100%, 100%)" fill-opacity="1"/>
<g clip-path="url(#clip-0)">
<path fill="none" stroke-width="6.40187" stroke-linecap="butt" stroke-linejoin="round" stroke="rgb(90.196078%, 25.490196%, 45.098039%)" stroke-opacity="0.298039" stroke-miterlimit="10" d="M -501.839844 672.394531 L 1006.921875 -138.21875 "/>
</g>
<path fill="none" stroke-width="0.708661" stroke-linecap="round" stroke-linejoin="round" stroke="rgb(18.431373%, 30.980392%, 30.980392%)" stroke-opacity="1" stroke-miterlimit="10" d="M 256.96875 227.027344 C 256.96875 230.757812 253.945312 233.78125 250.210938 233.78125 C 246.480469 233.78125 243.457031 230.757812 243.457031 227.027344 C 243.457031 223.296875 246.480469 220.269531 250.210938 220.269531 C 253.945312 220.269531 256.96875 223.296875 256.96875 227.027344 "/>
<path fill-rule="nonzero" fill="rgb(18.431373%, 30.980392%, 30.980392%)" fill-opacity="1" stroke-width="0.708661" stroke-linecap="round" stroke-linejoin="round" stroke="rgb(18.431373%, 30.980392%, 30.980392%)" stroke-opacity="1" stroke-miterlimit="10" d="M 140.925781 213.464844 C 140.925781 217.199219 137.902344 220.222656 134.167969 220.222656 C 130.4375 220.222656 127.414062 217.199219 127.414062 213.464844 C 127.414062 209.734375 130.4375 206.710938 134.167969 206.710938 C 137.902344 206.710938 140.925781 209.734375 140.925781 213.464844 "/>
<path fill="none" stroke-width="0.708661" stroke-linecap="round" stroke-linejoin="round" stroke="rgb(18.431373%, 30.980392%, 30.980392%)" stroke-opacity="1" stroke-miterlimit="10" d="M 307.96875 480.058594 C 307.96875 483.792969 304.945312 486.816406 301.214844 486.816406 C 297.480469 486.816406 294.457031 483.792969 294.457031 480.058594 C 294.457031 476.328125 297.480469 473.304688 301.214844 473.304688 C 304.945312 473.304688 307.96875 476.328125 307.96875 480.058594 "/>
<path fill="none" stroke-width="0.708661" stroke-linecap="round" stroke-linejoin="round" stroke="rgb(18.431373%, 30.980392%, 30.980392%)" stroke-opacity="1" stroke-miterlimit="10" d="M 271.433594 322.253906 C 271.433594 325.984375 268.40625 329.011719 264.675781 329.011719 C 260.945312 329.011719 257.917969 325.984375 257.917969 322.253906 C 257.917969 318.523438 260.945312 315.5 264.675781 315.5 C 268.40625 315.5 271.433594 318.523438 271.433594 322.253906 "/>
<path fill="none" stroke-width="0.708661" stroke-linecap="round" stroke-linejoin="round" stroke="rgb(18.431373%, 30.980392%, 30.980392%)" stroke-opacity="1" stroke-miterlimit="10" d="M 217.609375 200.160156 C 217.609375 203.894531 214.582031 206.917969 210.851562 206.917969 C 207.121094 206.917969 204.097656 203.894531 204.097656 200.160156 C 204.097656 196.429688 207.121094 193.40625 210.851562 193.40625 C 214.582031 193.40625 217.609375 196.429688 217.609375 200.160156 "/>
<path fill="none" stroke-width="0.708661" stroke-linecap="round" stroke-linejoin="round" stroke="rgb(18.431373%, 30.980392%, 30.980392%)" stroke-opacity="1" stroke-miterlimit="10" d="M 274.957031 293.828125 C 274.957031 297.558594 271.933594 300.585938 268.203125 300.585938 C 264.472656 300.585938 261.445312 297.558594 261.445312 293.828125 C 261.445312 290.097656 264.472656 287.070312 268.203125 287.070312 C 271.933594 287.070312 274.957031 290.097656 274.957031 293.828125 "/>
<path fill="none" stroke-width="0.708661" stroke-linecap="round" stroke-linejoin="round" stroke="rgb(18.431373%, 30.980392%, 30.980392%)" stroke-opacity="1" stroke-miterlimit="10" d="M 270.640625 202.128906 C 270.640625 205.859375 267.617188 208.882812 263.886719 208.882812 C 260.15625 208.882812 257.128906 205.859375 257.128906 202.128906 C 257.128906 198.394531 260.15625 195.371094 263.886719 195.371094 C 267.617188 195.371094 270.640625 198.394531 270.640625 202.128906 "/>
<path fill="none" stroke-width="0.708661" stroke-linecap="round" stroke-linejoin="round" stroke="rgb(18.431373%, 30.980392%, 30.980392%)" stroke-opacity="1" stroke-miterlimit="10" d="M 196.644531 394.730469 C 196.644531 398.464844 193.617188 401.488281 189.886719 401.488281 C 186.15625 401.488281 183.128906 398.464844 183.128906 394.730469 C 183.128906 391 186.15625 387.976562 189.886719 387.976562 C 193.617188 387.976562 196.644531 391 196.644531 394.730469 "/>
<path fill-rule="nonzero" fill="rgb(18.431373%, 30.980392%, 30.980392%)" fill-opacity="1" stroke-width="0.708661" stroke-linecap="round" stroke-linejoin="round" stroke="rgb(18.431373%, 30.980392%, 30.980392%)" stroke-opacity="1" stroke-miterlimit="10" d="M 328.105469 258.9375 C 328.105469 262.667969 325.078125 265.691406 321.347656 265.691406 C 317.617188 265.691406 314.589844 262.667969 314.589844 258.9375 C 314.589844 255.207031 317.617188 252.179688 321.347656 252.179688 C 325.078125 252.179688 328.105469 255.207031 328.105469 258.9375 "/>
<path fill-rule="nonzero" fill="rgb(18.431373%, 30.980392%, 30.980392%)" fill-opacity="1" stroke-width="0.708661" stroke-linecap="round" stroke-linejoin="round" stroke="rgb(18.431373%, 30.980392%, 30.980392%)" stroke-opacity="1" stroke-miterlimit="10" d="M 392.453125 93.183594 C 392.453125 96.917969 389.429688 99.941406 385.699219 99.941406 C 381.964844 99.941406 378.941406 96.917969 378.941406 93.183594 C 378.941406 89.453125 381.964844 86.429688 385.699219 86.429688 C 389.429688 86.429688 392.453125 89.453125 392.453125 93.183594 "/>
<path fill="none" stroke-width="0.708661" stroke-linecap="round" stroke-linejoin="round" stroke="rgb(18.431373%, 30.980392%, 30.980392%)" stroke-opacity="1" stroke-miterlimit="10" d="M 208.613281 418.207031 C 208.613281 421.9375 205.589844 424.964844 201.859375 424.964844 C 198.128906 424.964844 195.101562 421.9375 195.101562 418.207031 C 195.101562 414.476562 198.128906 411.449219 201.859375 411.449219 C 205.589844 411.449219 208.613281 414.476562 208.613281 418.207031 "/>
<path fill="none" stroke-width="0.708661" stroke-linecap="round" stroke-linejoin="round" stroke="rgb(18.431373%, 30.980392%, 30.980392%)" stroke-opacity="1" stroke-miterlimit="10" d="M 179.765625 251.589844 C 179.765625 255.320312 176.742188 258.347656 173.011719 258.347656 C 169.277344 258.347656 166.253906 255.320312 166.253906 251.589844 C 166.253906 247.859375 169.277344 244.832031 173.011719 244.832031 C 176.742188 244.832031 179.765625 247.859375 179.765625 251.589844 "/>
<path fill-rule="nonzero" fill="rgb(18.431373%, 30.980392%, 30.980392%)" fill-opacity="1" stroke-width="0.708661" stroke-linecap="round" stroke-linejoin="round" stroke="rgb(18.431373%, 30.980392%, 30.980392%)" stroke-opacity="1" stroke-miterlimit="10" d="M 275.285156 319.242188 C 275.285156 322.972656 272.261719 325.996094 268.53125 325.996094 C 264.796875 325.996094 261.773438 322.972656 261.773438 319.242188 C 261.773438 315.511719 264.796875 312.484375 268.53125 312.484375 C 272.261719 312.484375 275.285156 315.511719 275.285156 319.242188 "/>
<path fill="none" stroke-width="0.708661" stroke-linecap="round" stroke-linejoin="round" stroke="rgb(18.431373%, 30.980392%, 30.980392%)" stroke-opacity="1" stroke-miterlimit="10" d="M 214.21875 310.117188 C 214.21875 313.847656 211.191406 316.871094 207.460938 316.871094 C 203.730469 316.871094 200.707031 313.847656 200.707031 310.117188 C 200.707031 306.386719 203.730469 303.359375 207.460938 303.359375 C 211.191406 303.359375 214.21875 306.386719 214.21875 310.117188 "/>
<path fill-rule="nonzero" fill="rgb(18.431373%, 30.980392%, 30.980392%)" fill-opacity="1" stroke-width="0.708661" stroke-linecap="round" stroke-linejoin="round" stroke="rgb(18.431373%, 30.980392%, 30.980392%)" stroke-opacity="1" stroke-miterlimit="10" d="M 399.546875 205.148438 C 399.546875 208.882812 396.523438 211.90625 392.789062 211.90625 C 389.058594 211.90625 386.035156 208.882812 386.035156 205.148438 C 386.035156 201.417969 389.058594 198.394531 392.789062 198.394531 C 396.523438 198.394531 399.546875 201.417969 399.546875 205.148438 "/>
<path fill-rule="nonzero" fill="rgb(18.431373%, 30.980392%, 30.980392%)" fill-opacity="1" stroke-width="0.708661" stroke-linecap="round" stroke-linejoin="round" stroke="rgb(18.431373%, 30.980392%, 30.980392%)" stroke-opacity="1" stroke-miterlimit="10" d="M 206.925781 157.167969 C 206.925781 160.898438 203.902344 163.921875 200.167969 163.921875 C 196.4375 163.921875 193.414062 160.898438 193.414062 157.167969 C 193.414062 153.4375 196.4375 150.410156 200.167969 150.410156 C 203.902344 150.410156 206.925781 153.4375 206.925781 157.167969 "/>
<path fill="none" stroke-width="0.708661" stroke-linecap="round" stroke-linejoin="round" stroke="rgb(18.431373%, 30.980392%, 30.980392%)" stroke-opacity="1" stroke-miterlimit="10" d="M 319.695312 199.777344 C 319.695312 203.511719 316.667969 206.535156 312.9375 206.535156 C 309.207031 206.535156 306.183594 203.511719 306.183594 199.777344 C 306.183594 196.046875 309.207031 193.023438 312.9375 193.023438 C 316.667969 193.023438 319.695312 196.046875 319.695312 199.777344 "/>
<path fill-rule="nonzero" fill="rgb(18.431373%, 30.980392%, 30.980392%)" fill-opacity="1" stroke-width="0.708661" stroke-linecap="round" stroke-linejoin="round" stroke="rgb(18.431373%, 30.980392%, 30.980392%)" stroke-opacity="1" stroke-miterlimit="10" d="M 383.214844 299.042969 C 383.214844 302.777344 380.191406 305.800781 376.460938 305.800781 C 372.730469 305.800781 369.703125 302.777344 369.703125 299.042969 C 369.703125 295.3125 372.730469 292.289062 376.460938 292.289062 C 380.191406 292.289062 383.214844 295.3125 383.214844 299.042969 "/>
<path fill="none" stroke-width="0.708661" stroke-linecap="round" stroke-linejoin="round" stroke="rgb(18.431373%, 30.980392%, 30.980392%)" stroke-opacity="1" stroke-miterlimit="10" d="M 487.894531 114.214844 C 487.894531 117.945312 484.871094 120.96875 481.140625 120.96875 C 477.410156 120.96875 474.382812 117.945312 474.382812 114.214844 C 474.382812 110.480469 477.410156 107.457031 481.140625 107.457031 C 484.871094 107.457031 487.894531 110.480469 487.894531 114.214844 "/>
<path fill="none" stroke-width="0.708661" stroke-linecap="round" stroke-linejoin="round" stroke="rgb(18.431373%, 30.980392%, 30.980392%)" stroke-opacity="1" stroke-miterlimit="10" d="M 290.074219 305.683594 C 290.074219 309.414062 287.050781 312.4375 283.316406 312.4375 C 279.585938 312.4375 276.5625 309.414062 276.5625 305.683594 C 276.5625 301.949219 279.585938 298.925781 283.316406 298.925781 C 287.050781 298.925781 290.074219 301.949219 290.074219 305.683594 "/>
<path fill="none" stroke-width="0.708661" stroke-linecap="round" stroke-linejoin="round" stroke="rgb(18.431373%, 30.980392%, 30.980392%)" stroke-opacity="1" stroke-miterlimit="10" d="M 413.894531 242.246094 C 413.894531 245.980469 410.867188 249.003906 407.136719 249.003906 C 403.40625 249.003906 400.382812 245.980469 400.382812 242.246094 C 400.382812 238.515625 403.40625 235.492188 407.136719 235.492188 C 410.867188 235.492188 413.894531 238.515625 413.894531 242.246094 "/>
<path fill-rule="nonzero" fill="rgb(18.431373%, 30.980392%, 30.980392%)" fill-opacity="1" stroke-width="0.708661" stroke-linecap="round" stroke-linejoin="round" stroke="rgb(18.431373%, 30.980392%, 30.980392%)" stroke-opacity="1" stroke-miterlimit="10" d="M 306.054688 328.753906 C 306.054688 332.484375 303.027344 335.507812 299.296875 335.507812 C 295.566406 335.507812 292.542969 332.484375 292.542969 328.753906 C 292.542969 325.019531 295.566406 321.996094 299.296875 321.996094 C 303.027344 321.996094 306.054688 325.019531 306.054688 328.753906 "/>
<path fill-rule="nonzero" fill="rgb(18.431373%, 30.980392%, 30.980392%)" fill-opacity="1" stroke-width="0.708661" stroke-linecap="round" stroke-linejoin="round" stroke="rgb(18.431373%, 30.980392%, 30.980392%)" stroke-opacity="1" stroke-miterlimit="10" d="M 267.195312 308.3125 C 267.195312 312.042969 264.171875 315.070312 260.4375 315.070312 C 256.707031 315.070312 253.683594 312.042969 253.683594 308.3125 C 253.683594 304.582031 256.707031 301.558594 260.4375 301.558594 C 264.171875 301.558594 267.195312 304.582031 267.195312 308.3125 "/>
<path fill="none" stroke-width="0.708661" stroke-linecap="round" stroke-linejoin="round" stroke="rgb(18.431373%, 30.980392%, 30.980392%)" stroke-opacity="1" stroke-miterlimit="10" d="M 290.203125 284.46875 C 290.203125 288.199219 287.179688 291.226562 283.449219 291.226562 C 279.714844 291.226562 276.691406 288.199219 276.691406 284.46875 C 276.691406 280.738281 279.714844 277.710938 283.449219 277.710938 C 287.179688 277.710938 290.203125 280.738281 290.203125 284.46875 "/>
<path fill="none" stroke-width="0.708661" stroke-linecap="round" stroke-linejoin="round" stroke="rgb(18.431373%, 30.980392%, 30.980392%)" stroke-opacity="1" stroke-miterlimit="10" d="M 384.785156 252.695312 C 384.785156 256.425781 381.761719 259.449219 378.03125 259.449219 C 374.300781 259.449219 371.273438 256.425781 371.273438 252.695312 C 371.273438 248.960938 374.300781 245.9375 378.03125 245.9375 C 381.761719 245.9375 384.785156 248.960938 384.785156 252.695312 "/>
<path fill-rule="nonzero" fill="rgb(18.431373%, 30.980392%, 30.980392%)" fill-opacity="1" stroke-width="0.708661" stroke-linecap="round" stroke-linejoin="round" stroke="rgb(18.431373%, 30.980392%, 30.980392%)" stroke-opacity="1" stroke-miterlimit="10" d="M 278.859375 273.640625 C 278.859375 277.371094 275.832031 280.394531 272.101562 280.394531 C 268.371094 280.394531 265.347656 277.371094 265.347656 273.640625 C 265.347656 269.90625 268.371094 266.882812 272.101562 266.882812 C 275.832031 266.882812 278.859375 269.90625 278.859375 273.640625 "/>
<path fill="none" stroke-width="0.708661" stroke-linecap="round" stroke-linejoin="round" stroke="rgb(18.431373%, 30.980392%, 30.980392%)" stroke-opacity="1" stroke-miterlimit="10" d="M 247.496094 198.082031 C 247.496094 201.8125 244.472656 204.839844 240.742188 204.839844 C 237.007812 204.839844 233.984375 201.8125 233.984375 198.082031 C 233.984375 194.351562 237.007812 191.324219 240.742188 191.324219 C 244.472656 191.324219 247.496094 194.351562 247.496094 198.082031 "/>
<path fill="none" stroke-width="0.708661" stroke-linecap="round" stroke-linejoin="round" stroke="rgb(18.431373%, 30.980392%, 30.980392%)" stroke-opacity="1" stroke-miterlimit="10" d="M 185.847656 288.046875 C 185.847656 291.78125 182.824219 294.804688 179.09375 294.804688 C 175.359375 294.804688 172.335938 291.78125 172.335938 288.046875 C 172.335938 284.316406 175.359375 281.292969 179.09375 281.292969 C 182.824219 281.292969 185.847656 284.316406 185.847656 288.046875 "/>
<path fill="none" stroke-width="0.708661" stroke-linecap="round" stroke-linejoin="round" stroke="rgb(18.431373%, 30.980392%, 30.980392%)" stroke-opacity="1" stroke-miterlimit="10" d="M 95.417969 424.542969 C 95.417969 428.273438 92.394531 431.296875 88.664062 431.296875 C 84.929688 431.296875 81.90625 428.273438 81.90625 424.542969 C 81.90625 420.808594 84.929688 417.785156 88.664062 417.785156 C 92.394531 417.785156 95.417969 420.808594 95.417969 424.542969 "/>
<path fill="none" stroke-width="0.708661" stroke-linecap="round" stroke-linejoin="round" stroke="rgb(18.431373%, 30.980392%, 30.980392%)" stroke-opacity="1" stroke-miterlimit="10" d="M 367.394531 66.960938 C 367.394531 70.691406 364.367188 73.71875 360.636719 73.71875 C 356.90625 73.71875 353.882812 70.691406 353.882812 66.960938 C 353.882812 63.230469 356.90625 60.207031 360.636719 60.207031 C 364.367188 60.207031 367.394531 63.230469 367.394531 66.960938 "/>
<path fill="none" stroke-width="0.708661" stroke-linecap="round" stroke-linejoin="round" stroke="rgb(18.431373%, 30.980392%, 30.980392%)" stroke-opacity="1" stroke-miterlimit="10" d="M 201.625 269.519531 C 201.625 273.25 198.601562 276.273438 194.871094 276.273438 C 191.136719 276.273438 188.113281 273.25 188.113281 269.519531 C 188.113281 265.785156 191.136719 262.761719 194.871094 262.761719 C 198.601562 262.761719 201.625 265.785156 201.625 269.519531 "/>
<path fill="none" stroke-width="0.708661" stroke-linecap="round" stroke-linejoin="round" stroke="rgb(18.431373%, 30.980392%, 30.980392%)" stroke-opacity="1" stroke-miterlimit="10" d="M 298.957031 344.792969 C 298.957031 348.527344 295.933594 351.550781 292.199219 351.550781 C 288.46875 351.550781 285.445312 348.527344 285.445312 344.792969 C 285.445312 341.0625 288.46875 338.039062 292.199219 338.039062 C 295.933594 338.039062 298.957031 341.0625 298.957031 344.792969 "/>
<path fill-rule="nonzero" fill="rgb(18.431373%, 30.980392%, 30.980392%)" fill-opacity="1" stroke-width="0.708661" stroke-linecap="round" stroke-linejoin="round" stroke="rgb(18.431373%, 30.980392%, 30.980392%)" stroke-opacity="1" stroke-miterlimit="10" d="M 329.484375 199.785156 C 329.484375 203.515625 326.460938 206.542969 322.730469 206.542969 C 318.996094 206.542969 315.972656 203.515625 315.972656 199.785156 C 315.972656 196.054688 318.996094 193.03125 322.730469 193.03125 C 326.460938 193.03125 329.484375 196.054688 329.484375 199.785156 "/>
<path fill-rule="nonzero" fill="rgb(18.431373%, 30.980392%, 30.980392%)" fill-opacity="1" stroke-width="0.708661" stroke-linecap="round" stroke-linejoin="round" stroke="rgb(18.431373%, 30.980392%, 30.980392%)" stroke-opacity="1" stroke-miterlimit="10" d="M 346.65625 201.5 C 346.65625 205.230469 343.628906 208.253906 339.898438 208.253906 C 336.167969 208.253906 333.144531 205.230469 333.144531 201.5 C 333.144531 197.769531 336.167969 194.742188 339.898438 194.742188 C 343.628906 194.742188 346.65625 197.769531 346.65625 201.5 "/>
<path fill="none" stroke-width="0.708661" stroke-linecap="round" stroke-linejoin="round" stroke="rgb(18.431373%, 30.980392%, 30.980392%)" stroke-opacity="1" stroke-miterlimit="10" d="M 178.253906 394.710938 C 178.253906 398.441406 175.226562 401.46875 171.496094 401.46875 C 167.765625 401.46875 164.738281 398.441406 164.738281 394.710938 C 164.738281 390.980469 167.765625 387.957031 171.496094 387.957031 C 175.226562 387.957031 178.253906 390.980469 178.253906 394.710938 "/>
<path fill="none" stroke-width="0.708661" stroke-linecap="round" stroke-linejoin="round" stroke="rgb(18.431373%, 30.980392%, 30.980392%)" stroke-opacity="1" stroke-miterlimit="10" d="M 440.339844 22.859375 C 440.339844 26.589844 437.3125 29.617188 433.582031 29.617188 C 429.851562 29.617188 426.828125 26.589844 426.828125 22.859375 C 426.828125 19.128906 429.851562 16.105469 433.582031 16.105469 C 437.3125 16.105469 440.339844 19.128906 440.339844 22.859375 "/>
<path fill="none" stroke-width="0.708661" stroke-linecap="round" stroke-linejoin="round" stroke="rgb(18.431373%, 30.980392%, 30.980392%)" stroke-opacity="1" stroke-miterlimit="10" d="M 441.320312 147.246094 C 441.320312 150.976562 438.296875 154 434.566406 154 C 430.835938 154 427.808594 150.976562 427.808594 147.246094 C 427.808594 143.511719 430.835938 140.488281 434.566406 140.488281 C 438.296875 140.488281 441.320312 143.511719 441.320312 147.246094 "/>
<path fill="none" stroke-width="0.708661" stroke-linecap="round" stroke-linejoin="round" stroke="rgb(18.431373%, 30.980392%, 30.980392%)" stroke-opacity="1" stroke-miterlimit="10" d="M 392.089844 158.140625 C 392.089844 161.871094 389.066406 164.898438 385.332031 164.898438 C 381.601562 164.898438 378.578125 161.871094 378.578125 158.140625 C 378.578125 154.410156 381.601562 151.386719 385.332031 151.386719 C 389.066406 151.386719 392.089844 154.410156 392.089844 158.140625 "/>
<path fill-rule="nonzero" fill="rgb(18.431373%, 30.980392%, 30.980392%)" fill-opacity="1" stroke-width="0.708661" stroke-linecap="round" stroke-linejoin="round" stroke="rgb(18.431373%, 30.980392%, 30.980392%)" stroke-opacity="1" stroke-miterlimit="10" d="M 325.144531 273.308594 C 325.144531 277.042969 322.117188 280.066406 318.386719 280.066406 C 314.65625 280.066406 311.632812 277.042969 311.632812 273.308594 C 311.632812 269.578125 314.65625 266.554688 318.386719 266.554688 C 322.117188 266.554688 325.144531 269.578125 325.144531 273.308594 "/>
<path fill="none" stroke-width="0.708661" stroke-linecap="round" stroke-linejoin="round" stroke="rgb(18.431373%, 30.980392%, 30.980392%)" stroke-opacity="1" stroke-miterlimit="10" d="M 269.023438 240.945312 C 269.023438 244.675781 266 247.703125 262.269531 247.703125 C 258.535156 247.703125 255.511719 244.675781 255.511719 240.945312 C 255.511719 237.214844 258.535156 234.1875 262.269531 234.1875 C 266 234.1875 269.023438 237.214844 269.023438 240.945312 "/>
<path fill-rule="nonzero" fill="rgb(18.431373%, 30.980392%, 30.980392%)" fill-opacity="1" stroke-width="0.708661" stroke-linecap="round" stroke-linejoin="round" stroke="rgb(18.431373%, 30.980392%, 30.980392%)" stroke-opacity="1" stroke-miterlimit="10" d="M 325.929688 206.761719 C 325.929688 210.492188 322.902344 213.519531 319.171875 213.519531 C 315.441406 213.519531 312.417969 210.492188 312.417969 206.761719 C 312.417969 203.03125 315.441406 200.007812 319.171875 200.007812 C 322.902344 200.007812 325.929688 203.03125 325.929688 206.761719 "/>
<path fill="none" stroke-width="0.708661" stroke-linecap="round" stroke-linejoin="round" stroke="rgb(18.431373%, 30.980392%, 30.980392%)" stroke-opacity="1" stroke-miterlimit="10" d="M 345.960938 166.265625 C 345.960938 169.996094 342.933594 173.019531 339.203125 173.019531 C 335.472656 173.019531 332.445312 169.996094 332.445312 166.265625 C 332.445312 162.535156 335.472656 159.507812 339.203125 159.507812 C 342.933594 159.507812 345.960938 162.535156 345.960938 166.265625 "/>
<path fill-rule="nonzero" fill="rgb(18.431373%, 30.980392%, 30.980392%)" fill-opacity="1" stroke-width="0.708661" stroke-linecap="round" stroke-linejoin="round" stroke="rgb(18.431373%, 30.980392%, 30.980392%)" stroke-opacity="1" stroke-miterlimit="10" d="M 375.0625 276.082031 C 375.0625 279.8125 372.035156 282.839844 368.304688 282.839844 C 364.574219 282.839844 361.550781 279.8125 361.550781 276.082031 C 361.550781 272.351562 364.574219 269.328125 368.304688 269.328125 C 372.035156 269.328125 375.0625 272.351562 375.0625 276.082031 "/>
<path fill-rule="nonzero" fill="rgb(18.431373%, 30.980392%, 30.980392%)" fill-opacity="1" stroke-width="0.708661" stroke-linecap="round" stroke-linejoin="round" stroke="rgb(18.431373%, 30.980392%, 30.980392%)" stroke-opacity="1" stroke-miterlimit="10" d="M 228.515625 270.066406 C 228.515625 273.800781 225.492188 276.824219 221.757812 276.824219 C 218.027344 276.824219 215.003906 273.800781 215.003906 270.066406 C 215.003906 266.335938 218.027344 263.3125 221.757812 263.3125 C 225.492188 263.3125 228.515625 266.335938 228.515625 270.066406 "/>
<path fill="none" stroke-width="0.708661" stroke-linecap="round" stroke-linejoin="round" stroke="rgb(18.431373%, 30.980392%, 30.980392%)" stroke-opacity="1" stroke-miterlimit="10" d="M 234.808594 306.316406 C 234.808594 310.046875 231.785156 313.070312 228.054688 313.070312 C 224.324219 313.070312 221.296875 310.046875 221.296875 306.316406 C 221.296875 302.582031 224.324219 299.558594 228.054688 299.558594 C 231.785156 299.558594 234.808594 302.582031 234.808594 306.316406 "/>
<path fill="none" stroke-width="0.708661" stroke-linecap="round" stroke-linejoin="round" stroke="rgb(18.431373%, 30.980392%, 30.980392%)" stroke-opacity="1" stroke-miterlimit="10" d="M 247.289062 310.609375 C 247.289062 314.34375 244.261719 317.367188 240.53125 317.367188 C 236.800781 317.367188 233.773438 314.34375 233.773438 310.609375 C 233.773438 306.878906 236.800781 303.855469 240.53125 303.855469 C 244.261719 303.855469 247.289062 306.878906 247.289062 310.609375 "/>
<path fill-rule="nonzero" fill="rgb(18.431373%, 30.980392%, 30.980392%)" fill-opacity="1" stroke-width="0.708661" stroke-linecap="round" stroke-linejoin="round" stroke="rgb(18.431373%, 30.980392%, 30.980392%)" stroke-opacity="1" stroke-miterlimit="10" d="M 170.074219 262.871094 C 170.074219 266.601562 167.050781 269.625 163.316406 269.625 C 159.585938 269.625 156.5625 266.601562 156.5625 262.871094 C 156.5625 259.140625 159.585938 256.113281 163.316406 256.113281 C 167.050781 256.113281 170.074219 259.140625 170.074219 262.871094 "/>
<path fill="none" stroke-width="0.708661" stroke-linecap="round" stroke-linejoin="round" stroke="rgb(18.431373%, 30.980392%, 30.980392%)" stroke-opacity="1" stroke-miterlimit="10" d="M 317.4375 150.214844 C 317.4375 153.945312 314.410156 156.972656 310.679688 156.972656 C 306.949219 156.972656 303.925781 153.945312 303.925781 150.214844 C 303.925781 146.484375 306.949219 143.457031 310.679688 143.457031 C 314.410156 143.457031 317.4375 146.484375 317.4375 150.214844 "/>
<path fill="none" stroke-width="0.708661" stroke-linecap="round" stroke-linejoin="round" stroke="rgb(18.431373%, 30.980392%, 30.980392%)" stroke-opacity="1" stroke-miterlimit="10" d="M 322.359375 245.679688 C 322.359375 249.410156 319.335938 252.4375 315.605469 252.4375 C 311.875 252.4375 308.847656 249.410156 308.847656 245.679688 C 308.847656 241.949219 311.875 238.921875 315.605469 238.921875 C 319.335938 238.921875 322.359375 241.949219 322.359375 245.679688 "/>
<path fill-rule="nonzero" fill="rgb(18.431373%, 30.980392%, 30.980392%)" fill-opacity="1" stroke-width="0.708661" stroke-linecap="round" stroke-linejoin="round" stroke="rgb(18.431373%, 30.980392%, 30.980392%)" stroke-opacity="1" stroke-miterlimit="10" d="M 418.101562 227.222656 C 418.101562 230.953125 415.078125 233.976562 411.347656 233.976562 C 407.613281 233.976562 404.589844 230.953125 404.589844 227.222656 C 404.589844 223.492188 407.613281 220.464844 411.347656 220.464844 C 415.078125 220.464844 418.101562 223.492188 418.101562 227.222656 "/>
<path fill="none" stroke-width="0.708661" stroke-linecap="round" stroke-linejoin="round" stroke="rgb(18.431373%, 30.980392%, 30.980392%)" stroke-opacity="1" stroke-miterlimit="10" d="M 216.152344 268.738281 C 216.152344 272.46875 213.128906 275.492188 209.394531 275.492188 C 205.664062 275.492188 202.640625 272.46875 202.640625 268.738281 C 202.640625 265.007812 205.664062 261.980469 209.394531 261.980469 C 213.128906 261.980469 216.152344 265.007812 216.152344 268.738281 "/>
<path fill="none" stroke-width="0.708661" stroke-linecap="round" stroke-linejoin="round" stroke="rgb(18.431373%, 30.980392%, 30.980392%)" stroke-opacity="1" stroke-miterlimit="10" d="M 167.964844 367.386719 C 167.964844 371.121094 164.9375 374.144531 161.207031 374.144531 C 157.476562 374.144531 154.453125 371.121094 154.453125 367.386719 C 154.453125 363.65625 157.476562 360.632812 161.207031 360.632812 C 164.9375 360.632812 167.964844 363.65625 167.964844 367.386719 "/>
<path fill="none" stroke-width="0.708661" stroke-linecap="round" stroke-linejoin="round" stroke="rgb(18.431373%, 30.980392%, 30.980392%)" stroke-opacity="1" stroke-miterlimit="10" d="M 370.179688 239.308594 C 370.179688 243.039062 367.15625 246.0625 363.425781 246.0625 C 359.695312 246.0625 356.667969 243.039062 356.667969 239.308594 C 356.667969 235.578125 359.695312 232.550781 363.425781 232.550781 C 367.15625 232.550781 370.179688 235.578125 370.179688 239.308594 "/>
<path fill="none" stroke-width="0.708661" stroke-linecap="round" stroke-linejoin="round" stroke="rgb(18.431373%, 30.980392%, 30.980392%)" stroke-opacity="1" stroke-miterlimit="10" d="M 321.386719 315.675781 C 321.386719 319.40625 318.363281 322.433594 314.632812 322.433594 C 310.898438 322.433594 307.875 319.40625 307.875 315.675781 C 307.875 311.945312 310.898438 308.917969 314.632812 308.917969 C 318.363281 308.917969 321.386719 311.945312 321.386719 315.675781 "/>
<path fill="none" stroke-width="0.708661" stroke-linecap="round" stroke-linejoin="round" stroke="rgb(18.431373%, 30.980392%, 30.980392%)" stroke-opacity="1" stroke-miterlimit="10" d="M 209.949219 345.175781 C 209.949219 348.90625 206.921875 351.929688 203.191406 351.929688 C 199.460938 351.929688 196.433594 348.90625 196.433594 345.175781 C 196.433594 341.445312 199.460938 338.417969 203.191406 338.417969 C 206.921875 338.417969 209.949219 341.445312 209.949219 345.175781 "/>
<path fill="none" stroke-width="0.708661" stroke-linecap="round" stroke-linejoin="round" stroke="rgb(18.431373%, 30.980392%, 30.980392%)" stroke-opacity="1" stroke-miterlimit="10" d="M 310.769531 274.449219 C 310.769531 278.179688 307.746094 281.203125 304.015625 281.203125 C 300.28125 281.203125 297.257812 278.179688 297.257812 274.449219 C 297.257812 270.71875 300.28125 267.691406 304.015625 267.691406 C 307.746094 267.691406 310.769531 270.71875 310.769531 274.449219 "/>
<path fill-rule="nonzero" fill="rgb(18.431373%, 30.980392%, 30.980392%)" fill-opacity="1" stroke-width="0.708661" stroke-linecap="round" stroke-linejoin="round" stroke="rgb(18.431373%, 30.980392%, 30.980392%)" stroke-opacity="1" stroke-miterlimit="10" d="M 361.511719 123.628906 C 361.511719 127.359375 358.488281 130.382812 354.757812 130.382812 C 351.027344 130.382812 348 127.359375 348 123.628906 C 348 119.898438 351.027344 116.871094 354.757812 116.871094 C 358.488281 116.871094 361.511719 119.898438 361.511719 123.628906 "/>
<path fill="none" stroke-width="0.708661" stroke-linecap="round" stroke-linejoin="round" stroke="rgb(18.431373%, 30.980392%, 30.980392%)" stroke-opacity="1" stroke-miterlimit="10" d="M 216.050781 184.722656 C 216.050781 188.457031 213.027344 191.480469 209.292969 191.480469 C 205.5625 191.480469 202.539062 188.457031 202.539062 184.722656 C 202.539062 180.992188 205.5625 177.96875 209.292969 177.96875 C 213.027344 177.96875 216.050781 180.992188 216.050781 184.722656 "/>
<path fill-rule="nonzero" fill="rgb(18.431373%, 30.980392%, 30.980392%)" fill-opacity="1" stroke-width="0.708661" stroke-linecap="round" stroke-linejoin="round" stroke="rgb(18.431373%, 30.980392%, 30.980392%)" stroke-opacity="1" stroke-miterlimit="10" d="M 401.609375 188.203125 C 401.609375 191.933594 398.585938 194.960938 394.855469 194.960938 C 391.125 194.960938 388.097656 191.933594 388.097656 188.203125 C 388.097656 184.472656 391.125 181.449219 394.855469 181.449219 C 398.585938 181.449219 401.609375 184.472656 401.609375 188.203125 "/>
<path fill="none" stroke-width="0.708661" stroke-linecap="round" stroke-linejoin="round" stroke="rgb(18.431373%, 30.980392%, 30.980392%)" stroke-opacity="1" stroke-miterlimit="10" d="M 295.964844 275.285156 C 295.964844 279.015625 292.941406 282.039062 289.210938 282.039062 C 285.476562 282.039062 282.453125 279.015625 282.453125 275.285156 C 282.453125 271.550781 285.476562 268.527344 289.210938 268.527344 C 292.941406 268.527344 295.964844 271.550781 295.964844 275.285156 "/>
<path fill-rule="nonzero" fill="rgb(18.431373%, 30.980392%, 30.980392%)" fill-opacity="1" stroke-width="0.708661" stroke-linecap="round" stroke-linejoin="round" stroke="rgb(18.431373%, 30.980392%, 30.980392%)" stroke-opacity="1" stroke-miterlimit="10" d="M 41.816406 438.957031 C 41.816406 442.6875 38.792969 445.714844 35.0625 445.714844 C 31.328125 445.714844 28.304688 442.6875 28.304688 438.957031 C 28.304688 435.226562 31.328125 432.199219 35.0625 432.199219 C 38.792969 432.199219 41.816406 435.226562 41.816406 438.957031 "/>
<path fill="none" stroke-width="0.708661" stroke-linecap="round" stroke-linejoin="round" stroke="rgb(18.431373%, 30.980392%, 30.980392%)" stroke-opacity="1" stroke-miterlimit="10" d="M 63.679688 424.058594 C 63.679688 427.789062 60.65625 430.816406 56.921875 430.816406 C 53.191406 430.816406 50.167969 427.789062 50.167969 424.058594 C 50.167969 420.328125 53.191406 417.300781 56.921875 417.300781 C 60.65625 417.300781 63.679688 420.328125 63.679688 424.058594 "/>
<path fill-rule="nonzero" fill="rgb(18.431373%, 30.980392%, 30.980392%)" fill-opacity="1" stroke-width="0.708661" stroke-linecap="round" stroke-linejoin="round" stroke="rgb(18.431373%, 30.980392%, 30.980392%)" stroke-opacity="1" stroke-miterlimit="10" d="M 302.484375 202.5625 C 302.484375 206.292969 299.460938 209.320312 295.730469 209.320312 C 292 209.320312 288.972656 206.292969 288.972656 202.5625 C 288.972656 198.832031 292 195.804688 295.730469 195.804688 C 299.460938 195.804688 302.484375 198.832031 302.484375 202.5625 "/>
<path fill="none" stroke-width="0.708661" stroke-linecap="round" stroke-linejoin="round" stroke="rgb(18.431373%, 30.980392%, 30.980392%)" stroke-opacity="1" stroke-miterlimit="10" d="M 206.398438 225.046875 C 206.398438 228.777344 203.375 231.800781 199.644531 231.800781 C 195.910156 231.800781 192.886719 228.777344 192.886719 225.046875 C 192.886719 221.316406 195.910156 218.289062 199.644531 218.289062 C 203.375 218.289062 206.398438 221.316406 206.398438 225.046875 "/>
<path fill="none" stroke-width="0.708661" stroke-linecap="round" stroke-linejoin="round" stroke="rgb(18.431373%, 30.980392%, 30.980392%)" stroke-opacity="1" stroke-miterlimit="10" d="M 233.953125 314.898438 C 233.953125 318.628906 230.929688 321.652344 227.199219 321.652344 C 223.464844 321.652344 220.441406 318.628906 220.441406 314.898438 C 220.441406 311.164062 223.464844 308.140625 227.199219 308.140625 C 230.929688 308.140625 233.953125 311.164062 233.953125 314.898438 "/>
<path fill="none" stroke-width="0.708661" stroke-linecap="round" stroke-linejoin="round" stroke="rgb(18.431373%, 30.980392%, 30.980392%)" stroke-opacity="1" stroke-miterlimit="10" d="M 283.363281 172.570312 C 283.363281 176.300781 280.335938 179.324219 276.605469 179.324219 C 272.875 179.324219 269.851562 176.300781 269.851562 172.570312 C 269.851562 168.839844 272.875 165.8125 276.605469 165.8125 C 280.335938 165.8125 283.363281 168.839844 283.363281 172.570312 "/>
<path fill="none" stroke-width="0.708661" stroke-linecap="round" stroke-linejoin="round" stroke="rgb(18.431373%, 30.980392%, 30.980392%)" stroke-opacity="1" stroke-miterlimit="10" d="M 259.910156 270.289062 C 259.910156 274.019531 256.886719 277.046875 253.15625 277.046875 C 249.421875 277.046875 246.398438 274.019531 246.398438 270.289062 C 246.398438 266.558594 249.421875 263.53125 253.15625 263.53125 C 256.886719 263.53125 259.910156 266.558594 259.910156 270.289062 "/>
<path fill-rule="nonzero" fill="rgb(18.431373%, 30.980392%, 30.980392%)" fill-opacity="1" stroke-width="0.708661" stroke-linecap="round" stroke-linejoin="round" stroke="rgb(18.431373%, 30.980392%, 30.980392%)" stroke-opacity="1" stroke-miterlimit="10" d="M 199.605469 391.9375 C 199.605469 395.671875 196.578125 398.695312 192.847656 398.695312 C 189.117188 398.695312 186.089844 395.671875 186.089844 391.9375 C 186.089844 388.207031 189.117188 385.183594 192.847656 385.183594 C 196.578125 385.183594 199.605469 388.207031 199.605469 391.9375 "/>
<path fill="none" stroke-width="0.708661" stroke-linecap="round" stroke-linejoin="round" stroke="rgb(18.431373%, 30.980392%, 30.980392%)" stroke-opacity="1" stroke-miterlimit="10" d="M 173.285156 322.644531 C 173.285156 326.378906 170.257812 329.402344 166.527344 329.402344 C 162.796875 329.402344 159.769531 326.378906 159.769531 322.644531 C 159.769531 318.914062 162.796875 315.890625 166.527344 315.890625 C 170.257812 315.890625 173.285156 318.914062 173.285156 322.644531 "/>
<path fill="none" stroke-width="0.708661" stroke-linecap="round" stroke-linejoin="round" stroke="rgb(18.431373%, 30.980392%, 30.980392%)" stroke-opacity="1" stroke-miterlimit="10" d="M 240.359375 261.308594 C 240.359375 265.042969 237.335938 268.066406 233.605469 268.066406 C 229.875 268.066406 226.847656 265.042969 226.847656 261.308594 C 226.847656 257.578125 229.875 254.554688 233.605469 254.554688 C 237.335938 254.554688 240.359375 257.578125 240.359375 261.308594 "/>
<path fill-rule="nonzero" fill="rgb(18.431373%, 30.980392%, 30.980392%)" fill-opacity="1" stroke-width="0.708661" stroke-linecap="round" stroke-linejoin="round" stroke="rgb(18.431373%, 30.980392%, 30.980392%)" stroke-opacity="1" stroke-miterlimit="10" d="M 436.375 233.507812 C 436.375 237.242188 433.351562 240.265625 429.617188 240.265625 C 425.886719 240.265625 422.863281 237.242188 422.863281 233.507812 C 422.863281 229.777344 425.886719 226.753906 429.617188 226.753906 C 433.351562 226.753906 436.375 229.777344 436.375 233.507812 "/>
<path fill="none" stroke-width="0.708661" stroke-linecap="round" stroke-linejoin="round" stroke="rgb(18.431373%, 30.980392%, 30.980392%)" stroke-opacity="1" stroke-miterlimit="10" d="M 396.859375 244.4375 C 396.859375 248.167969 393.832031 251.195312 390.101562 251.195312 C 386.371094 251.195312 383.34375 248.167969 383.34375 244.4375 C 383.34375 240.707031 386.371094 237.679688 390.101562 237.679688 C 393.832031 237.679688 396.859375 240.707031 396.859375 244.4375 "/>
<path fill="none" stroke-width="0.708661" stroke-linecap="round" stroke-linejoin="round" stroke="rgb(18.431373%, 30.980392%, 30.980392%)" stroke-opacity="1" stroke-miterlimit="10" d="M 265.472656 184.589844 C 265.472656 188.320312 262.449219 191.347656 258.71875 191.347656 C 254.984375 191.347656 251.960938 188.320312 251.960938 184.589844 C 251.960938 180.859375 254.984375 177.835938 258.71875 177.835938 C 262.449219 177.835938 265.472656 180.859375 265.472656 184.589844 "/>
<path fill-rule="nonzero" fill="rgb(18.431373%, 30.980392%, 30.980392%)" fill-opacity="1" stroke-width="0.708661" stroke-linecap="round" stroke-linejoin="round" stroke="rgb(18.431373%, 30.980392%, 30.980392%)" stroke-opacity="1" stroke-miterlimit="10" d="M 239.515625 193.039062 C 239.515625 196.769531 236.492188 199.792969 232.761719 199.792969 C 229.03125 199.792969 226.003906 196.769531 226.003906 193.039062 C 226.003906 189.304688 229.03125 186.28125 232.761719 186.28125 C 236.492188 186.28125 239.515625 189.304688 239.515625 193.039062 "/>
<path fill="none" stroke-width="0.708661" stroke-linecap="round" stroke-linejoin="round" stroke="rgb(18.431373%, 30.980392%, 30.980392%)" stroke-opacity="1" stroke-miterlimit="10" d="M 89.523438 224.382812 C 89.523438 228.113281 86.496094 231.140625 82.765625 231.140625 C 79.035156 231.140625 76.007812 228.113281 76.007812 224.382812 C 76.007812 220.652344 79.035156 217.628906 82.765625 217.628906 C 86.496094 217.628906 89.523438 220.652344 89.523438 224.382812 "/>
<path fill="none" stroke-width="0.708661" stroke-linecap="round" stroke-linejoin="round" stroke="rgb(18.431373%, 30.980392%, 30.980392%)" stroke-opacity="1" stroke-miterlimit="10" d="M 247.550781 350.703125 C 247.550781 354.433594 244.527344 357.457031 240.796875 357.457031 C 237.066406 357.457031 234.039062 354.433594 234.039062 350.703125 C 234.039062 346.96875 237.066406 343.945312 240.796875 343.945312 C 244.527344 343.945312 247.550781 346.96875 247.550781 350.703125 "/>
<path fill="none" stroke-width="0.708661" stroke-linecap="round" stroke-linejoin="round" stroke="rgb(18.431373%, 30.980392%, 30.980392%)" stroke-opacity="1" stroke-miterlimit="10" d="M 321.949219 234.53125 C 321.949219 238.265625 318.921875 241.289062 315.191406 241.289062 C 311.460938 241.289062 308.433594 238.265625 308.433594 234.53125 C 308.433594 230.800781 311.460938 227.777344 315.191406 227.777344 C 318.921875 227.777344 321.949219 230.800781 321.949219 234.53125 "/>
<path fill="none" stroke-width="0.708661" stroke-linecap="round" stroke-linejoin="round" stroke="rgb(18.431373%, 30.980392%, 30.980392%)" stroke-opacity="1" stroke-miterlimit="10" d="M 144.644531 268.144531 C 144.644531 271.875 141.621094 274.898438 137.890625 274.898438 C 134.15625 274.898438 131.132812 271.875 131.132812 268.144531 C 131.132812 264.414062 134.15625 261.386719 137.890625 261.386719 C 141.621094 261.386719 144.644531 264.414062 144.644531 268.144531 "/>
<path fill-rule="nonzero" fill="rgb(18.431373%, 30.980392%, 30.980392%)" fill-opacity="1" stroke-width="0.708661" stroke-linecap="round" stroke-linejoin="round" stroke="rgb(18.431373%, 30.980392%, 30.980392%)" stroke-opacity="1" stroke-miterlimit="10" d="M 338.464844 167.554688 C 338.464844 171.285156 335.4375 174.3125 331.707031 174.3125 C 327.976562 174.3125 324.953125 171.285156 324.953125 167.554688 C 324.953125 163.824219 327.976562 160.800781 331.707031 160.800781 C 335.4375 160.800781 338.464844 163.824219 338.464844 167.554688 "/>
<path fill="none" stroke-width="0.708661" stroke-linecap="round" stroke-linejoin="round" stroke="rgb(18.431373%, 30.980392%, 30.980392%)" stroke-opacity="1" stroke-miterlimit="10" d="M 344.125 231.808594 C 344.125 235.539062 341.101562 238.566406 337.371094 238.566406 C 333.636719 238.566406 330.613281 235.539062 330.613281 231.808594 C 330.613281 228.078125 333.636719 225.054688 337.371094 225.054688 C 341.101562 225.054688 344.125 228.078125 344.125 231.808594 "/>
<path fill="none" stroke-width="0.708661" stroke-linecap="round" stroke-linejoin="round" stroke="rgb(18.431373%, 30.980392%, 30.980392%)" stroke-opacity="1" stroke-miterlimit="10" d="M 150.445312 211.464844 C 150.445312 215.199219 147.421875 218.222656 143.691406 218.222656 C 139.957031 218.222656 136.933594 215.199219 136.933594 211.464844 C 136.933594 207.734375 139.957031 204.710938 143.691406 204.710938 C 147.421875 204.710938 150.445312 207.734375 150.445312 211.464844 "/>
<path fill="none" stroke-width="0.708661" stroke-linecap="round" stroke-linejoin="round" stroke="rgb(18.431373%, 30.980392%, 30.980392%)" stroke-opacity="1" stroke-miterlimit="10" d="M 365.320312 32.382812 C 365.320312 36.117188 362.292969 39.140625 358.5625 39.140625 C 354.832031 39.140625 351.804688 36.117188 351.804688 32.382812 C 351.804688 28.652344 354.832031 25.628906 358.5625 25.628906 C 362.292969 25.628906 365.320312 28.652344 365.320312 32.382812 "/>
<path fill="none" stroke-width="0.708661" stroke-linecap="round" stroke-linejoin="round" stroke="rgb(18.431373%, 30.980392%, 30.980392%)" stroke-opacity="1" stroke-miterlimit="10" d="M 227.84375 286.734375 C 227.84375 290.464844 224.816406 293.492188 221.085938 293.492188 C 217.355469 293.492188 214.332031 290.464844 214.332031 286.734375 C 214.332031 283.003906 217.355469 279.980469 221.085938 279.980469 C 224.816406 279.980469 227.84375 283.003906 227.84375 286.734375 "/>
<path fill="none" stroke-width="0.708661" stroke-linecap="round" stroke-linejoin="round" stroke="rgb(18.431373%, 30.980392%, 30.980392%)" stroke-opacity="1" stroke-miterlimit="10" d="M 212.816406 371.136719 C 212.816406 374.867188 209.792969 377.890625 206.0625 377.890625 C 202.328125 377.890625 199.304688 374.867188 199.304688 371.136719 C 199.304688 367.40625 202.328125 364.378906 206.0625 364.378906 C 209.792969 364.378906 212.816406 367.40625 212.816406 371.136719 "/>
<path fill="none" stroke-width="0.708661" stroke-linecap="round" stroke-linejoin="round" stroke="rgb(18.431373%, 30.980392%, 30.980392%)" stroke-opacity="1" stroke-miterlimit="10" d="M 344.6875 219.433594 C 344.6875 223.164062 341.660156 226.191406 337.929688 226.191406 C 334.199219 226.191406 331.175781 223.164062 331.175781 219.433594 C 331.175781 215.703125 334.199219 212.679688 337.929688 212.679688 C 341.660156 212.679688 344.6875 215.703125 344.6875 219.433594 "/>
<path fill-rule="nonzero" fill="rgb(18.431373%, 30.980392%, 30.980392%)" fill-opacity="1" stroke-width="0.708661" stroke-linecap="round" stroke-linejoin="round" stroke="rgb(18.431373%, 30.980392%, 30.980392%)" stroke-opacity="1" stroke-miterlimit="10" d="M 295.621094 362.945312 C 295.621094 366.675781 292.59375 369.703125 288.863281 369.703125 C 285.132812 369.703125 282.105469 366.675781 282.105469 362.945312 C 282.105469 359.214844 285.132812 356.191406 288.863281 356.191406 C 292.59375 356.191406 295.621094 359.214844 295.621094 362.945312 "/>
<path fill="none" stroke-width="0.708661" stroke-linecap="round" stroke-linejoin="round" stroke="rgb(18.431373%, 30.980392%, 30.980392%)" stroke-opacity="1" stroke-miterlimit="10" d="M 221.890625 231.4375 C 221.890625 235.167969 218.867188 238.191406 215.136719 238.191406 C 211.40625 238.191406 208.378906 235.167969 208.378906 231.4375 C 208.378906 227.707031 211.40625 224.679688 215.136719 224.679688 C 218.867188 224.679688 221.890625 227.707031 221.890625 231.4375 "/>
<path fill="none" stroke-width="0.708661" stroke-linecap="round" stroke-linejoin="round" stroke="rgb(18.431373%, 30.980392%, 30.980392%)" stroke-opacity="1" stroke-miterlimit="10" d="M 142.257812 400.578125 C 142.257812 404.308594 139.230469 407.332031 135.5 407.332031 C 131.769531 407.332031 128.742188 404.308594 128.742188 400.578125 C 128.742188 396.84375 131.769531 393.820312 135.5 393.820312 C 139.230469 393.820312 142.257812 396.84375 142.257812 400.578125 "/>
<path fill="none" stroke-width="0.708661" stroke-linecap="round" stroke-linejoin="round" stroke="rgb(18.431373%, 30.980392%, 30.980392%)" stroke-opacity="1" stroke-miterlimit="10" d="M 350.132812 155.828125 C 350.132812 159.5625 347.109375 162.585938 343.378906 162.585938 C 339.648438 162.585938 336.621094 159.5625 336.621094 155.828125 C 336.621094 152.097656 339.648438 149.074219 343.378906 149.074219 C 347.109375 149.074219 350.132812 152.097656 350.132812 155.828125 "/>
<path fill="none" stroke-width="0.708661" stroke-linecap="round" stroke-linejoin="round" stroke="rgb(18.431373%, 30.980392%, 30.980392%)" stroke-opacity="1" stroke-miterlimit="10" d="M 151.082031 344.667969 C 151.082031 348.398438 148.058594 351.425781 144.328125 351.425781 C 140.597656 351.425781 137.570312 348.398438 137.570312 344.667969 C 137.570312 340.9375 140.597656 337.910156 144.328125 337.910156 C 148.058594 337.910156 151.082031 340.9375 151.082031 344.667969 "/>
<path fill="none" stroke-width="0.708661" stroke-linecap="round" stroke-linejoin="round" stroke="rgb(18.431373%, 30.980392%, 30.980392%)" stroke-opacity="1" stroke-miterlimit="10" d="M 72.796875 364.125 C 72.796875 367.855469 69.773438 370.882812 66.042969 370.882812 C 62.308594 370.882812 59.285156 367.855469 59.285156 364.125 C 59.285156 360.394531 62.308594 357.367188 66.042969 357.367188 C 69.773438 357.367188 72.796875 360.394531 72.796875 364.125 "/>
<path fill="none" stroke-width="0.708661" stroke-linecap="round" stroke-linejoin="round" stroke="rgb(18.431373%, 30.980392%, 30.980392%)" stroke-opacity="1" stroke-miterlimit="10" d="M 353.726562 280.726562 C 353.726562 284.460938 350.703125 287.484375 346.96875 287.484375 C 343.238281 287.484375 340.214844 284.460938 340.214844 280.726562 C 340.214844 276.996094 343.238281 273.972656 346.96875 273.972656 C 350.703125 273.972656 353.726562 276.996094 353.726562 280.726562 "/>
<path fill-rule="nonzero" fill="rgb(18.431373%, 30.980392%, 30.980392%)" fill-opacity="1" stroke-width="0.708661" stroke-linecap="round" stroke-linejoin="round" stroke="rgb(18.431373%, 30.980392%, 30.980392%)" stroke-opacity="1" stroke-miterlimit="10" d="M 343.753906 195.3125 C 343.753906 199.042969 340.730469 202.070312 337 202.070312 C 333.265625 202.070312 330.242188 199.042969 330.242188 195.3125 C 330.242188 191.582031 333.265625 188.554688 337 188.554688 C 340.730469 188.554688 343.753906 191.582031 343.753906 195.3125 "/>
<path fill="none" stroke-width="0.708661" stroke-linecap="round" stroke-linejoin="round" stroke="rgb(18.431373%, 30.980392%, 30.980392%)" stroke-opacity="1" stroke-miterlimit="10" d="M 314.742188 255.28125 C 314.742188 259.011719 311.71875 262.039062 307.988281 262.039062 C 304.253906 262.039062 301.230469 259.011719 301.230469 255.28125 C 301.230469 251.550781 304.253906 248.523438 307.988281 248.523438 C 311.71875 248.523438 314.742188 251.550781 314.742188 255.28125 "/>
<path fill="none" stroke-width="0.708661" stroke-linecap="round" stroke-linejoin="round" stroke="rgb(18.431373%, 30.980392%, 30.980392%)" stroke-opacity="1" stroke-miterlimit="10" d="M 30.695312 398.347656 C 30.695312 402.082031 27.671875 405.105469 23.941406 405.105469 C 20.207031 405.105469 17.183594 402.082031 17.183594 398.347656 C 17.183594 394.617188 20.207031 391.59375 23.941406 391.59375 C 27.671875 391.59375 30.695312 394.617188 30.695312 398.347656 "/>
<path fill="none" stroke-width="0.708661" stroke-linecap="round" stroke-linejoin="round" stroke="rgb(18.431373%, 30.980392%, 30.980392%)" stroke-opacity="1" stroke-miterlimit="10" d="M 231.9375 283.855469 C 231.9375 287.585938 228.914062 290.613281 225.183594 290.613281 C 221.449219 290.613281 218.425781 287.585938 218.425781 283.855469 C 218.425781 280.125 221.449219 277.101562 225.183594 277.101562 C 228.914062 277.101562 231.9375 280.125 231.9375 283.855469 "/>
<path fill-rule="nonzero" fill="rgb(18.431373%, 30.980392%, 30.980392%)" fill-opacity="1" stroke-width="0.708661" stroke-linecap="round" stroke-linejoin="round" stroke="rgb(18.431373%, 30.980392%, 30.980392%)" stroke-opacity="1" stroke-miterlimit="10" d="M 267.082031 185.949219 C 267.082031 189.683594 264.054688 192.707031 260.324219 192.707031 C 256.59375 192.707031 253.566406 189.683594 253.566406 185.949219 C 253.566406 182.21875 256.59375 179.195312 260.324219 179.195312 C 264.054688 179.195312 267.082031 182.21875 267.082031 185.949219 "/>
<path fill="none" stroke-width="0.708661" stroke-linecap="round" stroke-linejoin="round" stroke="rgb(18.431373%, 30.980392%, 30.980392%)" stroke-opacity="1" stroke-miterlimit="10" d="M 375.890625 282.726562 C 375.890625 286.457031 372.867188 289.480469 369.136719 289.480469 C 365.40625 289.480469 362.378906 286.457031 362.378906 282.726562 C 362.378906 278.996094 365.40625 275.96875 369.136719 275.96875 C 372.867188 275.96875 375.890625 278.996094 375.890625 282.726562 "/>
<path fill="none" stroke-width="0.708661" stroke-linecap="round" stroke-linejoin="round" stroke="rgb(18.431373%, 30.980392%, 30.980392%)" stroke-opacity="1" stroke-miterlimit="10" d="M 288.59375 253.695312 C 288.59375 257.425781 285.566406 260.449219 281.835938 260.449219 C 278.105469 260.449219 275.082031 257.425781 275.082031 253.695312 C 275.082031 249.960938 278.105469 246.9375 281.835938 246.9375 C 285.566406 246.9375 288.59375 249.960938 288.59375 253.695312 "/>
<path fill-rule="nonzero" fill="rgb(18.431373%, 30.980392%, 30.980392%)" fill-opacity="1" stroke-width="0.708661" stroke-linecap="round" stroke-linejoin="round" stroke="rgb(18.431373%, 30.980392%, 30.980392%)" stroke-opacity="1" stroke-miterlimit="10" d="M 134.046875 337.375 C 134.046875 341.105469 131.019531 344.132812 127.289062 344.132812 C 123.558594 344.132812 120.535156 341.105469 120.535156 337.375 C 120.535156 333.644531 123.558594 330.617188 127.289062 330.617188 C 131.019531 330.617188 134.046875 333.644531 134.046875 337.375 "/>
<g clip-path="url(#clip-1)">
<path fill="none" stroke-width="4.267913" stroke-linecap="butt" stroke-linejoin="round" stroke="rgb(0%, 0%, 0%)" stroke-opacity="0.298039" stroke-dasharray="17.071654 17.071654" stroke-miterlimit="10" d="M -501.839844 699.859375 L 1006.921875 -170.253906 "/>
<path fill="none" stroke-width="4.267913" stroke-linecap="butt" stroke-linejoin="round" stroke="rgb(0%, 0%, 0%)" stroke-opacity="0.298039" stroke-dasharray="17.071654 17.071654" stroke-miterlimit="10" d="M -501.839844 651.851562 L 1006.921875 -144.015625 "/>
<path fill="none" stroke-width="4.267913" stroke-linecap="butt" stroke-linejoin="round" stroke="rgb(0%, 0%, 0%)" stroke-opacity="1" stroke-dasharray="17.071654 17.071654" stroke-miterlimit="10" d="M -501.839844 580.832031 L 1006.921875 -57.328125 "/>
</g>
</svg>
