<?xml version="1.0" encoding="UTF-8"?>
<svg xmlns="http://www.w3.org/2000/svg" xmlns:xlink="http://www.w3.org/1999/xlink" width="504" height="504" viewBox="0 0 504 504">
<defs>
<clipPath id="clip-0">
<path clip-rule="nonzero" d="M 1.078125 0 L 504 0 L 504 502.921875 L 1.078125 502.921875 Z M 1.078125 0 "/>
</clipPath>
</defs>
<rect x="-50.4" y="-50.4" width="604.8" height="604.8" fill="rgb(100%, 100%, 100%)" fill-opacity="1"/>
<path fill="none" stroke-width="1.066978" stroke-linecap="butt" stroke-linejoin="round" stroke="rgb(100%, 90.980392%, 26.27451%)" stroke-opacity="0.8" stroke-miterlimit="10" d="M 246.199219 272.992188 L 246.199219 257.863281 "/>
<path fill="none" stroke-width="1.066978" stroke-linecap="butt" stroke-linejoin="round" stroke="rgb(93.72549%, 84.313725%, 32.54902%)" stroke-opacity="0.8" stroke-miterlimit="10" d="M 176.097656 243.382812 L 176.097656 288.417969 "/>
<path fill="none" stroke-width="1.066978" stroke-linecap="butt" stroke-linejoin="round" stroke="rgb(95.686275%, 86.27451%, 30.588235%)" stroke-opacity="0.8" stroke-miterlimit="10" d="M 212.308594 233.589844 L 212.308594 272.636719 "/>
<path fill="none" stroke-width="1.066978" stroke-linecap="butt" stroke-linejoin="round" stroke="rgb(100%, 90.588235%, 25.882353%)" stroke-opacity="0.8" stroke-miterlimit="10" d="M 379.691406 216.25 L 379.691406 199.6875 "/>
<path fill="none" stroke-width="1.066978" stroke-linecap="butt" stroke-linejoin="round" stroke="rgb(100%, 91.372549%, 26.666667%)" stroke-opacity="0.8" stroke-miterlimit="10" d="M 257.246094 243.855469 L 257.246094 253.050781 "/>
<path fill="none" stroke-width="1.066978" stroke-linecap="butt" stroke-linejoin="round" stroke="rgb(100%, 90.980392%, 26.27451%)" stroke-opacity="0.8" stroke-miterlimit="10" d="M 295.746094 252.324219 L 295.746094 236.269531 "/>
<path fill="none" stroke-width="1.066978" stroke-linecap="butt" stroke-linejoin="round" stroke="rgb(84.705882%, 77.254902%, 38.823529%)" stroke-opacity="0.8" stroke-miterlimit="10" d="M 193.171875 216.742188 L 193.171875 280.976562 "/>
<path fill="none" stroke-width="1.066978" stroke-linecap="butt" stroke-linejoin="round" stroke="rgb(74.901961%, 69.019608%, 43.137255%)" stroke-opacity="0.8" stroke-miterlimit="10" d="M 135.199219 225.496094 L 135.199219 306.242188 "/>
<path fill="none" stroke-width="1.066978" stroke-linecap="butt" stroke-linejoin="round" stroke="rgb(100%, 91.372549%, 27.058824%)" stroke-opacity="0.8" stroke-miterlimit="10" d="M 219.875 261.660156 L 219.875 269.339844 "/>
<path fill="none" stroke-width="1.066978" stroke-linecap="butt" stroke-linejoin="round" stroke="rgb(70.588235%, 65.882353%, 44.705882%)" stroke-opacity="0.8" stroke-miterlimit="10" d="M 250.917969 343.054688 L 250.917969 255.808594 "/>
<path fill="none" stroke-width="1.066978" stroke-linecap="butt" stroke-linejoin="round" stroke="rgb(84.705882%, 77.254902%, 38.823529%)" stroke-opacity="0.8" stroke-miterlimit="10" d="M 186.867188 348.015625 L 186.867188 283.722656 "/>
<path fill="none" stroke-width="1.066978" stroke-linecap="butt" stroke-linejoin="round" stroke="rgb(100%, 91.764706%, 27.45098%)" stroke-opacity="0.8" stroke-miterlimit="10" d="M 316.433594 225.039062 L 316.433594 227.253906 "/>
<path fill="none" stroke-width="1.066978" stroke-linecap="butt" stroke-linejoin="round" stroke="rgb(80.392157%, 73.72549%, 40.784314%)" stroke-opacity="0.8" stroke-miterlimit="10" d="M 222.75 339.949219 L 222.75 268.085938 "/>
<path fill="none" stroke-width="1.066978" stroke-linecap="butt" stroke-linejoin="round" stroke="rgb(93.333333%, 83.921569%, 32.941176%)" stroke-opacity="0.8" stroke-miterlimit="10" d="M 318.523438 271.792969 L 318.523438 226.34375 "/>
<path fill="none" stroke-width="1.066978" stroke-linecap="butt" stroke-linejoin="round" stroke="rgb(0%, 12.54902%, 30.196078%)" stroke-opacity="0.8" stroke-miterlimit="10" d="M 408.53125 22.859375 L 408.53125 187.117188 "/>
<path fill="none" stroke-width="1.066978" stroke-linecap="butt" stroke-linejoin="round" stroke="rgb(100%, 91.764706%, 27.45098%)" stroke-opacity="0.8" stroke-miterlimit="10" d="M 230.148438 266.207031 L 230.148438 264.859375 "/>
<path fill="none" stroke-width="1.066978" stroke-linecap="butt" stroke-linejoin="round" stroke="rgb(94.901961%, 85.490196%, 31.372549%)" stroke-opacity="0.8" stroke-miterlimit="10" d="M 210.898438 232.011719 L 210.898438 273.25 "/>
<path fill="none" stroke-width="1.066978" stroke-linecap="butt" stroke-linejoin="round" stroke="rgb(82.745098%, 75.686275%, 39.607843%)" stroke-opacity="0.8" stroke-miterlimit="10" d="M 151.492188 231.617188 L 151.492188 299.140625 "/>
<path fill="none" stroke-width="1.066978" stroke-linecap="butt" stroke-linejoin="round" stroke="rgb(100%, 90.588235%, 25.882353%)" stroke-opacity="0.8" stroke-miterlimit="10" d="M 364.382812 188.28125 L 364.382812 206.359375 "/>
<path fill="none" stroke-width="1.066978" stroke-linecap="butt" stroke-linejoin="round" stroke="rgb(94.117647%, 84.705882%, 32.156863%)" stroke-opacity="0.8" stroke-miterlimit="10" d="M 279.007812 286.644531 L 279.007812 243.566406 "/>
<path fill="none" stroke-width="1.066978" stroke-linecap="butt" stroke-linejoin="round" stroke="rgb(89.803922%, 81.568627%, 35.294118%)" stroke-opacity="0.8" stroke-miterlimit="10" d="M 363.347656 259.957031 L 363.347656 206.808594 "/>
<path fill="none" stroke-width="1.066978" stroke-linecap="butt" stroke-linejoin="round" stroke="rgb(98.431373%, 88.627451%, 28.235294%)" stroke-opacity="0.8" stroke-miterlimit="10" d="M 132.722656 278.386719 L 132.722656 307.320312 "/>
<path fill="none" stroke-width="1.066978" stroke-linecap="butt" stroke-linejoin="round" stroke="rgb(100%, 89.803922%, 26.666667%)" stroke-opacity="0.8" stroke-miterlimit="10" d="M 288.945312 262.675781 L 288.945312 239.234375 "/>
<path fill="none" stroke-width="1.066978" stroke-linecap="butt" stroke-linejoin="round" stroke="rgb(96.470588%, 86.666667%, 30.196078%)" stroke-opacity="0.8" stroke-miterlimit="10" d="M 150.726562 335.96875 L 150.726562 299.476562 "/>
<path fill="none" stroke-width="1.066978" stroke-linecap="butt" stroke-linejoin="round" stroke="rgb(54.901961%, 53.333333%, 47.45098%)" stroke-opacity="0.8" stroke-miterlimit="10" d="M 249.464844 147.847656 L 249.464844 256.441406 "/>
<path fill="none" stroke-width="1.066978" stroke-linecap="butt" stroke-linejoin="round" stroke="rgb(100%, 90.980392%, 26.27451%)" stroke-opacity="0.8" stroke-miterlimit="10" d="M 241.226562 245.175781 L 241.226562 260.03125 "/>
<path fill="none" stroke-width="1.066978" stroke-linecap="butt" stroke-linejoin="round" stroke="rgb(98.431373%, 88.627451%, 28.235294%)" stroke-opacity="0.8" stroke-miterlimit="10" d="M 225.152344 296.863281 L 225.152344 267.039062 "/>
<path fill="none" stroke-width="1.066978" stroke-linecap="butt" stroke-linejoin="round" stroke="rgb(33.72549%, 36.078431%, 42.745098%)" stroke-opacity="0.8" stroke-miterlimit="10" d="M 44.640625 480.058594 L 44.640625 345.710938 "/>
<path fill="none" stroke-width="1.066978" stroke-linecap="butt" stroke-linejoin="round" stroke="rgb(36.078431%, 38.039216%, 43.137255%)" stroke-opacity="0.8" stroke-miterlimit="10" d="M 106.582031 187.136719 L 106.582031 318.714844 "/>
<path fill="none" stroke-width="1.066978" stroke-linecap="butt" stroke-linejoin="round" stroke="rgb(67.45098%, 63.137255%, 45.490196%)" stroke-opacity="0.8" stroke-miterlimit="10" d="M 266.742188 340.878906 L 266.742188 248.914062 "/>
<path fill="none" stroke-width="1.066978" stroke-linecap="butt" stroke-linejoin="round" stroke="rgb(92.156863%, 83.137255%, 33.72549%)" stroke-opacity="0.8" stroke-miterlimit="10" d="M 330.535156 173.304688 L 330.535156 221.109375 "/>
<path fill="none" stroke-width="1.066978" stroke-linecap="butt" stroke-linejoin="round" stroke="rgb(76.078431%, 70.196078%, 42.745098%)" stroke-opacity="0.8" stroke-miterlimit="10" d="M 329.203125 142.507812 L 329.203125 221.691406 "/>
<path fill="none" stroke-width="1.066978" stroke-linecap="butt" stroke-linejoin="round" stroke="rgb(54.509804%, 52.941176%, 47.45098%)" stroke-opacity="0.8" stroke-miterlimit="10" d="M 182.535156 176.53125 L 182.535156 285.613281 "/>
<path fill="none" stroke-width="1.066978" stroke-linecap="butt" stroke-linejoin="round" stroke="rgb(100%, 91.372549%, 26.666667%)" stroke-opacity="0.8" stroke-miterlimit="10" d="M 277.105469 233.441406 L 277.105469 244.394531 "/>
<path fill="none" stroke-width="1.066978" stroke-linecap="butt" stroke-linejoin="round" stroke="rgb(98.431373%, 88.627451%, 28.235294%)" stroke-opacity="0.8" stroke-miterlimit="10" d="M 281.367188 213.628906 L 281.367188 242.539062 "/>
<path fill="none" stroke-width="1.066978" stroke-linecap="butt" stroke-linejoin="round" stroke="rgb(98.039216%, 88.235294%, 28.627451%)" stroke-opacity="0.8" stroke-miterlimit="10" d="M 154.128906 329.335938 L 154.128906 297.992188 "/>
<path fill="none" stroke-width="1.066978" stroke-linecap="butt" stroke-linejoin="round" stroke="rgb(98.039216%, 88.235294%, 28.627451%)" stroke-opacity="0.8" stroke-miterlimit="10" d="M 251.925781 286.894531 L 251.925781 255.371094 "/>
<path fill="none" stroke-width="1.066978" stroke-linecap="butt" stroke-linejoin="round" stroke="rgb(96.862745%, 87.058824%, 29.803922%)" stroke-opacity="0.8" stroke-miterlimit="10" d="M 284.769531 204.914062 L 284.769531 241.054688 "/>
<path fill="none" stroke-width="1.066978" stroke-linecap="butt" stroke-linejoin="round" stroke="rgb(92.54902%, 83.529412%, 33.333333%)" stroke-opacity="0.8" stroke-miterlimit="10" d="M 23.941406 402.011719 L 23.941406 354.734375 "/>
<path fill="none" stroke-width="1.066978" stroke-linecap="butt" stroke-linejoin="round" stroke="rgb(94.117647%, 84.705882%, 32.156863%)" stroke-opacity="0.8" stroke-miterlimit="10" d="M 276.359375 201.3125 L 276.359375 244.71875 "/>
<path fill="none" stroke-width="1.066978" stroke-linecap="butt" stroke-linejoin="round" stroke="rgb(92.941176%, 83.921569%, 32.941176%)" stroke-opacity="0.8" stroke-miterlimit="10" d="M 144.183594 256.398438 L 144.183594 302.328125 "/>
<path fill="none" stroke-width="1.066978" stroke-linecap="butt" stroke-linejoin="round" stroke="rgb(84.705882%, 77.254902%, 38.823529%)" stroke-opacity="0.8" stroke-miterlimit="10" d="M 147.894531 364.847656 L 147.894531 300.710938 "/>
<path fill="none" stroke-width="1.066978" stroke-linecap="butt" stroke-linejoin="round" stroke="rgb(81.176471%, 74.117647%, 40.392157%)" stroke-opacity="0.8" stroke-miterlimit="10" d="M 235.722656 191.640625 L 235.722656 262.429688 "/>
<path fill="none" stroke-width="1.066978" stroke-linecap="butt" stroke-linejoin="round" stroke="rgb(100%, 91.764706%, 27.45098%)" stroke-opacity="0.8" stroke-miterlimit="10" d="M 232.273438 267.703125 L 232.273438 263.933594 "/>
<path fill="none" stroke-width="1.066978" stroke-linecap="butt" stroke-linejoin="round" stroke="rgb(93.333333%, 84.313725%, 32.54902%)" stroke-opacity="0.8" stroke-miterlimit="10" d="M 193.679688 326.054688 L 193.679688 280.753906 "/>
<path fill="none" stroke-width="1.066978" stroke-linecap="butt" stroke-linejoin="round" stroke="rgb(98.823529%, 89.019608%, 27.843137%)" stroke-opacity="0.8" stroke-miterlimit="10" d="M 224.117188 295.234375 L 224.117188 267.488281 "/>
<path fill="none" stroke-width="1.066978" stroke-linecap="butt" stroke-linejoin="round" stroke="rgb(62.745098%, 59.607843%, 46.666667%)" stroke-opacity="0.8" stroke-miterlimit="10" d="M 285.375 338.917969 L 285.375 240.792969 "/>
<path fill="none" stroke-width="1.066978" stroke-linecap="butt" stroke-linejoin="round" stroke="rgb(100%, 91.372549%, 26.666667%)" stroke-opacity="0.8" stroke-miterlimit="10" d="M 138.125 314.605469 L 138.125 304.96875 "/>
<path fill="none" stroke-width="1.066978" stroke-linecap="butt" stroke-linejoin="round" stroke="rgb(89.019608%, 80.784314%, 36.078431%)" stroke-opacity="0.8" stroke-miterlimit="10" d="M 410.765625 241.816406 L 410.765625 186.144531 "/>
<path fill="none" stroke-width="1.066978" stroke-linecap="butt" stroke-linejoin="round" stroke="rgb(76.862745%, 70.980392%, 42.352941%)" stroke-opacity="0.8" stroke-miterlimit="10" d="M 166.1875 215.355469 L 166.1875 292.734375 "/>
<path fill="none" stroke-width="1.066978" stroke-linecap="butt" stroke-linejoin="round" stroke="rgb(90.588235%, 81.960784%, 34.901961%)" stroke-opacity="0.8" stroke-miterlimit="10" d="M 329.023438 169.796875 L 329.023438 221.769531 "/>
<path fill="none" stroke-width="1.066978" stroke-linecap="butt" stroke-linejoin="round" stroke="rgb(72.54902%, 67.45098%, 43.921569%)" stroke-opacity="0.8" stroke-miterlimit="10" d="M 130.398438 392.28125 L 130.398438 308.335938 "/>
<path fill="none" stroke-width="1.066978" stroke-linecap="butt" stroke-linejoin="round" stroke="rgb(48.235294%, 47.843137%, 47.058824%)" stroke-opacity="0.8" stroke-miterlimit="10" d="M 205.851562 158.6875 L 205.851562 275.449219 "/>
<path fill="none" stroke-width="1.066978" stroke-linecap="butt" stroke-linejoin="round" stroke="rgb(51.764706%, 50.980392%, 47.45098%)" stroke-opacity="0.8" stroke-miterlimit="10" d="M 216.550781 382.878906 L 216.550781 270.785156 "/>
<path fill="none" stroke-width="1.066978" stroke-linecap="butt" stroke-linejoin="round" stroke="rgb(77.647059%, 71.372549%, 41.960784%)" stroke-opacity="0.8" stroke-miterlimit="10" d="M 93.820312 247.738281 L 93.820312 324.277344 "/>
<path fill="none" stroke-width="1.066978" stroke-linecap="butt" stroke-linejoin="round" stroke="rgb(100%, 91.764706%, 27.45098%)" stroke-opacity="0.8" stroke-miterlimit="10" d="M 214.570312 268.746094 L 214.570312 271.652344 "/>
<path fill="none" stroke-width="1.066978" stroke-linecap="butt" stroke-linejoin="round" stroke="rgb(93.72549%, 84.313725%, 32.54902%)" stroke-opacity="0.8" stroke-miterlimit="10" d="M 257.214844 208.585938 L 257.214844 253.0625 "/>
<path fill="none" stroke-width="1.066978" stroke-linecap="butt" stroke-linejoin="round" stroke="rgb(72.941176%, 67.843137%, 43.921569%)" stroke-opacity="0.8" stroke-miterlimit="10" d="M 278.804688 327.367188 L 278.804688 243.65625 "/>
<path fill="none" stroke-width="1.066978" stroke-linecap="butt" stroke-linejoin="round" stroke="rgb(97.647059%, 87.843137%, 29.019608%)" stroke-opacity="0.8" stroke-miterlimit="10" d="M 266.148438 281.75 L 266.148438 249.171875 "/>
<path fill="none" stroke-width="1.066978" stroke-linecap="butt" stroke-linejoin="round" stroke="rgb(85.882353%, 78.039216%, 38.039216%)" stroke-opacity="0.8" stroke-miterlimit="10" d="M 213.375 333.804688 L 213.375 272.171875 "/>
<path fill="none" stroke-width="1.066978" stroke-linecap="butt" stroke-linejoin="round" stroke="rgb(77.254902%, 70.980392%, 42.352941%)" stroke-opacity="0.8" stroke-miterlimit="10" d="M 174.5 212.140625 L 174.5 289.113281 "/>
<path fill="none" stroke-width="1.066978" stroke-linecap="butt" stroke-linejoin="round" stroke="rgb(98.823529%, 88.627451%, 27.843137%)" stroke-opacity="0.8" stroke-miterlimit="10" d="M 153.527344 326.753906 L 153.527344 298.253906 "/>
<path fill="none" stroke-width="1.066978" stroke-linecap="butt" stroke-linejoin="round" stroke="rgb(100%, 91.372549%, 26.666667%)" stroke-opacity="0.8" stroke-miterlimit="10" d="M 148.210938 289.839844 L 148.210938 300.570312 "/>
<path fill="none" stroke-width="1.066978" stroke-linecap="butt" stroke-linejoin="round" stroke="rgb(100%, 91.372549%, 26.666667%)" stroke-opacity="0.8" stroke-miterlimit="10" d="M 212.140625 262.8125 L 212.140625 272.710938 "/>
<path fill="none" stroke-width="1.066978" stroke-linecap="butt" stroke-linejoin="round" stroke="rgb(100%, 90.196078%, 25.882353%)" stroke-opacity="0.8" stroke-miterlimit="10" d="M 290.425781 258.230469 L 290.425781 238.589844 "/>
<path fill="none" stroke-width="1.066978" stroke-linecap="butt" stroke-linejoin="round" stroke="rgb(44.705882%, 44.705882%, 45.490196%)" stroke-opacity="0.8" stroke-miterlimit="10" d="M 211.058594 394.953125 L 211.058594 273.179688 "/>
<path fill="none" stroke-width="1.066978" stroke-linecap="butt" stroke-linejoin="round" stroke="rgb(96.078431%, 86.27451%, 30.588235%)" stroke-opacity="0.8" stroke-miterlimit="10" d="M 335.578125 180.898438 L 335.578125 218.910156 "/>
<path fill="none" stroke-width="1.066978" stroke-linecap="butt" stroke-linejoin="round" stroke="rgb(70.588235%, 65.882353%, 44.705882%)" stroke-opacity="0.8" stroke-miterlimit="10" d="M 139.917969 216.871094 L 139.917969 304.1875 "/>
<path fill="none" stroke-width="1.066978" stroke-linecap="butt" stroke-linejoin="round" stroke="rgb(100%, 91.764706%, 27.058824%)" stroke-opacity="0.8" stroke-miterlimit="10" d="M 183.445312 290.871094 L 183.445312 285.214844 "/>
<path fill="none" stroke-width="1.066978" stroke-linecap="butt" stroke-linejoin="round" stroke="rgb(100%, 91.372549%, 26.666667%)" stroke-opacity="0.8" stroke-miterlimit="10" d="M 269.839844 237.546875 L 269.839844 247.5625 "/>
<path fill="none" stroke-width="1.066978" stroke-linecap="butt" stroke-linejoin="round" stroke="rgb(100%, 90.196078%, 25.882353%)" stroke-opacity="0.8" stroke-miterlimit="10" d="M 313.609375 208.882812 L 313.609375 228.484375 "/>
<path fill="none" stroke-width="1.066978" stroke-linecap="butt" stroke-linejoin="round" stroke="rgb(100%, 90.196078%, 25.882353%)" stroke-opacity="0.8" stroke-miterlimit="10" d="M 481.140625 135.9375 L 481.140625 155.472656 "/>
<path fill="none" stroke-width="1.066978" stroke-linecap="butt" stroke-linejoin="round" stroke="rgb(100%, 91.372549%, 27.058824%)" stroke-opacity="0.8" stroke-miterlimit="10" d="M 62.230469 330.042969 L 62.230469 338.042969 "/>
<path fill="none" stroke-width="1.066978" stroke-linecap="butt" stroke-linejoin="round" stroke="rgb(100%, 91.372549%, 26.666667%)" stroke-opacity="0.8" stroke-miterlimit="10" d="M 95.292969 314.003906 L 95.292969 323.632812 "/>
<path fill="none" stroke-width="1.066978" stroke-linecap="butt" stroke-linejoin="round" stroke="rgb(90.980392%, 82.352941%, 34.901961%)" stroke-opacity="0.8" stroke-miterlimit="10" d="M 211.753906 221.25 L 211.753906 272.878906 "/>
<path fill="none" stroke-width="1.066978" stroke-linecap="butt" stroke-linejoin="round" stroke="rgb(31.764706%, 34.509804%, 42.352941%)" stroke-opacity="0.8" stroke-miterlimit="10" d="M 153.585938 161.601562 L 153.585938 298.230469 "/>
<path fill="none" stroke-width="1.066978" stroke-linecap="butt" stroke-linejoin="round" stroke="rgb(99.607843%, 89.411765%, 27.058824%)" stroke-opacity="0.8" stroke-miterlimit="10" d="M 93.136719 298.398438 L 93.136719 324.574219 "/>
<path fill="none" stroke-width="1.066978" stroke-linecap="butt" stroke-linejoin="round" stroke="rgb(100%, 89.803922%, 26.666667%)" stroke-opacity="0.8" stroke-miterlimit="10" d="M 41.664062 323.996094 L 41.664062 347.007812 "/>
<path fill="none" stroke-width="1.066978" stroke-linecap="butt" stroke-linejoin="round" stroke="rgb(42.352941%, 42.745098%, 44.705882%)" stroke-opacity="0.8" stroke-miterlimit="10" d="M 175.875 413.023438 L 175.875 288.515625 "/>
<path fill="none" stroke-width="1.066978" stroke-linecap="butt" stroke-linejoin="round" stroke="rgb(92.941176%, 83.921569%, 32.941176%)" stroke-opacity="0.8" stroke-miterlimit="10" d="M 274.222656 292.164062 L 274.222656 245.652344 "/>
<path fill="none" stroke-width="1.066978" stroke-linecap="butt" stroke-linejoin="round" stroke="rgb(95.294118%, 85.882353%, 30.980392%)" stroke-opacity="0.8" stroke-miterlimit="10" d="M 230.183594 225.371094 L 230.183594 264.84375 "/>
<path fill="none" stroke-width="1.066978" stroke-linecap="butt" stroke-linejoin="round" stroke="rgb(100%, 90.980392%, 26.27451%)" stroke-opacity="0.8" stroke-miterlimit="10" d="M 253.789062 270.835938 L 253.789062 254.558594 "/>
<path fill="none" stroke-width="1.066978" stroke-linecap="butt" stroke-linejoin="round" stroke="rgb(96.862745%, 87.058824%, 29.803922%)" stroke-opacity="0.8" stroke-miterlimit="10" d="M 208.765625 237.816406 L 208.765625 274.179688 "/>
<path fill="none" stroke-width="1.066978" stroke-linecap="butt" stroke-linejoin="round" stroke="rgb(70.980392%, 66.27451%, 44.313725%)" stroke-opacity="0.8" stroke-miterlimit="10" d="M 186.484375 197.246094 L 186.484375 283.890625 "/>
<path fill="none" stroke-width="1.066978" stroke-linecap="butt" stroke-linejoin="round" stroke="rgb(74.901961%, 69.019608%, 43.137255%)" stroke-opacity="0.8" stroke-miterlimit="10" d="M 184.761719 365.8125 L 184.761719 284.640625 "/>
<path fill="none" stroke-width="1.066978" stroke-linecap="butt" stroke-linejoin="round" stroke="rgb(50.196078%, 49.411765%, 47.45098%)" stroke-opacity="0.8" stroke-miterlimit="10" d="M 221.371094 383.082031 L 221.371094 268.6875 "/>
<path fill="none" stroke-width="1.066978" stroke-linecap="butt" stroke-linejoin="round" stroke="rgb(39.215686%, 40.392157%, 43.921569%)" stroke-opacity="0.8" stroke-miterlimit="10" d="M 255.261719 125.726562 L 255.261719 253.914062 "/>
<path fill="none" stroke-width="1.066978" stroke-linecap="butt" stroke-linejoin="round" stroke="rgb(41.960784%, 42.352941%, 44.313725%)" stroke-opacity="0.8" stroke-miterlimit="10" d="M 207.820312 399.867188 L 207.820312 274.589844 "/>
<path fill="none" stroke-width="1.066978" stroke-linecap="butt" stroke-linejoin="round" stroke="rgb(47.45098%, 47.45098%, 46.666667%)" stroke-opacity="0.8" stroke-miterlimit="10" d="M 81.855469 211.753906 L 81.855469 329.492188 "/>
<path fill="none" stroke-width="1.066978" stroke-linecap="butt" stroke-linejoin="round" stroke="rgb(98.431373%, 88.627451%, 28.235294%)" stroke-opacity="0.8" stroke-miterlimit="10" d="M 167.671875 321.132812 L 167.671875 292.089844 "/>
<path fill="none" stroke-width="1.066978" stroke-linecap="butt" stroke-linejoin="round" stroke="rgb(85.490196%, 77.647059%, 38.039216%)" stroke-opacity="0.8" stroke-miterlimit="10" d="M 208.507812 336.597656 L 208.507812 274.292969 "/>
<path fill="none" stroke-width="1.066978" stroke-linecap="butt" stroke-linejoin="round" stroke="rgb(57.254902%, 55.294118%, 47.058824%)" stroke-opacity="0.8" stroke-miterlimit="10" d="M 194.964844 174.609375 L 194.964844 280.195312 "/>
<path fill="none" stroke-width="1.066978" stroke-linecap="butt" stroke-linejoin="round" stroke="rgb(89.019608%, 80.784314%, 36.078431%)" stroke-opacity="0.8" stroke-miterlimit="10" d="M 240.117188 205.519531 L 240.117188 260.515625 "/>
<path fill="none" stroke-width="1.066978" stroke-linecap="butt" stroke-linejoin="round" stroke="rgb(63.529412%, 60.392157%, 46.27451%)" stroke-opacity="0.8" stroke-miterlimit="10" d="M 315.925781 324.304688 L 315.925781 227.476562 "/>
<path fill="none" stroke-width="1.066978" stroke-linecap="butt" stroke-linejoin="round" stroke="rgb(57.254902%, 55.294118%, 47.058824%)" stroke-opacity="0.8" stroke-miterlimit="10" d="M 183.082031 390.679688 L 183.082031 285.375 "/>
<path fill="none" stroke-width="1.066978" stroke-linecap="butt" stroke-linejoin="round" stroke="rgb(29.803922%, 32.941176%, 42.352941%)" stroke-opacity="0.8" stroke-miterlimit="10" d="M 194.433594 418.960938 L 194.433594 280.425781 "/>
<path fill="none" stroke-width="1.066978" stroke-linecap="butt" stroke-linejoin="round" stroke="rgb(90.588235%, 81.960784%, 34.901961%)" stroke-opacity="0.8" stroke-miterlimit="10" d="M 108.75 369.84375 L 108.75 317.769531 "/>
<path fill="none" stroke-width="1.066978" stroke-linecap="butt" stroke-linejoin="round" stroke="rgb(0%, 16.078431%, 38.039216%)" stroke-opacity="0.8" stroke-miterlimit="10" d="M 176.542969 448.597656 L 176.542969 288.222656 "/>
<path fill="none" stroke-width="1.066978" stroke-linecap="butt" stroke-linejoin="round" stroke="rgb(41.568627%, 42.352941%, 44.313725%)" stroke-opacity="0.8" stroke-miterlimit="10" d="M 276.796875 119.101562 L 276.796875 244.53125 "/>
<path fill="none" stroke-width="1.066978" stroke-linecap="butt" stroke-linejoin="round" stroke="rgb(95.294118%, 85.882353%, 30.980392%)" stroke-opacity="0.8" stroke-miterlimit="10" d="M 380.671875 239.367188 L 380.671875 199.257812 "/>
<path fill-rule="nonzero" fill="rgb(18.431373%, 30.980392%, 30.980392%)" fill-opacity="0.901961" stroke-width="0.708661" stroke-linecap="round" stroke-linejoin="round" stroke="rgb(18.431373%, 30.980392%, 30.980392%)" stroke-opacity="0.901961" stroke-miterlimit="10" d="M 251.890625 272.992188 C 251.890625 276.132812 249.34375 278.679688 246.199219 278.679688 C 243.058594 278.679688 240.511719 276.132812 240.511719 272.992188 C 240.511719 269.847656 243.058594 267.300781 246.199219 267.300781 C 249.34375 267.300781 251.890625 269.847656 251.890625 272.992188 "/>
<path fill-rule="nonzero" fill="rgb(18.431373%, 30.980392%, 30.980392%)" fill-opacity="0.901961" stroke-width="0.708661" stroke-linecap="round" stroke-linejoin="round" stroke="rgb(18.431373%, 30.980392%, 30.980392%)" stroke-opacity="0.901961" stroke-miterlimit="10" d="M 181.789062 243.382812 C 181.789062 246.527344 179.242188 249.074219 176.097656 249.074219 C 172.957031 249.074219 170.410156 246.527344 170.410156 243.382812 C 170.410156 240.242188 172.957031 237.695312 176.097656 237.695312 C 179.242188 237.695312 181.789062 240.242188 181.789062 243.382812 "/>
<path fill-rule="nonzero" fill="rgb(18.431373%, 30.980392%, 30.980392%)" fill-opacity="0.901961" stroke-width="0.708661" stroke-linecap="round" stroke-linejoin="round" stroke="rgb(18.431373%, 30.980392%, 30.980392%)" stroke-opacity="0.901961" stroke-miterlimit="10" d="M 218 233.589844 C 218 236.730469 215.453125 239.277344 212.308594 239.277344 C 209.167969 239.277344 206.621094 236.730469 206.621094 233.589844 C 206.621094 230.445312 209.167969 227.898438 212.308594 227.898438 C 215.453125 227.898438 218 230.445312 218 233.589844 "/>
<path fill-rule="nonzero" fill="rgb(18.431373%, 30.980392%, 30.980392%)" fill-opacity="0.901961" stroke-width="0.708661" stroke-linecap="round" stroke-linejoin="round" stroke="rgb(18.431373%, 30.980392%, 30.980392%)" stroke-opacity="0.901961" stroke-miterlimit="10" d="M 385.378906 216.25 C 385.378906 219.390625 382.832031 221.9375 379.691406 221.9375 C 376.550781 221.9375 374 219.390625 374 216.25 C 374 213.109375 376.550781 210.558594 379.691406 210.558594 C 382.832031 210.558594 385.378906 213.109375 385.378906 216.25 "/>
<path fill-rule="nonzero" fill="rgb(18.431373%, 30.980392%, 30.980392%)" fill-opacity="0.901961" stroke-width="0.708661" stroke-linecap="round" stroke-linejoin="round" stroke="rgb(18.431373%, 30.980392%, 30.980392%)" stroke-opacity="0.901961" stroke-miterlimit="10" d="M 262.933594 243.855469 C 262.933594 247 260.386719 249.546875 257.246094 249.546875 C 254.101562 249.546875 251.554688 247 251.554688 243.855469 C 251.554688 240.714844 254.101562 238.167969 257.246094 238.167969 C 260.386719 238.167969 262.933594 240.714844 262.933594 243.855469 "/>
<path fill-rule="nonzero" fill="rgb(18.431373%, 30.980392%, 30.980392%)" fill-opacity="0.901961" stroke-width="0.708661" stroke-linecap="round" stroke-linejoin="round" stroke="rgb(18.431373%, 30.980392%, 30.980392%)" stroke-opacity="0.901961" stroke-miterlimit="10" d="M 301.4375 252.324219 C 301.4375 255.464844 298.890625 258.011719 295.746094 258.011719 C 292.605469 258.011719 290.058594 255.464844 290.058594 252.324219 C 290.058594 249.179688 292.605469 246.632812 295.746094 246.632812 C 298.890625 246.632812 301.4375 249.179688 301.4375 252.324219 "/>
<path fill-rule="nonzero" fill="rgb(18.431373%, 30.980392%, 30.980392%)" fill-opacity="0.901961" stroke-width="0.708661" stroke-linecap="round" stroke-linejoin="round" stroke="rgb(18.431373%, 30.980392%, 30.980392%)" stroke-opacity="0.901961" stroke-miterlimit="10" d="M 198.859375 216.742188 C 198.859375 219.882812 196.3125 222.429688 193.171875 222.429688 C 190.03125 222.429688 187.480469 219.882812 187.480469 216.742188 C 187.480469 213.601562 190.03125 211.050781 193.171875 211.050781 C 196.3125 211.050781 198.859375 213.601562 198.859375 216.742188 "/>
<path fill-rule="nonzero" fill="rgb(18.431373%, 30.980392%, 30.980392%)" fill-opacity="0.901961" stroke-width="0.708661" stroke-linecap="round" stroke-linejoin="round" stroke="rgb(18.431373%, 30.980392%, 30.980392%)" stroke-opacity="0.901961" stroke-miterlimit="10" d="M 140.886719 225.496094 C 140.886719 228.640625 138.339844 231.1875 135.199219 231.1875 C 132.054688 231.1875 129.507812 228.640625 129.507812 225.496094 C 129.507812 222.355469 132.054688 219.808594 135.199219 219.808594 C 138.339844 219.808594 140.886719 222.355469 140.886719 225.496094 "/>
<path fill-rule="nonzero" fill="rgb(18.431373%, 30.980392%, 30.980392%)" fill-opacity="0.901961" stroke-width="0.708661" stroke-linecap="round" stroke-linejoin="round" stroke="rgb(18.431373%, 30.980392%, 30.980392%)" stroke-opacity="0.901961" stroke-miterlimit="10" d="M 225.5625 261.660156 C 225.5625 264.804688 223.015625 267.351562 219.875 267.351562 C 216.730469 267.351562 214.183594 264.804688 214.183594 261.660156 C 214.183594 258.519531 216.730469 255.972656 219.875 255.972656 C 223.015625 255.972656 225.5625 258.519531 225.5625 261.660156 "/>
<path fill-rule="nonzero" fill="rgb(18.431373%, 30.980392%, 30.980392%)" fill-opacity="0.901961" stroke-width="0.708661" stroke-linecap="round" stroke-linejoin="round" stroke="rgb(18.431373%, 30.980392%, 30.980392%)" stroke-opacity="0.901961" stroke-miterlimit="10" d="M 256.605469 343.054688 C 256.605469 346.195312 254.058594 348.742188 250.917969 348.742188 C 247.773438 348.742188 245.226562 346.195312 245.226562 343.054688 C 245.226562 339.910156 247.773438 337.363281 250.917969 337.363281 C 254.058594 337.363281 256.605469 339.910156 256.605469 343.054688 "/>
<path fill-rule="nonzero" fill="rgb(18.431373%, 30.980392%, 30.980392%)" fill-opacity="0.901961" stroke-width="0.708661" stroke-linecap="round" stroke-linejoin="round" stroke="rgb(18.431373%, 30.980392%, 30.980392%)" stroke-opacity="0.901961" stroke-miterlimit="10" d="M 192.554688 348.015625 C 192.554688 351.160156 190.007812 353.707031 186.867188 353.707031 C 183.726562 353.707031 181.179688 351.160156 181.179688 348.015625 C 181.179688 344.875 183.726562 342.328125 186.867188 342.328125 C 190.007812 342.328125 192.554688 344.875 192.554688 348.015625 "/>
<path fill-rule="nonzero" fill="rgb(18.431373%, 30.980392%, 30.980392%)" fill-opacity="0.901961" stroke-width="0.708661" stroke-linecap="round" stroke-linejoin="round" stroke="rgb(18.431373%, 30.980392%, 30.980392%)" stroke-opacity="0.901961" stroke-miterlimit="10" d="M 322.121094 225.039062 C 322.121094 228.179688 319.574219 230.726562 316.433594 230.726562 C 313.289062 230.726562 310.742188 228.179688 310.742188 225.039062 C 310.742188 221.894531 313.289062 219.347656 316.433594 219.347656 C 319.574219 219.347656 322.121094 221.894531 322.121094 225.039062 "/>
<path fill-rule="nonzero" fill="rgb(18.431373%, 30.980392%, 30.980392%)" fill-opacity="0.901961" stroke-width="0.708661" stroke-linecap="round" stroke-linejoin="round" stroke="rgb(18.431373%, 30.980392%, 30.980392%)" stroke-opacity="0.901961" stroke-miterlimit="10" d="M 228.4375 339.949219 C 228.4375 343.09375 225.890625 345.640625 222.75 345.640625 C 219.609375 345.640625 217.0625 343.09375 217.0625 339.949219 C 217.0625 336.808594 219.609375 334.261719 222.75 334.261719 C 225.890625 334.261719 228.4375 336.808594 228.4375 339.949219 "/>
<path fill-rule="nonzero" fill="rgb(18.431373%, 30.980392%, 30.980392%)" fill-opacity="0.901961" stroke-width="0.708661" stroke-linecap="round" stroke-linejoin="round" stroke="rgb(18.431373%, 30.980392%, 30.980392%)" stroke-opacity="0.901961" stroke-miterlimit="10" d="M 324.214844 271.792969 C 324.214844 274.933594 321.667969 277.480469 318.523438 277.480469 C 315.382812 277.480469 312.835938 274.933594 312.835938 271.792969 C 312.835938 268.648438 315.382812 266.101562 318.523438 266.101562 C 321.667969 266.101562 324.214844 268.648438 324.214844 271.792969 "/>
<path fill-rule="nonzero" fill="rgb(18.431373%, 30.980392%, 30.980392%)" fill-opacity="0.901961" stroke-width="0.708661" stroke-linecap="round" stroke-linejoin="round" stroke="rgb(18.431373%, 30.980392%, 30.980392%)" stroke-opacity="0.901961" stroke-miterlimit="10" d="M 414.21875 22.859375 C 414.21875 26.003906 411.671875 28.550781 408.53125 28.550781 C 405.390625 28.550781 402.84375 26.003906 402.84375 22.859375 C 402.84375 19.71875 405.390625 17.171875 408.53125 17.171875 C 411.671875 17.171875 414.21875 19.71875 414.21875 22.859375 "/>
<path fill-rule="nonzero" fill="rgb(18.431373%, 30.980392%, 30.980392%)" fill-opacity="0.901961" stroke-width="0.708661" stroke-linecap="round" stroke-linejoin="round" stroke="rgb(18.431373%, 30.980392%, 30.980392%)" stroke-opacity="0.901961" stroke-miterlimit="10" d="M 235.835938 266.207031 C 235.835938 269.347656 233.289062 271.894531 230.148438 271.894531 C 227.003906 271.894531 224.457031 269.347656 224.457031 266.207031 C 224.457031 263.0625 227.003906 260.515625 230.148438 260.515625 C 233.289062 260.515625 235.835938 263.0625 235.835938 266.207031 "/>
<path fill-rule="nonzero" fill="rgb(18.431373%, 30.980392%, 30.980392%)" fill-opacity="0.901961" stroke-width="0.708661" stroke-linecap="round" stroke-linejoin="round" stroke="rgb(18.431373%, 30.980392%, 30.980392%)" stroke-opacity="0.901961" stroke-miterlimit="10" d="M 216.585938 232.011719 C 216.585938 235.15625 214.039062 237.703125 210.898438 237.703125 C 207.753906 237.703125 205.207031 235.15625 205.207031 232.011719 C 205.207031 228.871094 207.753906 226.324219 210.898438 226.324219 C 214.039062 226.324219 216.585938 228.871094 216.585938 232.011719 "/>
<path fill-rule="nonzero" fill="rgb(18.431373%, 30.980392%, 30.980392%)" fill-opacity="0.901961" stroke-width="0.708661" stroke-linecap="round" stroke-linejoin="round" stroke="rgb(18.431373%, 30.980392%, 30.980392%)" stroke-opacity="0.901961" stroke-miterlimit="10" d="M 157.183594 231.617188 C 157.183594 234.757812 154.636719 237.304688 151.492188 237.304688 C 148.351562 237.304688 145.804688 234.757812 145.804688 231.617188 C 145.804688 228.472656 148.351562 225.925781 151.492188 225.925781 C 154.636719 225.925781 157.183594 228.472656 157.183594 231.617188 "/>
<path fill-rule="nonzero" fill="rgb(18.431373%, 30.980392%, 30.980392%)" fill-opacity="0.901961" stroke-width="0.708661" stroke-linecap="round" stroke-linejoin="round" stroke="rgb(18.431373%, 30.980392%, 30.980392%)" stroke-opacity="0.901961" stroke-miterlimit="10" d="M 370.070312 188.28125 C 370.070312 191.421875 367.523438 193.96875 364.382812 193.96875 C 361.242188 193.96875 358.695312 191.421875 358.695312 188.28125 C 358.695312 185.136719 361.242188 182.589844 364.382812 182.589844 C 367.523438 182.589844 370.070312 185.136719 370.070312 188.28125 "/>
<path fill-rule="nonzero" fill="rgb(18.431373%, 30.980392%, 30.980392%)" fill-opacity="0.901961" stroke-width="0.708661" stroke-linecap="round" stroke-linejoin="round" stroke="rgb(18.431373%, 30.980392%, 30.980392%)" stroke-opacity="0.901961" stroke-miterlimit="10" d="M 284.695312 286.644531 C 284.695312 289.785156 282.148438 292.332031 279.007812 292.332031 C 275.863281 292.332031 273.316406 289.785156 273.316406 286.644531 C 273.316406 283.5 275.863281 280.953125 279.007812 280.953125 C 282.148438 280.953125 284.695312 283.5 284.695312 286.644531 "/>
<path fill-rule="nonzero" fill="rgb(18.431373%, 30.980392%, 30.980392%)" fill-opacity="0.901961" stroke-width="0.708661" stroke-linecap="round" stroke-linejoin="round" stroke="rgb(18.431373%, 30.980392%, 30.980392%)" stroke-opacity="0.901961" stroke-miterlimit="10" d="M 369.039062 259.957031 C 369.039062 263.101562 366.492188 265.648438 363.347656 265.648438 C 360.207031 265.648438 357.660156 263.101562 357.660156 259.957031 C 357.660156 256.816406 360.207031 254.269531 363.347656 254.269531 C 366.492188 254.269531 369.039062 256.816406 369.039062 259.957031 "/>
<path fill-rule="nonzero" fill="rgb(18.431373%, 30.980392%, 30.980392%)" fill-opacity="0.901961" stroke-width="0.708661" stroke-linecap="round" stroke-linejoin="round" stroke="rgb(18.431373%, 30.980392%, 30.980392%)" stroke-opacity="0.901961" stroke-miterlimit="10" d="M 138.410156 278.386719 C 138.410156 281.527344 135.863281 284.074219 132.722656 284.074219 C 129.578125 284.074219 127.03125 281.527344 127.03125 278.386719 C 127.03125 275.242188 129.578125 272.695312 132.722656 272.695312 C 135.863281 272.695312 138.410156 275.242188 138.410156 278.386719 "/>
<path fill-rule="nonzero" fill="rgb(18.431373%, 30.980392%, 30.980392%)" fill-opacity="0.901961" stroke-width="0.708661" stroke-linecap="round" stroke-linejoin="round" stroke="rgb(18.431373%, 30.980392%, 30.980392%)" stroke-opacity="0.901961" stroke-miterlimit="10" d="M 294.636719 262.675781 C 294.636719 265.820312 292.089844 268.367188 288.945312 268.367188 C 285.804688 268.367188 283.257812 265.820312 283.257812 262.675781 C 283.257812 259.535156 285.804688 256.988281 288.945312 256.988281 C 292.089844 256.988281 294.636719 259.535156 294.636719 262.675781 "/>
<path fill-rule="nonzero" fill="rgb(18.431373%, 30.980392%, 30.980392%)" fill-opacity="0.901961" stroke-width="0.708661" stroke-linecap="round" stroke-linejoin="round" stroke="rgb(18.431373%, 30.980392%, 30.980392%)" stroke-opacity="0.901961" stroke-miterlimit="10" d="M 156.414062 335.96875 C 156.414062 339.109375 153.867188 341.65625 150.726562 341.65625 C 147.585938 341.65625 145.039062 339.109375 145.039062 335.96875 C 145.039062 332.824219 147.585938 330.277344 150.726562 330.277344 C 153.867188 330.277344 156.414062 332.824219 156.414062 335.96875 "/>
<path fill-rule="nonzero" fill="rgb(18.431373%, 30.980392%, 30.980392%)" fill-opacity="0.901961" stroke-width="0.708661" stroke-linecap="round" stroke-linejoin="round" stroke="rgb(18.431373%, 30.980392%, 30.980392%)" stroke-opacity="0.901961" stroke-miterlimit="10" d="M 255.15625 147.847656 C 255.15625 150.988281 252.609375 153.535156 249.464844 153.535156 C 246.324219 153.535156 243.777344 150.988281 243.777344 147.847656 C 243.777344 144.703125 246.324219 142.15625 249.464844 142.15625 C 252.609375 142.15625 255.15625 144.703125 255.15625 147.847656 "/>
<path fill-rule="nonzero" fill="rgb(18.431373%, 30.980392%, 30.980392%)" fill-opacity="0.901961" stroke-width="0.708661" stroke-linecap="round" stroke-linejoin="round" stroke="rgb(18.431373%, 30.980392%, 30.980392%)" stroke-opacity="0.901961" stroke-miterlimit="10" d="M 246.917969 245.175781 C 246.917969 248.320312 244.371094 250.867188 241.226562 250.867188 C 238.085938 250.867188 235.539062 248.320312 235.539062 245.175781 C 235.539062 242.035156 238.085938 239.488281 241.226562 239.488281 C 244.371094 239.488281 246.917969 242.035156 246.917969 245.175781 "/>
<path fill-rule="nonzero" fill="rgb(18.431373%, 30.980392%, 30.980392%)" fill-opacity="0.901961" stroke-width="0.708661" stroke-linecap="round" stroke-linejoin="round" stroke="rgb(18.431373%, 30.980392%, 30.980392%)" stroke-opacity="0.901961" stroke-miterlimit="10" d="M 230.84375 296.863281 C 230.84375 300.003906 228.296875 302.550781 225.152344 302.550781 C 222.011719 302.550781 219.464844 300.003906 219.464844 296.863281 C 219.464844 293.71875 222.011719 291.171875 225.152344 291.171875 C 228.296875 291.171875 230.84375 293.71875 230.84375 296.863281 "/>
<path fill-rule="nonzero" fill="rgb(18.431373%, 30.980392%, 30.980392%)" fill-opacity="0.901961" stroke-width="0.708661" stroke-linecap="round" stroke-linejoin="round" stroke="rgb(18.431373%, 30.980392%, 30.980392%)" stroke-opacity="0.901961" stroke-miterlimit="10" d="M 50.328125 480.058594 C 50.328125 483.203125 47.78125 485.75 44.640625 485.75 C 41.496094 485.75 38.949219 483.203125 38.949219 480.058594 C 38.949219 476.917969 41.496094 474.371094 44.640625 474.371094 C 47.78125 474.371094 50.328125 476.917969 50.328125 480.058594 "/>
<path fill-rule="nonzero" fill="rgb(18.431373%, 30.980392%, 30.980392%)" fill-opacity="0.901961" stroke-width="0.708661" stroke-linecap="round" stroke-linejoin="round" stroke="rgb(18.431373%, 30.980392%, 30.980392%)" stroke-opacity="0.901961" stroke-miterlimit="10" d="M 112.269531 187.136719 C 112.269531 190.28125 109.722656 192.828125 106.582031 192.828125 C 103.441406 192.828125 100.894531 190.28125 100.894531 187.136719 C 100.894531 183.996094 103.441406 181.449219 106.582031 181.449219 C 109.722656 181.449219 112.269531 183.996094 112.269531 187.136719 "/>
<path fill-rule="nonzero" fill="rgb(18.431373%, 30.980392%, 30.980392%)" fill-opacity="0.901961" stroke-width="0.708661" stroke-linecap="round" stroke-linejoin="round" stroke="rgb(18.431373%, 30.980392%, 30.980392%)" stroke-opacity="0.901961" stroke-miterlimit="10" d="M 272.429688 340.878906 C 272.429688 344.023438 269.882812 346.570312 266.742188 346.570312 C 263.597656 346.570312 261.050781 344.023438 261.050781 340.878906 C 261.050781 337.738281 263.597656 335.191406 266.742188 335.191406 C 269.882812 335.191406 272.429688 337.738281 272.429688 340.878906 "/>
<path fill-rule="nonzero" fill="rgb(18.431373%, 30.980392%, 30.980392%)" fill-opacity="0.901961" stroke-width="0.708661" stroke-linecap="round" stroke-linejoin="round" stroke="rgb(18.431373%, 30.980392%, 30.980392%)" stroke-opacity="0.901961" stroke-miterlimit="10" d="M 336.222656 173.304688 C 336.222656 176.445312 333.675781 178.992188 330.535156 178.992188 C 327.390625 178.992188 324.84375 176.445312 324.84375 173.304688 C 324.84375 170.164062 327.390625 167.617188 330.535156 167.617188 C 333.675781 167.617188 336.222656 170.164062 336.222656 173.304688 "/>
<path fill-rule="nonzero" fill="rgb(18.431373%, 30.980392%, 30.980392%)" fill-opacity="0.901961" stroke-width="0.708661" stroke-linecap="round" stroke-linejoin="round" stroke="rgb(18.431373%, 30.980392%, 30.980392%)" stroke-opacity="0.901961" stroke-miterlimit="10" d="M 334.894531 142.507812 C 334.894531 145.648438 332.347656 148.195312 329.203125 148.195312 C 326.0625 148.195312 323.515625 145.648438 323.515625 142.507812 C 323.515625 139.363281 326.0625 136.816406 329.203125 136.816406 C 332.347656 136.816406 334.894531 139.363281 334.894531 142.507812 "/>
<path fill-rule="nonzero" fill="rgb(18.431373%, 30.980392%, 30.980392%)" fill-opacity="0.901961" stroke-width="0.708661" stroke-linecap="round" stroke-linejoin="round" stroke="rgb(18.431373%, 30.980392%, 30.980392%)" stroke-opacity="0.901961" stroke-miterlimit="10" d="M 188.222656 176.53125 C 188.222656 179.671875 185.675781 182.21875 182.535156 182.21875 C 179.394531 182.21875 176.84375 179.671875 176.84375 176.53125 C 176.84375 173.386719 179.394531 170.839844 182.535156 170.839844 C 185.675781 170.839844 188.222656 173.386719 188.222656 176.53125 "/>
<path fill-rule="nonzero" fill="rgb(18.431373%, 30.980392%, 30.980392%)" fill-opacity="0.901961" stroke-width="0.708661" stroke-linecap="round" stroke-linejoin="round" stroke="rgb(18.431373%, 30.980392%, 30.980392%)" stroke-opacity="0.901961" stroke-miterlimit="10" d="M 282.796875 233.441406 C 282.796875 236.582031 280.25 239.128906 277.105469 239.128906 C 273.964844 239.128906 271.417969 236.582031 271.417969 233.441406 C 271.417969 230.300781 273.964844 227.753906 277.105469 227.753906 C 280.25 227.753906 282.796875 230.300781 282.796875 233.441406 "/>
<path fill-rule="nonzero" fill="rgb(18.431373%, 30.980392%, 30.980392%)" fill-opacity="0.901961" stroke-width="0.708661" stroke-linecap="round" stroke-linejoin="round" stroke="rgb(18.431373%, 30.980392%, 30.980392%)" stroke-opacity="0.901961" stroke-miterlimit="10" d="M 287.054688 213.628906 C 287.054688 216.773438 284.507812 219.320312 281.367188 219.320312 C 278.226562 219.320312 275.679688 216.773438 275.679688 213.628906 C 275.679688 210.488281 278.226562 207.941406 281.367188 207.941406 C 284.507812 207.941406 287.054688 210.488281 287.054688 213.628906 "/>
<path fill-rule="nonzero" fill="rgb(18.431373%, 30.980392%, 30.980392%)" fill-opacity="0.901961" stroke-width="0.708661" stroke-linecap="round" stroke-linejoin="round" stroke="rgb(18.431373%, 30.980392%, 30.980392%)" stroke-opacity="0.901961" stroke-miterlimit="10" d="M 159.820312 329.335938 C 159.820312 332.480469 157.273438 335.027344 154.128906 335.027344 C 150.988281 335.027344 148.441406 332.480469 148.441406 329.335938 C 148.441406 326.195312 150.988281 323.648438 154.128906 323.648438 C 157.273438 323.648438 159.820312 326.195312 159.820312 329.335938 "/>
<path fill-rule="nonzero" fill="rgb(18.431373%, 30.980392%, 30.980392%)" fill-opacity="0.901961" stroke-width="0.708661" stroke-linecap="round" stroke-linejoin="round" stroke="rgb(18.431373%, 30.980392%, 30.980392%)" stroke-opacity="0.901961" stroke-miterlimit="10" d="M 257.617188 286.894531 C 257.617188 290.039062 255.070312 292.585938 251.925781 292.585938 C 248.785156 292.585938 246.238281 290.039062 246.238281 286.894531 C 246.238281 283.753906 248.785156 281.207031 251.925781 281.207031 C 255.070312 281.207031 257.617188 283.753906 257.617188 286.894531 "/>
<path fill-rule="nonzero" fill="rgb(18.431373%, 30.980392%, 30.980392%)" fill-opacity="0.901961" stroke-width="0.708661" stroke-linecap="round" stroke-linejoin="round" stroke="rgb(18.431373%, 30.980392%, 30.980392%)" stroke-opacity="0.901961" stroke-miterlimit="10" d="M 290.457031 204.914062 C 290.457031 208.054688 287.910156 210.601562 284.769531 210.601562 C 281.628906 210.601562 279.082031 208.054688 279.082031 204.914062 C 279.082031 201.769531 281.628906 199.222656 284.769531 199.222656 C 287.910156 199.222656 290.457031 201.769531 290.457031 204.914062 "/>
<path fill-rule="nonzero" fill="rgb(18.431373%, 30.980392%, 30.980392%)" fill-opacity="0.901961" stroke-width="0.708661" stroke-linecap="round" stroke-linejoin="round" stroke="rgb(18.431373%, 30.980392%, 30.980392%)" stroke-opacity="0.901961" stroke-miterlimit="10" d="M 29.628906 402.011719 C 29.628906 405.152344 27.082031 407.699219 23.941406 407.699219 C 20.796875 407.699219 18.25 405.152344 18.25 402.011719 C 18.25 398.871094 20.796875 396.324219 23.941406 396.324219 C 27.082031 396.324219 29.628906 398.871094 29.628906 402.011719 "/>
<path fill-rule="nonzero" fill="rgb(18.431373%, 30.980392%, 30.980392%)" fill-opacity="0.901961" stroke-width="0.708661" stroke-linecap="round" stroke-linejoin="round" stroke="rgb(18.431373%, 30.980392%, 30.980392%)" stroke-opacity="0.901961" stroke-miterlimit="10" d="M 282.050781 201.3125 C 282.050781 204.453125 279.503906 207 276.359375 207 C 273.21875 207 270.671875 204.453125 270.671875 201.3125 C 270.671875 198.167969 273.21875 195.621094 276.359375 195.621094 C 279.503906 195.621094 282.050781 198.167969 282.050781 201.3125 "/>
<path fill-rule="nonzero" fill="rgb(18.431373%, 30.980392%, 30.980392%)" fill-opacity="0.901961" stroke-width="0.708661" stroke-linecap="round" stroke-linejoin="round" stroke="rgb(18.431373%, 30.980392%, 30.980392%)" stroke-opacity="0.901961" stroke-miterlimit="10" d="M 149.871094 256.398438 C 149.871094 259.542969 147.324219 262.089844 144.183594 262.089844 C 141.042969 262.089844 138.496094 259.542969 138.496094 256.398438 C 138.496094 253.257812 141.042969 250.710938 144.183594 250.710938 C 147.324219 250.710938 149.871094 253.257812 149.871094 256.398438 "/>
<path fill-rule="nonzero" fill="rgb(18.431373%, 30.980392%, 30.980392%)" fill-opacity="0.901961" stroke-width="0.708661" stroke-linecap="round" stroke-linejoin="round" stroke="rgb(18.431373%, 30.980392%, 30.980392%)" stroke-opacity="0.901961" stroke-miterlimit="10" d="M 153.582031 364.847656 C 153.582031 367.988281 151.035156 370.539062 147.894531 370.539062 C 144.75 370.539062 142.203125 367.988281 142.203125 364.847656 C 142.203125 361.707031 144.75 359.160156 147.894531 359.160156 C 151.035156 359.160156 153.582031 361.707031 153.582031 364.847656 "/>
<path fill-rule="nonzero" fill="rgb(18.431373%, 30.980392%, 30.980392%)" fill-opacity="0.901961" stroke-width="0.708661" stroke-linecap="round" stroke-linejoin="round" stroke="rgb(18.431373%, 30.980392%, 30.980392%)" stroke-opacity="0.901961" stroke-miterlimit="10" d="M 241.410156 191.640625 C 241.410156 194.78125 238.863281 197.328125 235.722656 197.328125 C 232.582031 197.328125 230.035156 194.78125 230.035156 191.640625 C 230.035156 188.496094 232.582031 185.949219 235.722656 185.949219 C 238.863281 185.949219 241.410156 188.496094 241.410156 191.640625 "/>
<path fill-rule="nonzero" fill="rgb(18.431373%, 30.980392%, 30.980392%)" fill-opacity="0.901961" stroke-width="0.708661" stroke-linecap="round" stroke-linejoin="round" stroke="rgb(18.431373%, 30.980392%, 30.980392%)" stroke-opacity="0.901961" stroke-miterlimit="10" d="M 237.960938 267.703125 C 237.960938 270.84375 235.414062 273.390625 232.273438 273.390625 C 229.128906 273.390625 226.582031 270.84375 226.582031 267.703125 C 226.582031 264.5625 229.128906 262.011719 232.273438 262.011719 C 235.414062 262.011719 237.960938 264.5625 237.960938 267.703125 "/>
<path fill-rule="nonzero" fill="rgb(18.431373%, 30.980392%, 30.980392%)" fill-opacity="0.901961" stroke-width="0.708661" stroke-linecap="round" stroke-linejoin="round" stroke="rgb(18.431373%, 30.980392%, 30.980392%)" stroke-opacity="0.901961" stroke-miterlimit="10" d="M 199.371094 326.054688 C 199.371094 329.195312 196.820312 331.742188 193.679688 331.742188 C 190.539062 331.742188 187.992188 329.195312 187.992188 326.054688 C 187.992188 322.914062 190.539062 320.367188 193.679688 320.367188 C 196.820312 320.367188 199.371094 322.914062 199.371094 326.054688 "/>
<path fill-rule="nonzero" fill="rgb(18.431373%, 30.980392%, 30.980392%)" fill-opacity="0.901961" stroke-width="0.708661" stroke-linecap="round" stroke-linejoin="round" stroke="rgb(18.431373%, 30.980392%, 30.980392%)" stroke-opacity="0.901961" stroke-miterlimit="10" d="M 229.804688 295.234375 C 229.804688 298.378906 227.257812 300.925781 224.117188 300.925781 C 220.976562 300.925781 218.425781 298.378906 218.425781 295.234375 C 218.425781 292.09375 220.976562 289.546875 224.117188 289.546875 C 227.257812 289.546875 229.804688 292.09375 229.804688 295.234375 "/>
<path fill-rule="nonzero" fill="rgb(18.431373%, 30.980392%, 30.980392%)" fill-opacity="0.901961" stroke-width="0.708661" stroke-linecap="round" stroke-linejoin="round" stroke="rgb(18.431373%, 30.980392%, 30.980392%)" stroke-opacity="0.901961" stroke-miterlimit="10" d="M 291.066406 338.917969 C 291.066406 342.0625 288.519531 344.609375 285.375 344.609375 C 282.234375 344.609375 279.6875 342.0625 279.6875 338.917969 C 279.6875 335.777344 282.234375 333.230469 285.375 333.230469 C 288.519531 333.230469 291.066406 335.777344 291.066406 338.917969 "/>
<path fill-rule="nonzero" fill="rgb(18.431373%, 30.980392%, 30.980392%)" fill-opacity="0.901961" stroke-width="0.708661" stroke-linecap="round" stroke-linejoin="round" stroke="rgb(18.431373%, 30.980392%, 30.980392%)" stroke-opacity="0.901961" stroke-miterlimit="10" d="M 143.816406 314.605469 C 143.816406 317.746094 141.269531 320.296875 138.125 320.296875 C 134.984375 320.296875 132.4375 317.746094 132.4375 314.605469 C 132.4375 311.464844 134.984375 308.917969 138.125 308.917969 C 141.269531 308.917969 143.816406 311.464844 143.816406 314.605469 "/>
<path fill-rule="nonzero" fill="rgb(18.431373%, 30.980392%, 30.980392%)" fill-opacity="0.901961" stroke-width="0.708661" stroke-linecap="round" stroke-linejoin="round" stroke="rgb(18.431373%, 30.980392%, 30.980392%)" stroke-opacity="0.901961" stroke-miterlimit="10" d="M 416.453125 241.816406 C 416.453125 244.960938 413.90625 247.507812 410.765625 247.507812 C 407.621094 247.507812 405.074219 244.960938 405.074219 241.816406 C 405.074219 238.675781 407.621094 236.128906 410.765625 236.128906 C 413.90625 236.128906 416.453125 238.675781 416.453125 241.816406 "/>
<path fill-rule="nonzero" fill="rgb(18.431373%, 30.980392%, 30.980392%)" fill-opacity="0.901961" stroke-width="0.708661" stroke-linecap="round" stroke-linejoin="round" stroke="rgb(18.431373%, 30.980392%, 30.980392%)" stroke-opacity="0.901961" stroke-miterlimit="10" d="M 171.878906 215.355469 C 171.878906 218.496094 169.332031 221.042969 166.1875 221.042969 C 163.046875 221.042969 160.5 218.496094 160.5 215.355469 C 160.5 212.214844 163.046875 209.664062 166.1875 209.664062 C 169.332031 209.664062 171.878906 212.214844 171.878906 215.355469 "/>
<path fill-rule="nonzero" fill="rgb(18.431373%, 30.980392%, 30.980392%)" fill-opacity="0.901961" stroke-width="0.708661" stroke-linecap="round" stroke-linejoin="round" stroke="rgb(18.431373%, 30.980392%, 30.980392%)" stroke-opacity="0.901961" stroke-miterlimit="10" d="M 334.710938 169.796875 C 334.710938 172.9375 332.164062 175.484375 329.023438 175.484375 C 325.878906 175.484375 323.332031 172.9375 323.332031 169.796875 C 323.332031 166.65625 325.878906 164.109375 329.023438 164.109375 C 332.164062 164.109375 334.710938 166.65625 334.710938 169.796875 "/>
<path fill-rule="nonzero" fill="rgb(18.431373%, 30.980392%, 30.980392%)" fill-opacity="0.901961" stroke-width="0.708661" stroke-linecap="round" stroke-linejoin="round" stroke="rgb(18.431373%, 30.980392%, 30.980392%)" stroke-opacity="0.901961" stroke-miterlimit="10" d="M 136.085938 392.28125 C 136.085938 395.421875 133.539062 397.972656 130.398438 397.972656 C 127.253906 397.972656 124.707031 395.421875 124.707031 392.28125 C 124.707031 389.140625 127.253906 386.59375 130.398438 386.59375 C 133.539062 386.59375 136.085938 389.140625 136.085938 392.28125 "/>
<path fill-rule="nonzero" fill="rgb(18.431373%, 30.980392%, 30.980392%)" fill-opacity="0.901961" stroke-width="0.708661" stroke-linecap="round" stroke-linejoin="round" stroke="rgb(18.431373%, 30.980392%, 30.980392%)" stroke-opacity="0.901961" stroke-miterlimit="10" d="M 211.539062 158.6875 C 211.539062 161.832031 208.992188 164.378906 205.851562 164.378906 C 202.707031 164.378906 200.160156 161.832031 200.160156 158.6875 C 200.160156 155.546875 202.707031 153 205.851562 153 C 208.992188 153 211.539062 155.546875 211.539062 158.6875 "/>
<path fill-rule="nonzero" fill="rgb(18.431373%, 30.980392%, 30.980392%)" fill-opacity="0.901961" stroke-width="0.708661" stroke-linecap="round" stroke-linejoin="round" stroke="rgb(18.431373%, 30.980392%, 30.980392%)" stroke-opacity="0.901961" stroke-miterlimit="10" d="M 222.242188 382.878906 C 222.242188 386.019531 219.695312 388.566406 216.550781 388.566406 C 213.410156 388.566406 210.863281 386.019531 210.863281 382.878906 C 210.863281 379.734375 213.410156 377.1875 216.550781 377.1875 C 219.695312 377.1875 222.242188 379.734375 222.242188 382.878906 "/>
<path fill-rule="nonzero" fill="rgb(18.431373%, 30.980392%, 30.980392%)" fill-opacity="0.901961" stroke-width="0.708661" stroke-linecap="round" stroke-linejoin="round" stroke="rgb(18.431373%, 30.980392%, 30.980392%)" stroke-opacity="0.901961" stroke-miterlimit="10" d="M 99.507812 247.738281 C 99.507812 250.878906 96.960938 253.425781 93.820312 253.425781 C 90.675781 253.425781 88.128906 250.878906 88.128906 247.738281 C 88.128906 244.59375 90.675781 242.046875 93.820312 242.046875 C 96.960938 242.046875 99.507812 244.59375 99.507812 247.738281 "/>
<path fill-rule="nonzero" fill="rgb(18.431373%, 30.980392%, 30.980392%)" fill-opacity="0.901961" stroke-width="0.708661" stroke-linecap="round" stroke-linejoin="round" stroke="rgb(18.431373%, 30.980392%, 30.980392%)" stroke-opacity="0.901961" stroke-miterlimit="10" d="M 220.257812 268.746094 C 220.257812 271.890625 217.710938 274.4375 214.570312 274.4375 C 211.425781 274.4375 208.878906 271.890625 208.878906 268.746094 C 208.878906 265.605469 211.425781 263.058594 214.570312 263.058594 C 217.710938 263.058594 220.257812 265.605469 220.257812 268.746094 "/>
<path fill-rule="nonzero" fill="rgb(18.431373%, 30.980392%, 30.980392%)" fill-opacity="0.901961" stroke-width="0.708661" stroke-linecap="round" stroke-linejoin="round" stroke="rgb(18.431373%, 30.980392%, 30.980392%)" stroke-opacity="0.901961" stroke-miterlimit="10" d="M 262.902344 208.585938 C 262.902344 211.726562 260.355469 214.273438 257.214844 214.273438 C 254.074219 214.273438 251.527344 211.726562 251.527344 208.585938 C 251.527344 205.441406 254.074219 202.894531 257.214844 202.894531 C 260.355469 202.894531 262.902344 205.441406 262.902344 208.585938 "/>
<path fill-rule="nonzero" fill="rgb(18.431373%, 30.980392%, 30.980392%)" fill-opacity="0.901961" stroke-width="0.708661" stroke-linecap="round" stroke-linejoin="round" stroke="rgb(18.431373%, 30.980392%, 30.980392%)" stroke-opacity="0.901961" stroke-miterlimit="10" d="M 284.496094 327.367188 C 284.496094 330.507812 281.949219 333.054688 278.804688 333.054688 C 275.664062 333.054688 273.117188 330.507812 273.117188 327.367188 C 273.117188 324.222656 275.664062 321.675781 278.804688 321.675781 C 281.949219 321.675781 284.496094 324.222656 284.496094 327.367188 "/>
<path fill-rule="nonzero" fill="rgb(18.431373%, 30.980392%, 30.980392%)" fill-opacity="0.901961" stroke-width="0.708661" stroke-linecap="round" stroke-linejoin="round" stroke="rgb(18.431373%, 30.980392%, 30.980392%)" stroke-opacity="0.901961" stroke-miterlimit="10" d="M 271.839844 281.75 C 271.839844 284.890625 269.292969 287.4375 266.148438 287.4375 C 263.007812 287.4375 260.460938 284.890625 260.460938 281.75 C 260.460938 278.609375 263.007812 276.058594 266.148438 276.058594 C 269.292969 276.058594 271.839844 278.609375 271.839844 281.75 "/>
<path fill-rule="nonzero" fill="rgb(18.431373%, 30.980392%, 30.980392%)" fill-opacity="0.901961" stroke-width="0.708661" stroke-linecap="round" stroke-linejoin="round" stroke="rgb(18.431373%, 30.980392%, 30.980392%)" stroke-opacity="0.901961" stroke-miterlimit="10" d="M 219.066406 333.804688 C 219.066406 336.945312 216.515625 339.492188 213.375 339.492188 C 210.234375 339.492188 207.6875 336.945312 207.6875 333.804688 C 207.6875 330.664062 210.234375 328.117188 213.375 328.117188 C 216.515625 328.117188 219.066406 330.664062 219.066406 333.804688 "/>
<path fill-rule="nonzero" fill="rgb(18.431373%, 30.980392%, 30.980392%)" fill-opacity="0.901961" stroke-width="0.708661" stroke-linecap="round" stroke-linejoin="round" stroke="rgb(18.431373%, 30.980392%, 30.980392%)" stroke-opacity="0.901961" stroke-miterlimit="10" d="M 180.191406 212.140625 C 180.191406 215.28125 177.644531 217.828125 174.5 217.828125 C 171.359375 217.828125 168.8125 215.28125 168.8125 212.140625 C 168.8125 209 171.359375 206.453125 174.5 206.453125 C 177.644531 206.453125 180.191406 209 180.191406 212.140625 "/>
<path fill-rule="nonzero" fill="rgb(18.431373%, 30.980392%, 30.980392%)" fill-opacity="0.901961" stroke-width="0.708661" stroke-linecap="round" stroke-linejoin="round" stroke="rgb(18.431373%, 30.980392%, 30.980392%)" stroke-opacity="0.901961" stroke-miterlimit="10" d="M 159.21875 326.753906 C 159.21875 329.894531 156.667969 332.441406 153.527344 332.441406 C 150.386719 332.441406 147.839844 329.894531 147.839844 326.753906 C 147.839844 323.613281 150.386719 321.066406 153.527344 321.066406 C 156.667969 321.066406 159.21875 323.613281 159.21875 326.753906 "/>
<path fill-rule="nonzero" fill="rgb(18.431373%, 30.980392%, 30.980392%)" fill-opacity="0.901961" stroke-width="0.708661" stroke-linecap="round" stroke-linejoin="round" stroke="rgb(18.431373%, 30.980392%, 30.980392%)" stroke-opacity="0.901961" stroke-miterlimit="10" d="M 153.902344 289.839844 C 153.902344 292.984375 151.351562 295.53125 148.210938 295.53125 C 145.070312 295.53125 142.523438 292.984375 142.523438 289.839844 C 142.523438 286.699219 145.070312 284.152344 148.210938 284.152344 C 151.351562 284.152344 153.902344 286.699219 153.902344 289.839844 "/>
<path fill-rule="nonzero" fill="rgb(18.431373%, 30.980392%, 30.980392%)" fill-opacity="0.901961" stroke-width="0.708661" stroke-linecap="round" stroke-linejoin="round" stroke="rgb(18.431373%, 30.980392%, 30.980392%)" stroke-opacity="0.901961" stroke-miterlimit="10" d="M 217.828125 262.8125 C 217.828125 265.957031 215.28125 268.503906 212.140625 268.503906 C 208.996094 268.503906 206.449219 265.957031 206.449219 262.8125 C 206.449219 259.671875 208.996094 257.125 212.140625 257.125 C 215.28125 257.125 217.828125 259.671875 217.828125 262.8125 "/>
<path fill-rule="nonzero" fill="rgb(18.431373%, 30.980392%, 30.980392%)" fill-opacity="0.901961" stroke-width="0.708661" stroke-linecap="round" stroke-linejoin="round" stroke="rgb(18.431373%, 30.980392%, 30.980392%)" stroke-opacity="0.901961" stroke-miterlimit="10" d="M 296.113281 258.230469 C 296.113281 261.375 293.566406 263.921875 290.425781 263.921875 C 287.28125 263.921875 284.734375 261.375 284.734375 258.230469 C 284.734375 255.089844 287.28125 252.542969 290.425781 252.542969 C 293.566406 252.542969 296.113281 255.089844 296.113281 258.230469 "/>
<path fill-rule="nonzero" fill="rgb(18.431373%, 30.980392%, 30.980392%)" fill-opacity="0.901961" stroke-width="0.708661" stroke-linecap="round" stroke-linejoin="round" stroke="rgb(18.431373%, 30.980392%, 30.980392%)" stroke-opacity="0.901961" stroke-miterlimit="10" d="M 216.746094 394.953125 C 216.746094 398.09375 214.199219 400.640625 211.058594 400.640625 C 207.917969 400.640625 205.367188 398.09375 205.367188 394.953125 C 205.367188 391.8125 207.917969 389.261719 211.058594 389.261719 C 214.199219 389.261719 216.746094 391.8125 216.746094 394.953125 "/>
<path fill-rule="nonzero" fill="rgb(18.431373%, 30.980392%, 30.980392%)" fill-opacity="0.901961" stroke-width="0.708661" stroke-linecap="round" stroke-linejoin="round" stroke="rgb(18.431373%, 30.980392%, 30.980392%)" stroke-opacity="0.901961" stroke-miterlimit="10" d="M 341.269531 180.898438 C 341.269531 184.039062 338.722656 186.585938 335.578125 186.585938 C 332.4375 186.585938 329.890625 184.039062 329.890625 180.898438 C 329.890625 177.753906 332.4375 175.207031 335.578125 175.207031 C 338.722656 175.207031 341.269531 177.753906 341.269531 180.898438 "/>
<path fill-rule="nonzero" fill="rgb(18.431373%, 30.980392%, 30.980392%)" fill-opacity="0.901961" stroke-width="0.708661" stroke-linecap="round" stroke-linejoin="round" stroke="rgb(18.431373%, 30.980392%, 30.980392%)" stroke-opacity="0.901961" stroke-miterlimit="10" d="M 145.609375 216.871094 C 145.609375 220.011719 143.0625 222.558594 139.917969 222.558594 C 136.777344 222.558594 134.230469 220.011719 134.230469 216.871094 C 134.230469 213.726562 136.777344 211.179688 139.917969 211.179688 C 143.0625 211.179688 145.609375 213.726562 145.609375 216.871094 "/>
<path fill-rule="nonzero" fill="rgb(18.431373%, 30.980392%, 30.980392%)" fill-opacity="0.901961" stroke-width="0.708661" stroke-linecap="round" stroke-linejoin="round" stroke="rgb(18.431373%, 30.980392%, 30.980392%)" stroke-opacity="0.901961" stroke-miterlimit="10" d="M 189.136719 290.871094 C 189.136719 294.011719 186.589844 296.558594 183.445312 296.558594 C 180.304688 296.558594 177.757812 294.011719 177.757812 290.871094 C 177.757812 287.726562 180.304688 285.179688 183.445312 285.179688 C 186.589844 285.179688 189.136719 287.726562 189.136719 290.871094 "/>
<path fill-rule="nonzero" fill="rgb(18.431373%, 30.980392%, 30.980392%)" fill-opacity="0.901961" stroke-width="0.708661" stroke-linecap="round" stroke-linejoin="round" stroke="rgb(18.431373%, 30.980392%, 30.980392%)" stroke-opacity="0.901961" stroke-miterlimit="10" d="M 275.527344 237.546875 C 275.527344 240.691406 272.980469 243.238281 269.839844 243.238281 C 266.695312 243.238281 264.148438 240.691406 264.148438 237.546875 C 264.148438 234.40625 266.695312 231.859375 269.839844 231.859375 C 272.980469 231.859375 275.527344 234.40625 275.527344 237.546875 "/>
<path fill-rule="nonzero" fill="rgb(18.431373%, 30.980392%, 30.980392%)" fill-opacity="0.901961" stroke-width="0.708661" stroke-linecap="round" stroke-linejoin="round" stroke="rgb(18.431373%, 30.980392%, 30.980392%)" stroke-opacity="0.901961" stroke-miterlimit="10" d="M 319.296875 208.882812 C 319.296875 212.027344 316.75 214.574219 313.609375 214.574219 C 310.46875 214.574219 307.917969 212.027344 307.917969 208.882812 C 307.917969 205.742188 310.46875 203.195312 313.609375 203.195312 C 316.75 203.195312 319.296875 205.742188 319.296875 208.882812 "/>
<path fill-rule="nonzero" fill="rgb(18.431373%, 30.980392%, 30.980392%)" fill-opacity="0.901961" stroke-width="0.708661" stroke-linecap="round" stroke-linejoin="round" stroke="rgb(18.431373%, 30.980392%, 30.980392%)" stroke-opacity="0.901961" stroke-miterlimit="10" d="M 486.828125 135.9375 C 486.828125 139.078125 484.28125 141.625 481.140625 141.625 C 477.996094 141.625 475.449219 139.078125 475.449219 135.9375 C 475.449219 132.792969 477.996094 130.246094 481.140625 130.246094 C 484.28125 130.246094 486.828125 132.792969 486.828125 135.9375 "/>
<path fill-rule="nonzero" fill="rgb(18.431373%, 30.980392%, 30.980392%)" fill-opacity="0.901961" stroke-width="0.708661" stroke-linecap="round" stroke-linejoin="round" stroke="rgb(18.431373%, 30.980392%, 30.980392%)" stroke-opacity="0.901961" stroke-miterlimit="10" d="M 67.921875 330.042969 C 67.921875 333.183594 65.375 335.730469 62.230469 335.730469 C 59.089844 335.730469 56.542969 333.183594 56.542969 330.042969 C 56.542969 326.902344 59.089844 324.355469 62.230469 324.355469 C 65.375 324.355469 67.921875 326.902344 67.921875 330.042969 "/>
<path fill-rule="nonzero" fill="rgb(18.431373%, 30.980392%, 30.980392%)" fill-opacity="0.901961" stroke-width="0.708661" stroke-linecap="round" stroke-linejoin="round" stroke="rgb(18.431373%, 30.980392%, 30.980392%)" stroke-opacity="0.901961" stroke-miterlimit="10" d="M 100.984375 314.003906 C 100.984375 317.144531 98.4375 319.691406 95.292969 319.691406 C 92.152344 319.691406 89.605469 317.144531 89.605469 314.003906 C 89.605469 310.859375 92.152344 308.3125 95.292969 308.3125 C 98.4375 308.3125 100.984375 310.859375 100.984375 314.003906 "/>
<path fill-rule="nonzero" fill="rgb(18.431373%, 30.980392%, 30.980392%)" fill-opacity="0.901961" stroke-width="0.708661" stroke-linecap="round" stroke-linejoin="round" stroke="rgb(18.431373%, 30.980392%, 30.980392%)" stroke-opacity="0.901961" stroke-miterlimit="10" d="M 217.441406 221.25 C 217.441406 224.394531 214.894531 226.941406 211.753906 226.941406 C 208.609375 226.941406 206.0625 224.394531 206.0625 221.25 C 206.0625 218.109375 208.609375 215.5625 211.753906 215.5625 C 214.894531 215.5625 217.441406 218.109375 217.441406 221.25 "/>
<path fill-rule="nonzero" fill="rgb(18.431373%, 30.980392%, 30.980392%)" fill-opacity="0.901961" stroke-width="0.708661" stroke-linecap="round" stroke-linejoin="round" stroke="rgb(18.431373%, 30.980392%, 30.980392%)" stroke-opacity="0.901961" stroke-miterlimit="10" d="M 159.273438 161.601562 C 159.273438 164.746094 156.726562 167.292969 153.585938 167.292969 C 150.445312 167.292969 147.894531 164.746094 147.894531 161.601562 C 147.894531 158.460938 150.445312 155.914062 153.585938 155.914062 C 156.726562 155.914062 159.273438 158.460938 159.273438 161.601562 "/>
<path fill-rule="nonzero" fill="rgb(18.431373%, 30.980392%, 30.980392%)" fill-opacity="0.901961" stroke-width="0.708661" stroke-linecap="round" stroke-linejoin="round" stroke="rgb(18.431373%, 30.980392%, 30.980392%)" stroke-opacity="0.901961" stroke-miterlimit="10" d="M 98.824219 298.398438 C 98.824219 301.542969 96.277344 304.089844 93.136719 304.089844 C 89.992188 304.089844 87.445312 301.542969 87.445312 298.398438 C 87.445312 295.257812 89.992188 292.710938 93.136719 292.710938 C 96.277344 292.710938 98.824219 295.257812 98.824219 298.398438 "/>
<path fill-rule="nonzero" fill="rgb(18.431373%, 30.980392%, 30.980392%)" fill-opacity="0.901961" stroke-width="0.708661" stroke-linecap="round" stroke-linejoin="round" stroke="rgb(18.431373%, 30.980392%, 30.980392%)" stroke-opacity="0.901961" stroke-miterlimit="10" d="M 47.351562 323.996094 C 47.351562 327.136719 44.804688 329.683594 41.664062 329.683594 C 38.523438 329.683594 35.976562 327.136719 35.976562 323.996094 C 35.976562 320.851562 38.523438 318.304688 41.664062 318.304688 C 44.804688 318.304688 47.351562 320.851562 47.351562 323.996094 "/>
<path fill-rule="nonzero" fill="rgb(18.431373%, 30.980392%, 30.980392%)" fill-opacity="0.901961" stroke-width="0.708661" stroke-linecap="round" stroke-linejoin="round" stroke="rgb(18.431373%, 30.980392%, 30.980392%)" stroke-opacity="0.901961" stroke-miterlimit="10" d="M 181.566406 413.023438 C 181.566406 416.164062 179.019531 418.710938 175.875 418.710938 C 172.734375 418.710938 170.1875 416.164062 170.1875 413.023438 C 170.1875 409.882812 172.734375 407.335938 175.875 407.335938 C 179.019531 407.335938 181.566406 409.882812 181.566406 413.023438 "/>
<path fill-rule="nonzero" fill="rgb(18.431373%, 30.980392%, 30.980392%)" fill-opacity="0.901961" stroke-width="0.708661" stroke-linecap="round" stroke-linejoin="round" stroke="rgb(18.431373%, 30.980392%, 30.980392%)" stroke-opacity="0.901961" stroke-miterlimit="10" d="M 279.910156 292.164062 C 279.910156 295.308594 277.363281 297.855469 274.222656 297.855469 C 271.082031 297.855469 268.53125 295.308594 268.53125 292.164062 C 268.53125 289.023438 271.082031 286.476562 274.222656 286.476562 C 277.363281 286.476562 279.910156 289.023438 279.910156 292.164062 "/>
<path fill-rule="nonzero" fill="rgb(18.431373%, 30.980392%, 30.980392%)" fill-opacity="0.901961" stroke-width="0.708661" stroke-linecap="round" stroke-linejoin="round" stroke="rgb(18.431373%, 30.980392%, 30.980392%)" stroke-opacity="0.901961" stroke-miterlimit="10" d="M 235.875 225.371094 C 235.875 228.515625 233.328125 231.0625 230.183594 231.0625 C 227.042969 231.0625 224.496094 228.515625 224.496094 225.371094 C 224.496094 222.230469 227.042969 219.683594 230.183594 219.683594 C 233.328125 219.683594 235.875 222.230469 235.875 225.371094 "/>
<path fill-rule="nonzero" fill="rgb(18.431373%, 30.980392%, 30.980392%)" fill-opacity="0.901961" stroke-width="0.708661" stroke-linecap="round" stroke-linejoin="round" stroke="rgb(18.431373%, 30.980392%, 30.980392%)" stroke-opacity="0.901961" stroke-miterlimit="10" d="M 259.476562 270.835938 C 259.476562 273.980469 256.929688 276.527344 253.789062 276.527344 C 250.644531 276.527344 248.097656 273.980469 248.097656 270.835938 C 248.097656 267.695312 250.644531 265.148438 253.789062 265.148438 C 256.929688 265.148438 259.476562 267.695312 259.476562 270.835938 "/>
<path fill-rule="nonzero" fill="rgb(18.431373%, 30.980392%, 30.980392%)" fill-opacity="0.901961" stroke-width="0.708661" stroke-linecap="round" stroke-linejoin="round" stroke="rgb(18.431373%, 30.980392%, 30.980392%)" stroke-opacity="0.901961" stroke-miterlimit="10" d="M 214.457031 237.816406 C 214.457031 240.960938 211.90625 243.507812 208.765625 243.507812 C 205.625 243.507812 203.078125 240.960938 203.078125 237.816406 C 203.078125 234.675781 205.625 232.128906 208.765625 232.128906 C 211.90625 232.128906 214.457031 234.675781 214.457031 237.816406 "/>
<path fill-rule="nonzero" fill="rgb(18.431373%, 30.980392%, 30.980392%)" fill-opacity="0.901961" stroke-width="0.708661" stroke-linecap="round" stroke-linejoin="round" stroke="rgb(18.431373%, 30.980392%, 30.980392%)" stroke-opacity="0.901961" stroke-miterlimit="10" d="M 192.175781 197.246094 C 192.175781 200.386719 189.628906 202.933594 186.484375 202.933594 C 183.34375 202.933594 180.796875 200.386719 180.796875 197.246094 C 180.796875 194.101562 183.34375 191.554688 186.484375 191.554688 C 189.628906 191.554688 192.175781 194.101562 192.175781 197.246094 "/>
<path fill-rule="nonzero" fill="rgb(18.431373%, 30.980392%, 30.980392%)" fill-opacity="0.901961" stroke-width="0.708661" stroke-linecap="round" stroke-linejoin="round" stroke="rgb(18.431373%, 30.980392%, 30.980392%)" stroke-opacity="0.901961" stroke-miterlimit="10" d="M 190.449219 365.8125 C 190.449219 368.953125 187.902344 371.5 184.761719 371.5 C 181.621094 371.5 179.070312 368.953125 179.070312 365.8125 C 179.070312 362.667969 181.621094 360.121094 184.761719 360.121094 C 187.902344 360.121094 190.449219 362.667969 190.449219 365.8125 "/>
<path fill-rule="nonzero" fill="rgb(18.431373%, 30.980392%, 30.980392%)" fill-opacity="0.901961" stroke-width="0.708661" stroke-linecap="round" stroke-linejoin="round" stroke="rgb(18.431373%, 30.980392%, 30.980392%)" stroke-opacity="0.901961" stroke-miterlimit="10" d="M 227.058594 383.082031 C 227.058594 386.222656 224.511719 388.769531 221.371094 388.769531 C 218.226562 388.769531 215.679688 386.222656 215.679688 383.082031 C 215.679688 379.9375 218.226562 377.390625 221.371094 377.390625 C 224.511719 377.390625 227.058594 379.9375 227.058594 383.082031 "/>
<path fill-rule="nonzero" fill="rgb(18.431373%, 30.980392%, 30.980392%)" fill-opacity="0.901961" stroke-width="0.708661" stroke-linecap="round" stroke-linejoin="round" stroke="rgb(18.431373%, 30.980392%, 30.980392%)" stroke-opacity="0.901961" stroke-miterlimit="10" d="M 260.949219 125.726562 C 260.949219 128.871094 258.402344 131.417969 255.261719 131.417969 C 252.117188 131.417969 249.570312 128.871094 249.570312 125.726562 C 249.570312 122.585938 252.117188 120.039062 255.261719 120.039062 C 258.402344 120.039062 260.949219 122.585938 260.949219 125.726562 "/>
<path fill-rule="nonzero" fill="rgb(18.431373%, 30.980392%, 30.980392%)" fill-opacity="0.901961" stroke-width="0.708661" stroke-linecap="round" stroke-linejoin="round" stroke="rgb(18.431373%, 30.980392%, 30.980392%)" stroke-opacity="0.901961" stroke-miterlimit="10" d="M 213.511719 399.867188 C 213.511719 403.007812 210.964844 405.554688 207.820312 405.554688 C 204.679688 405.554688 202.132812 403.007812 202.132812 399.867188 C 202.132812 396.722656 204.679688 394.175781 207.820312 394.175781 C 210.964844 394.175781 213.511719 396.722656 213.511719 399.867188 "/>
<path fill-rule="nonzero" fill="rgb(18.431373%, 30.980392%, 30.980392%)" fill-opacity="0.901961" stroke-width="0.708661" stroke-linecap="round" stroke-linejoin="round" stroke="rgb(18.431373%, 30.980392%, 30.980392%)" stroke-opacity="0.901961" stroke-miterlimit="10" d="M 87.546875 211.753906 C 87.546875 214.894531 85 217.441406 81.855469 217.441406 C 78.714844 217.441406 76.167969 214.894531 76.167969 211.753906 C 76.167969 208.613281 78.714844 206.066406 81.855469 206.066406 C 85 206.066406 87.546875 208.613281 87.546875 211.753906 "/>
<path fill-rule="nonzero" fill="rgb(18.431373%, 30.980392%, 30.980392%)" fill-opacity="0.901961" stroke-width="0.708661" stroke-linecap="round" stroke-linejoin="round" stroke="rgb(18.431373%, 30.980392%, 30.980392%)" stroke-opacity="0.901961" stroke-miterlimit="10" d="M 173.359375 321.132812 C 173.359375 324.273438 170.8125 326.820312 167.671875 326.820312 C 164.527344 326.820312 161.980469 324.273438 161.980469 321.132812 C 161.980469 317.988281 164.527344 315.441406 167.671875 315.441406 C 170.8125 315.441406 173.359375 317.988281 173.359375 321.132812 "/>
<path fill-rule="nonzero" fill="rgb(18.431373%, 30.980392%, 30.980392%)" fill-opacity="0.901961" stroke-width="0.708661" stroke-linecap="round" stroke-linejoin="round" stroke="rgb(18.431373%, 30.980392%, 30.980392%)" stroke-opacity="0.901961" stroke-miterlimit="10" d="M 214.199219 336.597656 C 214.199219 339.738281 211.648438 342.285156 208.507812 342.285156 C 205.367188 342.285156 202.820312 339.738281 202.820312 336.597656 C 202.820312 333.457031 205.367188 330.910156 208.507812 330.910156 C 211.648438 330.910156 214.199219 333.457031 214.199219 336.597656 "/>
<path fill-rule="nonzero" fill="rgb(18.431373%, 30.980392%, 30.980392%)" fill-opacity="0.901961" stroke-width="0.708661" stroke-linecap="round" stroke-linejoin="round" stroke="rgb(18.431373%, 30.980392%, 30.980392%)" stroke-opacity="0.901961" stroke-miterlimit="10" d="M 200.652344 174.609375 C 200.652344 177.75 198.105469 180.296875 194.964844 180.296875 C 191.824219 180.296875 189.277344 177.75 189.277344 174.609375 C 189.277344 171.464844 191.824219 168.917969 194.964844 168.917969 C 198.105469 168.917969 200.652344 171.464844 200.652344 174.609375 "/>
<path fill-rule="nonzero" fill="rgb(18.431373%, 30.980392%, 30.980392%)" fill-opacity="0.901961" stroke-width="0.708661" stroke-linecap="round" stroke-linejoin="round" stroke="rgb(18.431373%, 30.980392%, 30.980392%)" stroke-opacity="0.901961" stroke-miterlimit="10" d="M 245.804688 205.519531 C 245.804688 208.664062 243.257812 211.210938 240.117188 211.210938 C 236.972656 211.210938 234.425781 208.664062 234.425781 205.519531 C 234.425781 202.378906 236.972656 199.832031 240.117188 199.832031 C 243.257812 199.832031 245.804688 202.378906 245.804688 205.519531 "/>
<path fill-rule="nonzero" fill="rgb(18.431373%, 30.980392%, 30.980392%)" fill-opacity="0.901961" stroke-width="0.708661" stroke-linecap="round" stroke-linejoin="round" stroke="rgb(18.431373%, 30.980392%, 30.980392%)" stroke-opacity="0.901961" stroke-miterlimit="10" d="M 321.617188 324.304688 C 321.617188 327.445312 319.070312 329.992188 315.925781 329.992188 C 312.785156 329.992188 310.238281 327.445312 310.238281 324.304688 C 310.238281 321.160156 312.785156 318.613281 315.925781 318.613281 C 319.070312 318.613281 321.617188 321.160156 321.617188 324.304688 "/>
<path fill-rule="nonzero" fill="rgb(18.431373%, 30.980392%, 30.980392%)" fill-opacity="0.901961" stroke-width="0.708661" stroke-linecap="round" stroke-linejoin="round" stroke="rgb(18.431373%, 30.980392%, 30.980392%)" stroke-opacity="0.901961" stroke-miterlimit="10" d="M 188.769531 390.679688 C 188.769531 393.820312 186.222656 396.367188 183.082031 396.367188 C 179.941406 396.367188 177.394531 393.820312 177.394531 390.679688 C 177.394531 387.535156 179.941406 384.988281 183.082031 384.988281 C 186.222656 384.988281 188.769531 387.535156 188.769531 390.679688 "/>
<path fill-rule="nonzero" fill="rgb(18.431373%, 30.980392%, 30.980392%)" fill-opacity="0.901961" stroke-width="0.708661" stroke-linecap="round" stroke-linejoin="round" stroke="rgb(18.431373%, 30.980392%, 30.980392%)" stroke-opacity="0.901961" stroke-miterlimit="10" d="M 200.121094 418.960938 C 200.121094 422.101562 197.574219 424.648438 194.433594 424.648438 C 191.292969 424.648438 188.746094 422.101562 188.746094 418.960938 C 188.746094 415.820312 191.292969 413.269531 194.433594 413.269531 C 197.574219 413.269531 200.121094 415.820312 200.121094 418.960938 "/>
<path fill-rule="nonzero" fill="rgb(18.431373%, 30.980392%, 30.980392%)" fill-opacity="0.901961" stroke-width="0.708661" stroke-linecap="round" stroke-linejoin="round" stroke="rgb(18.431373%, 30.980392%, 30.980392%)" stroke-opacity="0.901961" stroke-miterlimit="10" d="M 114.4375 369.84375 C 114.4375 372.984375 111.890625 375.535156 108.75 375.535156 C 105.609375 375.535156 103.0625 372.984375 103.0625 369.84375 C 103.0625 366.703125 105.609375 364.15625 108.75 364.15625 C 111.890625 364.15625 114.4375 366.703125 114.4375 369.84375 "/>
<path fill-rule="nonzero" fill="rgb(18.431373%, 30.980392%, 30.980392%)" fill-opacity="0.901961" stroke-width="0.708661" stroke-linecap="round" stroke-linejoin="round" stroke="rgb(18.431373%, 30.980392%, 30.980392%)" stroke-opacity="0.901961" stroke-miterlimit="10" d="M 182.230469 448.597656 C 182.230469 451.738281 179.683594 454.285156 176.542969 454.285156 C 173.402344 454.285156 170.855469 451.738281 170.855469 448.597656 C 170.855469 445.453125 173.402344 442.90625 176.542969 442.90625 C 179.683594 442.90625 182.230469 445.453125 182.230469 448.597656 "/>
<path fill-rule="nonzero" fill="rgb(18.431373%, 30.980392%, 30.980392%)" fill-opacity="0.901961" stroke-width="0.708661" stroke-linecap="round" stroke-linejoin="round" stroke="rgb(18.431373%, 30.980392%, 30.980392%)" stroke-opacity="0.901961" stroke-miterlimit="10" d="M 282.484375 119.101562 C 282.484375 122.242188 279.9375 124.789062 276.796875 124.789062 C 273.652344 124.789062 271.105469 122.242188 271.105469 119.101562 C 271.105469 115.960938 273.652344 113.414062 276.796875 113.414062 C 279.9375 113.414062 282.484375 115.960938 282.484375 119.101562 "/>
<path fill-rule="nonzero" fill="rgb(18.431373%, 30.980392%, 30.980392%)" fill-opacity="0.901961" stroke-width="0.708661" stroke-linecap="round" stroke-linejoin="round" stroke="rgb(18.431373%, 30.980392%, 30.980392%)" stroke-opacity="0.901961" stroke-miterlimit="10" d="M 386.363281 239.367188 C 386.363281 242.511719 383.816406 245.058594 380.671875 245.058594 C 377.53125 245.058594 374.984375 242.511719 374.984375 239.367188 C 374.984375 236.226562 377.53125 233.679688 380.671875 233.679688 C 383.816406 233.679688 386.363281 236.226562 386.363281 239.367188 "/>
<g clip-path="url(#clip-0)">
<path fill="none" stroke-width="4.267913" stroke-linecap="butt" stroke-linejoin="round" stroke="rgb(90.196078%, 25.490196%, 45.098039%)" stroke-opacity="0.901961" stroke-miterlimit="10" d="M -501.839844 583.882812 L 1006.921875 -73.679688 "/>
</g>
</svg>
